<?xml version="1.0" encoding="utf-8"?>
<!-- Generator: Adobe Illustrator 26.0.2, SVG Export Plug-In . SVG Version: 6.00 Build 0)  -->
<svg version="1.1" id="Layer_1" xmlns="http://www.w3.org/2000/svg" xmlns:xlink="http://www.w3.org/1999/xlink" x="0px" y="0px"
	 viewBox="0 0 617 69" style="enable-background:new 0 0 617 69;" xml:space="preserve">
<style type="text/css">
	.st0{fill:#333333;}
</style>
<g>
	<path class="st0" d="M37.05,39.71h9.59c-1.22,8.66-7.59,15.54-21.98,15.54c-13.67,0-22.19-7.59-22.19-20.4
		c0-13.03,8.52-20.55,22.19-20.55c14.39,0,20.62,6.8,21.84,15.32h-9.52c-0.79-4.37-3.72-8.16-12.31-8.16
		c-8.02,0-13.17,4.51-13.17,13.39c0,8.73,5.15,13.24,13.17,13.24C33.25,48.09,36.26,44.3,37.05,39.71z"/>
	<path class="st0" d="M95.18,34.77c0,12.89-8.52,20.48-22.55,20.48c-14.03,0-22.55-7.59-22.55-20.48c0-12.89,8.52-20.48,22.55-20.48
		C86.66,14.3,95.18,21.89,95.18,34.77z M86.16,34.77c0-8.81-5.15-13.32-13.53-13.32S59.1,25.97,59.1,34.77s5.15,13.32,13.53,13.32
		S86.16,43.58,86.16,34.77z"/>
	<path class="st0" d="M109.29,20.6h0.29c3.29-4.37,8.73-6.01,14.32-6.01c6.23,0,11.46,1.93,14.03,6.16
		c3.51-4.44,9.59-6.16,15.82-6.16c8.52,0,15.61,3.87,15.61,13.39v26.06h-8.73V30.48c0-6.3-3.87-8.73-9.88-8.73
		c-5.15,0-11.31,2.94-11.31,10.74v21.55h-8.73V30.48c0-6.3-3.87-8.73-9.88-8.73c-5.15,0-11.31,2.94-11.31,10.74v21.55h-8.73V15.52
		h8.52V20.6z"/>
	<path class="st0" d="M185.62,20.6h0.29c3.29-4.37,8.73-6.01,14.32-6.01c6.23,0,11.46,1.93,14.03,6.16
		c3.51-4.44,9.59-6.16,15.82-6.16c8.52,0,15.61,3.87,15.61,13.39v26.06h-8.73V30.48c0-6.3-3.87-8.73-9.88-8.73
		c-5.15,0-11.31,2.94-11.31,10.74v21.55h-8.73V30.48c0-6.3-3.87-8.73-9.88-8.73c-5.15,0-11.31,2.94-11.31,10.74v21.55h-8.73V15.52
		h8.52V20.6z"/>
	<path class="st0" d="M285.42,49.09h-0.29c-3.72,4.01-9.09,5.87-15.18,5.87c-9.38,0-16.54-3.94-16.54-13.6V15.52h8.73v22.77
		c0,6.87,3.87,9.52,10.74,9.52c5.87,0,12.31-3.15,12.31-11.67V15.52h8.73v38.52h-8.52V49.09z"/>
	<path class="st0" d="M310.2,20.46h0.29c3.72-4.01,9.09-5.87,15.18-5.87c9.38,0,16.54,3.94,16.54,13.6v25.85h-8.73V31.27
		c0-6.87-3.87-9.52-10.74-9.52c-5.87,0-12.31,3.15-12.31,11.67v20.62h-8.73V15.52h8.52V20.46z"/>
	<path class="st0" d="M349.79,1.91h9.02v7.16h-9.02V1.91z M349.94,15.52h8.73v38.52h-8.73V15.52z"/>
	<path class="st0" d="M398.84,39.71h9.59c-1.22,8.66-7.59,15.54-21.98,15.54c-13.67,0-22.19-7.59-22.19-20.4
		c0-13.03,8.52-20.55,22.19-20.55c14.39,0,20.62,6.8,21.84,15.32h-9.52c-0.79-4.37-3.72-8.16-12.31-8.16
		c-8.02,0-13.17,4.51-13.17,13.39c0,8.73,5.15,13.24,13.17,13.24C395.04,48.09,398.05,44.3,398.84,39.71z"/>
	<path class="st0" d="M453.04,53.6v0.43h-8.52c-0.64-0.64-1.07-2.29-1.07-4.65v-1.07c-3.65,4.73-9.59,6.94-16.97,6.94
		c-8.09,0-15.11-3.87-15.11-12.17c0-8.16,5.51-11.31,11.38-11.96l15.18-1.58c3.44-0.36,5.01-1.43,5.01-3.94
		c0-2.65-2.86-4.44-9.67-4.44c-6.09,0-10.31,1.86-10.6,5.8h-9.09c0.21-9.24,9.38-12.67,19.62-12.67c11.1,0,18.76,2.86,18.76,11.31
		v22.19C451.96,50.02,452.03,52.39,453.04,53.6z M443.23,34.63c-0.79,0.57-2,0.79-3.15,0.93l-13.46,1.72
		c-3.65,0.43-6.23,1.79-6.23,5.66c0,4.3,3.29,5.8,7.95,5.8c6.01,0,14.89-2.65,14.89-11.74V34.63z"/>
	<path class="st0" d="M482.25,46.66v7.37c-1.58,0.36-4.51,0.64-6.87,0.64c-9.38,0-12.67-2.86-12.67-10.45V21.82h-6.87v-6.3h6.87
		V4.85h8.73v10.67h10.95v6.3h-10.95v21.05c0,3.29,1.65,4.37,4.8,4.37C477.67,47.23,480.68,47.02,482.25,46.66z"/>
	<path class="st0" d="M487.91,1.91h9.02v7.16h-9.02V1.91z M488.05,15.52h8.73v38.52h-8.73V15.52z"/>
	<path class="st0" d="M547.48,34.77c0,12.89-8.52,20.48-22.55,20.48c-14.03,0-22.55-7.59-22.55-20.48
		c0-12.89,8.52-20.48,22.55-20.48C538.96,14.3,547.48,21.89,547.48,34.77z M538.45,34.77c0-8.81-5.15-13.32-13.53-13.32
		s-13.53,4.51-13.53,13.32s5.15,13.32,13.53,13.32S538.45,43.58,538.45,34.77z"/>
	<path class="st0" d="M561.58,20.46h0.29c3.72-4.01,9.09-5.87,15.18-5.87c9.38,0,16.54,3.94,16.54,13.6v25.85h-8.73V31.27
		c0-6.87-3.87-9.52-10.74-9.52c-5.87,0-12.31,3.15-12.31,11.67v20.62h-8.73V15.52h8.52V20.46z"/>
	<path class="st0" d="M602.11,44.3h10.45v9.74h-10.45V44.3z"/>
</g>
</svg>
