<?xml version="1.0" encoding="utf-8"?>
<!-- Generator: Adobe Illustrator 26.0.2, SVG Export Plug-In . SVG Version: 6.00 Build 0)  -->
<svg version="1.1" id="Layer_1" xmlns="http://www.w3.org/2000/svg" xmlns:xlink="http://www.w3.org/1999/xlink" x="0px" y="0px"
	 viewBox="0 0 239 69" style="enable-background:new 0 0 239 69;" xml:space="preserve">
<style type="text/css">
	.st0{fill:#FFFFFF;}
</style>
<g>
	<path class="st0" d="M0,13.8c0.7,0.1,1.5,0.1,2.2,0.2c2.5,0,5,0,7.6,0c0.4,0,0.8,0,1.3,0.1c0.3,0,0.7,0.3,0.7,0.6
		c0.1,0.4,0.1,0.8,0.1,1.2c0,1.3,0,2.7,0,4c0,0.3,0,0.7,0.1,1c0.1,0.2,0.3,0.4,0.5,0.5c0.7,0.1,1.5,0.1,2.3,0.2
		c0.4,0,0.8,0.4,0.8,0.8c0,1.4,0,2.8,0,4.3c0,2.4,0,2.4,2.3,2.4c0.3,0,0.7,0.1,1,0.2c0.1,0,0.3,0.2,0.3,0.3c0.1,0.4,0.2,0.8,0.2,1.2
		c0,2.3,0,4.5,0,6.8c0,0.7,0,1.3,0.1,2c0,0.4,0.4,0.8,0.8,0.8c0.7,0.1,1.3,0.1,2,0.1c0.4,0,0.7,0.4,0.8,0.8c0,0.7,0.1,1.3,0.1,2
		c0,0.3,0.3,0.7,0.6,0.7c0.8,0,1.5,0.1,2.3,0.1c0.2,0,0.3-0.1,0.5-0.1c0.3,0,0.6-0.4,0.6-0.7c0-0.5,0.1-1,0.1-1.5c0-1.3,0-2.5,0-3.8
		c0-0.2,0-0.5,0.1-0.7c0-0.3,0.3-0.6,0.6-0.7c0.8,0,1.5-0.1,2.3-0.1c0.3,0,0.7-0.4,0.7-0.6c0-0.8,0.1-1.5,0.1-2.3c0-2,0-4,0-6
		c0-0.5,0.1-1,0.1-1.5c0-0.3,0.4-0.6,0.7-0.6c0.4,0,0.8-0.1,1.3-0.1c0.3,0,0.7-0.1,1-0.1c0.3,0,0.6-0.4,0.6-0.7
		c0-0.4,0.1-0.8,0.1-1.2c0-1.2,0-2.3,0-3.5c0-0.4,0-0.8,0.1-1.3c0-0.3,0.4-0.6,0.7-0.6c0.7,0,1.3-0.1,2-0.1c0.6,0,0.9-0.4,0.9-1
		c0-0.1,0-0.2,0-0.2c0.1-2.8,0.3-2.6,2.7-2.6c1.3,0,2.5,0,3.8,0.1c0.3,0,0.6,0.3,0.6,0.7c0,1.9,0,3.8,0,5.8c0,0.4-0.3,0.7-0.8,0.8
		c-0.6,0-1.2,0-1.8,0.1c-0.7,0-1,0.4-1,1.1c0,1.6,0,3.2,0,4.8c0,0.5,0,1-0.4,1.5c-0.4,0-0.8,0.1-1.2,0.1c-0.5,0-1,0-1.5,0.1
		c-0.3,0-0.7,0.3-0.7,0.6c0,0.8-0.1,1.5-0.1,2.3c0,1.3,0,2.5-0.1,3.8c0,0.4-0.3,0.7-0.8,0.8c-0.7,0-1.3,0.1-2,0.1
		c-0.4,0-0.7,0.4-0.8,0.8c0,0.6-0.1,1.2-0.1,1.8c0,1.9,0,3.9,0,5.8c0,0.6,0,1.2,0,1.8c0,0.6-0.4,0.9-0.9,1c-0.7,0.1-1.3,0.1-2,0.2
		c-0.4,0-0.8,0.4-0.8,0.8c0,0.5-0.1,1-0.1,1.5c0,1.2,0,2.3,0,3.5c0,1.3-0.2,1.5-1.7,1.6c-0.1,0-0.2,0-0.3,0c-2.4,0-4.7,0-7.1,0
		c-0.4,0-0.8-0.1-1.2-0.1c-0.3,0-0.6-0.4-0.7-0.7c0-0.7-0.1-1.3-0.1-2c0-0.5-0.4-0.9-1-0.9c-0.5,0-1,0-1.5,0c-0.9,0-1.1-0.3-1.2-1.3
		c0-0.7,0-1.3,0-2c0-1.8,0-3.7,0-5.5c0-0.6-0.1-1.2-0.1-1.7c0-0.3-0.4-0.7-0.6-0.7c-0.5-0.1-1-0.1-1.5-0.1c-1.4-0.1-1.5-0.2-1.5-1.7
		c0-1.3,0-2.5,0-3.8c0-0.4,0-0.8-0.1-1.2c0-0.3-0.4-0.6-0.7-0.7c-0.6-0.1-1.2-0.1-1.7-0.2c-0.2,0-0.5-0.1-0.7-0.2
		c-0.1-0.1-0.3-0.2-0.3-0.4c-0.1-0.2-0.2-0.5-0.2-0.7c0-0.8,0-1.7,0-2.5c0-0.8,0-1.7-0.1-2.5c0-0.8-0.4-1.1-1.1-1.2
		c-0.6-0.1-1.2-0.1-1.8-0.1c-0.2,0-0.3-0.1-0.5-0.2c-0.1-0.1-0.3-0.2-0.3-0.4c-0.1-0.3-0.1-0.7-0.1-1c0-1.3,0-2.7,0-4
		c0-0.4,0-0.8-0.1-1.2c-0.1-0.2-0.3-0.5-0.5-0.5c-0.4-0.1-0.8-0.2-1.2-0.2c-0.9-0.1-1.8-0.1-2.8-0.1C0,16.1,0,15,0,13.8z"/>
	<path class="st0" d="M197.2,36.4c0,5.4,0,10.9,0,16.3c0,2.4,0,2.4-2.4,2.4c-1.3,0-2.5,0-3.8-0.1c-0.5,0-0.9-0.4-1-1
		c0-0.7-0.1-1.3-0.1-2c0-0.9,0-1.8,0-2.8c0-1.4-0.3-1.7-1.8-1.7c-0.5,0-1,0.1-1.5,0.1c-0.2,0-0.6,0.4-0.6,0.7c0,0.6,0,1.2-0.1,1.8
		c0,0.2,0,0.5-0.1,0.7c-0.1,0.2-0.3,0.4-0.5,0.5c-0.2,0-0.3,0.1-0.5,0.1c-2.6,0-2.7-0.1-2.7,2.6c0,0.2,0,0.4-0.1,0.5
		c-0.1,0.2-0.3,0.4-0.5,0.5c-0.3,0.1-0.7,0.1-1,0.1c-5,0-10.1,0-15.1,0c-0.3,0-0.5,0-0.8,0c-0.6-0.1-0.9-0.4-1-0.9
		c0-0.7-0.1-1.3-0.1-2c0-0.3-0.4-0.6-0.7-0.6c-0.8-0.1-1.5-0.1-2.3-0.1c-0.3,0-0.6-0.4-0.7-0.7c-0.1-0.7-0.1-1.3-0.2-2
		c-0.1-0.7-0.4-1-1.2-1.1c-0.6-0.1-1.2-0.1-1.8-0.1c-0.4,0-0.7-0.4-0.8-0.9c0-0.3,0-0.7,0-1c0-2.4,0-4.9,0-7.3c0-0.3,0-0.5,0-0.8
		c0-0.6,0.3-1,0.9-1c0.6,0,1.2,0,1.8-0.1c0.6,0,0.9-0.3,1-0.9c0.1-0.7,0.1-1.3,0.2-2c0-0.3,0.4-0.6,0.7-0.7c0.8,0,1.5-0.1,2.3-0.1
		c1.2,0,2.4,0,3.5-0.1c0.4,0,0.8-0.4,0.9-0.8c0.1-0.7,0.1-1.5,0.2-2.2c0-0.4,0.4-0.7,0.9-0.8c0.8,0,1.5,0,2.3,0c5.5,0,10.9,0,16.4,0
		c0.8,0,1.5,0,2.3-0.1c0.3,0,0.7-0.4,0.7-0.6c0-0.8,0.1-1.5,0.1-2.3c0-0.7-0.4-1-1.1-1.1c-0.3,0-0.7,0-1-0.1
		c-1.4-0.1-1.5-0.2-1.6-1.6c0-0.3,0-0.7,0-1c-0.1-0.7-0.4-1-1.1-1c-0.3,0-0.7,0-1,0c-3.7,0-7.4,0-11.1,0c-0.5,0-1,0-1.5,0.1
		c-0.2,0-0.5,0.2-0.5,0.5c-0.1,0.7-0.1,1.5-0.2,2.2c0,0.4-0.4,0.8-0.8,0.8c-0.2,0-0.3,0.1-0.5,0.1c-2.7,0-5.4,0-8.1,0
		c-0.2,0-0.5-0.1-0.7-0.1c-0.3,0-0.6-0.4-0.7-0.7c-0.1-0.7-0.2-1.3,0-2c0.1-0.3,0.4-0.6,0.7-0.6c0.7,0,1.3-0.1,2-0.1
		c0.2,0,0.3,0,0.5-0.1c0.1-0.1,0.3-0.2,0.3-0.4c0.1-0.7,0.1-1.5,0.2-2.3c0-0.5,0.3-0.8,0.8-0.8c0.2,0,0.3,0,0.5,0
		c2.2,0,2.4,0,2.5-2.4c0-0.2,0.1-0.5,0.1-0.7c0-0.2,0.4-0.7,0.7-0.7c0.3,0,0.7-0.1,1-0.1c6.3,0,12.6,0,18.9,0c0.3,0,0.7,0,1,0.1
		c0.2,0.1,0.5,0.2,0.5,0.5c0.1,0.7,0.1,1.5,0.2,2.2c0,0.6,0.4,1,0.9,1c0.8,0,1.5,0.1,2.3,0.1c1.1,0,2.2,0,3.3,0c0.6,0,1,0.4,1,0.9
		c0,0.8,0,1.5,0,2.3C197.2,26.2,197.2,31.3,197.2,36.4z M178.6,36.3c-3.2,0-6.4,0-9.5,0c-0.5,0-1,0-1.5,0.1c-0.2,0-0.4,0.3-0.5,0.5
		c-0.1,0.2-0.1,0.5-0.1,0.7c0,2.9,0,5.8,0,8.8c0,0.2,0.1,0.5,0.1,0.7c0,0.3,0.4,0.6,0.7,0.7c0.6,0.1,1.2,0.1,1.7,0.1
		c3.4,0,6.9,0,10.3,0c2.4,0,2.6,0.2,2.7-2.6c0-0.9,0.3-1.2,1.2-1.2c0.5,0,1,0,1.5,0c0.6,0,1-0.3,1-0.9c0-0.7,0.1-1.3,0.1-2
		c0-0.3,0.3-0.6,0.6-0.7c0.7-0.1,1.5-0.1,2.2-0.2c0.2,0,0.5-0.2,0.6-0.4c0.4-1,0.4-2.1,0-3.2c0-0.1-0.2-0.3-0.4-0.3
		c-0.4-0.1-0.8-0.1-1.2-0.1C184.9,36.3,181.8,36.3,178.6,36.3z"/>
	<path class="st0" d="M85.5,55.1c-3.4,0-6.7,0-10.1,0c-0.7,0-1.3-0.1-2-0.1c-0.3,0-0.6-0.4-0.6-0.7c0-0.7-0.1-1.3-0.1-2
		c0-0.4-0.4-0.8-0.8-0.8c-0.1,0-0.2,0-0.2,0c-0.8-0.1-1.8,0.3-2.4-0.4c-0.5-0.6-0.2-1.5-0.3-2.2c0-0.2-0.1-0.3-0.1-0.5
		c-0.1-0.3-0.4-0.6-0.7-0.7c-0.6-0.1-1.2-0.1-1.8-0.1c-0.2,0-0.5-0.1-0.7-0.2c-0.1-0.1-0.2-0.2-0.3-0.3c0-0.1-0.1-0.2-0.1-0.2
		c0-1.8,0-3.7,0-5.5c0-0.4,0.4-0.8,0.8-0.8c1.8,0,3.5,0,5.3,0c0.6,0,1,0.3,1,0.9c0.1,0.7,0.1,1.3,0.1,2c0,0.3,0.3,0.6,0.6,0.7
		c0.8,0,1.5,0.1,2.3,0.1c0.3,0,0.6,0.3,0.7,0.6c0.1,0.8,0.1,1.5,0.1,2.3c0,0.4,0.4,0.8,0.8,0.8c0.4,0,0.8,0.1,1.3,0.1
		c5,0,10.1,0,15.1,0c0.4,0,0.8-0.1,1.2-0.1c0.3,0,0.6-0.4,0.7-0.7c0-0.2,0.1-0.5,0.1-0.7c0-1.7,0-3.4,0-5c0-1-0.3-1.3-1.4-1.4
		c-0.5,0-1-0.1-1.5-0.1c-0.4,0-0.7-0.4-0.8-0.8c0-0.4-0.1-0.8-0.1-1.3c-0.1-1.4-0.3-1.5-1.7-1.5c-0.7,0-1.3,0-2,0
		c-4.2,0-8.4,0-12.6,0c-0.4,0-0.8,0-1.3,0c-1,0-1.2-0.2-1.3-1.1c0-0.6,0-1.2-0.1-1.8c0-0.4-0.4-0.8-0.8-0.8c-0.2,0-0.3-0.1-0.5-0.1
		c-2.3-0.1-2.3-0.2-2.5-2.4c0-0.2,0-0.5-0.1-0.7c-0.1-0.2-0.3-0.4-0.5-0.5c-0.7-0.1-1.5-0.1-2.3-0.1c-0.5,0-0.8-0.3-0.8-0.8
		c0-1.9,0-3.9,0-5.8c0-0.3,0.3-0.6,0.7-0.6c0.8,0,1.5-0.1,2.3-0.1c0.3,0,0.6-0.4,0.6-0.7c0.1-0.7,0.1-1.3,0.2-2
		c0.1-0.5,0.4-0.9,1-0.9c2.7,0,2.7-0.2,2.7-2.7c0-0.2,0-0.3,0-0.5c0-0.3,0.3-0.7,0.6-0.7c0.4,0,0.8-0.1,1.3-0.1c6.1,0,12.3,0,18.4,0
		c0.4,0,0.8,0,1.3,0.1c0.3,0,0.6,0.4,0.7,0.7c0,0.4,0.1,0.8,0.1,1.2c0,1.7,0.3,1.9,1.9,1.9c1.3,0,2.7,0,4,0c0.3,0,0.7,0.1,1,0.1
		c0.3,0,0.4,0.3,0.5,0.5c0,0.1,0.1,0.2,0.1,0.2c0,1.8,0,3.5,0,5.3c0,0.5-0.3,0.9-1,0.9c-1.8,0-3.5,0-5.3,0c-0.5,0-0.8-0.4-0.9-1
		c0-0.1,0-0.2,0-0.3c0-2.4-0.1-2.4-2.4-2.4c-4.9,0-9.7,0-14.6,0c-0.5,0-1,0-1.5,0.1c-0.3,0-0.6,0.3-0.7,0.6c0,0.2-0.1,0.5-0.1,0.7
		c0,1.8,0,3.7,0.1,5.5c0,0.3,0.3,0.7,0.6,0.7c0.7,0,1.3,0.1,2,0.1c4.3,0,8.6,0,12.9,0c0.7,0,1.3,0,2,0c1,0,1.3,0.3,1.4,1.4
		c0,0.6,0.1,1.2,0.1,1.8c0,0.2,0.4,0.6,0.7,0.7c0.6,0,1.2,0.1,1.8,0.1c1.2,0,2.4,0,3.5,0c0.3,0,0.5,0,0.8,0.1c0.3,0,0.6,0.3,0.7,0.7
		c0.1,0.7,0.1,1.3,0.1,2c0,0.6,0.4,0.9,1,0.9c0.5,0,1,0,1.5,0c0.8,0,1.1,0.3,1.1,1c0,3,0,6,0,9c0,0.4-0.3,0.8-0.8,0.8
		c-0.2,0-0.3,0.1-0.5,0.1c-2.4,0-2.4,0.2-2.4,2.4c0,0.3-0.1,0.7-0.2,1c0,0.1-0.2,0.3-0.3,0.3c-0.6,0.1-1.2,0.1-1.8,0.1
		c-0.2,0-0.3,0-0.5,0c-0.7,0-1,0.4-1,1.1c0,0.6-0.1,1.2-0.1,1.8c0,0.3-0.3,0.6-0.6,0.7c-0.8,0.1-1.5,0.1-2.3,0.1
		C92.4,55.1,88.9,55.1,85.5,55.1z"/>
	<path class="st0" d="M140.2,51.3c-0.9,0-1.7,0.1-2.6,0.1c-0.5,0-0.9,0.4-0.9,1c0,0.3,0,0.7,0,1c0,1.4-0.2,1.7-1.6,1.7
		c-3.9,0-7.7,0-11.6,0c-0.2,0-0.5-0.1-0.7-0.1c-0.3,0-0.6-0.3-0.7-0.6c-0.1-0.7-0.2-1.5-0.3-2.2c0-0.3-0.4-0.6-0.7-0.6
		c-0.9,0-1.8,0-2.8-0.1c-0.7,0-1.3,0-2,0c-1.8,0-1.9-0.1-2-2c0-1.1,0-2.2,0-3.3c0-0.5-0.1-1-0.1-1.5c0-0.3-0.4-0.7-0.7-0.7
		c-0.8,0-1.5-0.1-2.3-0.1c-0.4,0-0.6-0.3-0.7-0.6c0-0.3-0.1-0.7-0.1-1c0-8.9,0-17.8,0-26.6c0-0.3,0-0.7,0.1-1
		c0.1-0.2,0.3-0.4,0.5-0.5c0.2-0.1,0.5-0.1,0.7-0.1c2.8,0,5.5,0,8.3,0c0.2,0,0.5,0,0.7,0.1c0.2,0.1,0.4,0.2,0.5,0.5
		c0,0.8,0.1,1.5,0.1,2.3c0,7.7,0,15.4,0,23.1c0,0.7,0,1.3,0,2c0,2,0.1,2.1,2.1,2.1c0.3,0,0.7,0,1,0.1c0.3,0,0.6,0.4,0.7,0.7
		c0,0.5,0.1,1,0.1,1.5c0,0.3,0,0.7,0.2,1c0.1,0.2,0.3,0.4,0.5,0.5c0.2,0.1,0.5,0.1,0.7,0.1c2.9,0,5.9,0,8.8,0c0.2,0,0.5,0,0.7-0.1
		c0.2-0.1,0.5-0.3,0.5-0.5c0.1-0.6,0.1-1.2,0.2-1.7c0-0.2,0.1-0.5,0.1-0.7c0-0.3,0.4-0.7,0.7-0.7c0.8,0,1.5-0.1,2.3-0.1
		c0.3,0,0.6-0.3,0.7-0.6c0-0.7,0.1-1.3,0.1-2c0-0.6,0.3-0.9,1-0.9c0.6,0,1.2-0.1,1.8-0.1c0.5,0,0.9-0.4,0.9-1c0-0.8,0.1-1.7,0.1-2.5
		c0-6.5,0-13.1,0-19.6c0-0.8,0.1-1.7,0.1-2.5c0-0.4,0.4-0.8,0.8-0.8c1.8,0,3.5,0,5.3,0c0.6,0,0.9,0.4,0.9,1c0,0.6,0,1.2,0,1.8
		c0,11.8,0,23.6,0,35.4c0,0.3,0,0.7,0,1c0,1.8-0.1,1.9-2.1,1.9c-1.4,0-2.9-0.1-4.3-0.1c-0.3,0-0.7-0.4-0.7-0.6
		c-0.1-0.7-0.1-1.5-0.2-2.2c0-1.2,0-2.3-0.1-3.5c0-0.5-0.4-0.9-1-0.9c-0.7,0-1.3,0-2,0c-0.6,0-0.9,0.4-1,0.9c0,0.6,0,1.2-0.1,1.8
		C140.4,50.7,140.3,51,140.2,51.3z"/>
	<path class="st0" d="M50,34.4c0-5.5,0-11,0-16.6c0-0.6,0-1.2,0-1.8c0-2.1,0-2.1,2.1-2.1c2.3,0,4.7,0,7,0c0.4,0,0.8,0,1.2,0.1
		c0.2,0,0.5,0.2,0.5,0.5c0,0.8,0.1,1.7,0.1,2.5c0,11.6,0,23.3,0,34.9c0,0.4,0,0.8,0,1.3c0,1.7-0.2,1.9-1.9,1.9c-2.4,0-4.9,0-7.3,0
		c-0.4,0-0.8-0.1-1.2-0.2c-0.2-0.1-0.4-0.3-0.5-0.5C50,53.7,50,52.9,50,52.2C50,46.2,50,40.3,50,34.4z"/>
	<path class="st0" d="M212.3,28.9c0,7.8,0,15.6,0,23.4c0,3,0.2,2.9-2.9,2.9c-1.1,0-2.2,0-3.3-0.1c-0.5,0-0.9-0.4-1-1
		c0-0.7-0.1-1.3-0.1-2c0-15.4,0-30.8,0-46.2c0-0.6,0-1.2,0-1.8c0.1-1,0.4-1.3,1.4-1.3c1.6,0,3.2,0,4.8,0c0.5,0,0.9,0.4,0.9,1
		c0,0.8,0,1.7,0,2.5C212.3,13.8,212.3,21.4,212.3,28.9z"/>
	<path class="st0" d="M55.4,9.9c-1.3,0-2.5,0-3.8,0c-0.3,0-0.7,0-1-0.2c-0.2-0.1-0.4-0.3-0.5-0.5C50,9.1,50,8.9,50,8.7
		c0-1.7,0-3.3,0-5c0-0.5,0.4-0.9,1-0.9c0.5,0,1,0,1.5,0c2.1,0,4.2,0,6.3,0c0.5,0,1,0.1,1.5,0.1c0.3,0,0.6,0.3,0.6,0.7
		c0,1.8,0,3.7,0,5.5c0,0.4-0.4,0.8-0.8,0.8c-0.5,0-1,0.1-1.5,0.1C57.5,9.9,56.4,9.9,55.4,9.9C55.4,9.9,55.4,9.9,55.4,9.9z"/>
</g>
</svg>
