<?xml version="1.0" encoding="utf-8"?>
<!-- Generator: Adobe Illustrator 26.0.2, SVG Export Plug-In . SVG Version: 6.00 Build 0)  -->
<svg version="1.1" id="Layer_1" xmlns="http://www.w3.org/2000/svg" xmlns:xlink="http://www.w3.org/1999/xlink" x="0px" y="0px"
	 viewBox="0 0 372 69" style="enable-background:new 0 0 372 69;" xml:space="preserve">
<style type="text/css">
	.st0{fill:#333333;}
</style>
<g>
	<path class="st0" d="M29.22,15.4c12.1,0,20.48,7.45,20.48,20.33c0,12.89-8.38,20.33-20.48,20.33c-6.59,0-11.88-2.58-14.75-6.73
		h-0.29v5.51H5.67V3.01h8.73v18.76h0.29C17.55,17.97,22.63,15.4,29.22,15.4z M40.68,35.73c0-8.81-4.94-13.17-13.25-13.17
		c-8.23,0-13.24,5.3-13.24,13.17S19.2,48.9,27.43,48.9C35.74,48.9,40.68,44.54,40.68,35.73z"/>
	<path class="st0" d="M94.3,54.42v0.43h-8.52c-0.64-0.64-1.07-2.29-1.07-4.65v-1.07c-3.65,4.73-9.59,6.94-16.97,6.94
		c-8.09,0-15.11-3.87-15.11-12.17c0-8.16,5.51-11.31,11.38-11.96l15.18-1.58c3.44-0.36,5.01-1.43,5.01-3.94
		c0-2.65-2.86-4.44-9.67-4.44c-6.09,0-10.31,1.86-10.6,5.8h-9.09c0.21-9.24,9.38-12.67,19.62-12.67c11.1,0,18.76,2.86,18.76,11.31
		v22.19C93.23,50.84,93.3,53.2,94.3,54.42z M84.49,35.44c-0.79,0.57-2,0.79-3.15,0.93l-13.46,1.72c-3.65,0.43-6.23,1.79-6.23,5.66
		c0,4.3,3.29,5.8,7.95,5.8c6.01,0,14.89-2.65,14.89-11.74V35.44z"/>
	<path class="st0" d="M100.97,3.01h8.73v51.83h-8.73V3.01z"/>
	<path class="st0" d="M156.45,54.42v0.43h-8.52c-0.64-0.64-1.07-2.29-1.07-4.65v-1.07c-3.65,4.73-9.59,6.94-16.97,6.94
		c-8.09,0-15.11-3.87-15.11-12.17c0-8.16,5.51-11.31,11.38-11.96l15.18-1.58c3.44-0.36,5.01-1.43,5.01-3.94
		c0-2.65-2.86-4.44-9.67-4.44c-6.09,0-10.31,1.86-10.6,5.8H117c0.21-9.24,9.38-12.67,19.62-12.67c11.1,0,18.76,2.86,18.76,11.31
		v22.19C155.38,50.84,155.45,53.2,156.45,54.42z M146.64,35.44c-0.79,0.57-2,0.79-3.15,0.93l-13.46,1.72
		c-3.65,0.43-6.23,1.79-6.23,5.66c0,4.3,3.29,5.8,7.95,5.8c6.01,0,14.89-2.65,14.89-11.74V35.44z"/>
	<path class="st0" d="M171.63,21.27h0.29c3.72-4.01,9.09-5.87,15.18-5.87c9.38,0,16.54,3.94,16.54,13.6v25.85h-8.73V32.08
		c0-6.87-3.87-9.52-10.74-9.52c-5.87,0-12.31,3.15-12.31,11.67v20.62h-8.73V16.33h8.52V21.27z"/>
	<path class="st0" d="M243.8,40.53h9.59c-1.22,8.66-7.59,15.54-21.98,15.54c-13.67,0-22.19-7.59-22.19-20.4
		c0-13.03,8.52-20.55,22.19-20.55c14.39,0,20.62,6.8,21.84,15.32h-9.52c-0.79-4.37-3.72-8.16-12.31-8.16
		c-8.02,0-13.17,4.51-13.17,13.39c0,8.73,5.15,13.25,13.17,13.25C240.01,48.9,243.02,45.11,243.8,40.53z"/>
	<path class="st0" d="M300.8,37.81h-35.01c0.72,7.73,5.73,11.38,13.53,11.38c7.88,0,10.95-3.58,11.53-6.44h9.67
		c-0.93,6.44-6.66,13.32-21.19,13.32c-13.96,0-22.48-7.59-22.48-20.48c0-12.89,8.52-20.48,22.05-20.48s22.05,7.59,22.05,20.48
		C300.94,36.23,300.87,37.16,300.8,37.81z M266.14,31.15h25.49c-1.36-6.16-6.09-9.16-12.74-9.16S267.5,24.99,266.14,31.15z"/>
	<path class="st0" d="M313.5,21.37h17.66v3.5H308.5v-0.8c0-5.25,3.81-7.55,7.38-9.27l6.05-2.9c2.48-1.19,4.55-2.38,4.55-4.55
		c0-3.08-2.83-3.85-6.08-3.85c-3.18,0-7.06,1.08-7.24,5.6h-4.58C308.75,2.2,314.41,0,320.39,0s10.6,1.68,10.6,7.27
		c0,4.58-3.57,6.12-6.71,7.55l-6.92,3.18C315.22,18.99,313.78,20.28,313.5,21.37z"/>
	<path class="st0" d="M348.08,52.84c0,10.52-3.01,14.61-10.38,14.75v-4.01c3.29-0.14,4.8-1.93,4.8-8.73h-4.87v-9.74h10.45V52.84z"/>
</g>
</svg>
