<?xml version="1.0" encoding="utf-8"?>
<!-- Generator: Adobe Illustrator 26.0.2, SVG Export Plug-In . SVG Version: 6.00 Build 0)  -->
<svg version="1.1" id="Layer_1" xmlns="http://www.w3.org/2000/svg" xmlns:xlink="http://www.w3.org/1999/xlink" x="0px" y="0px"
	 viewBox="0 0 648 69" style="enable-background:new 0 0 648 69;" xml:space="preserve">
<style type="text/css">
	.st0{fill:#333333;}
</style>
<g>
	<path class="st0" d="M45.38,54.42v0.43h-8.52c-0.64-0.64-1.07-2.29-1.07-4.65v-1.07c-3.65,4.73-9.59,6.94-16.97,6.94
		c-8.09,0-15.11-3.87-15.11-12.17c0-8.16,5.51-11.31,11.38-11.96l15.18-1.58c3.44-0.36,5.01-1.43,5.01-3.94
		c0-2.65-2.86-4.44-9.67-4.44c-6.09,0-10.31,1.86-10.6,5.8H5.94c0.21-9.24,9.38-12.67,19.62-12.67c11.1,0,18.76,2.86,18.76,11.31
		v22.19C44.31,50.84,44.38,53.2,45.38,54.42z M35.58,35.44c-0.79,0.57-2,0.79-3.15,0.93l-13.46,1.72c-3.65,0.43-6.23,1.79-6.23,5.66
		c0,4.3,3.29,5.8,7.95,5.8c6.01,0,14.89-2.65,14.89-11.74V35.44z"/>
	<path class="st0" d="M60.57,21.27h0.29c3.72-4.01,9.09-5.87,15.18-5.87c9.38,0,16.54,3.94,16.54,13.6v25.85h-8.73V32.08
		c0-6.87-3.87-9.52-10.74-9.52c-5.87,0-12.31,3.15-12.31,11.67v20.62h-8.73V16.33h8.52V21.27z"/>
	<path class="st0" d="M133.45,21.77V3.01h8.73v51.83h-8.52v-5.51h-0.29c-2.86,4.15-8.16,6.73-14.75,6.73
		c-12.1,0-20.48-7.45-20.48-20.33c0-12.89,8.38-20.33,20.48-20.33c6.59,0,11.67,2.58,14.53,6.37H133.45z M133.67,35.73
		c0-7.88-5.01-13.17-13.24-13.17c-8.31,0-13.25,4.37-13.25,13.17s4.94,13.17,13.25,13.17C128.66,48.9,133.67,43.61,133.67,35.73z"/>
	<path class="st0" d="M180.28,16.33v5.08h0.29c3.36-3.79,7.95-6.09,15.03-6.09c1.65,0,3.51,0.21,4.65,0.57v8.59
		c-1.22-0.29-2.86-0.64-5.58-0.64c-6.66,0-14.18,2.43-14.18,11.24v19.76h-8.73V16.33H180.28z"/>
	<path class="st0" d="M246.79,37.81h-35.01c0.72,7.73,5.73,11.38,13.53,11.38c7.88,0,10.95-3.58,11.53-6.44h9.67
		c-0.93,6.44-6.66,13.32-21.19,13.32c-13.96,0-22.48-7.59-22.48-20.48c0-12.89,8.52-20.48,22.05-20.48s22.05,7.59,22.05,20.48
		C246.93,36.23,246.86,37.16,246.79,37.81z M212.14,31.15h25.49c-1.36-6.16-6.09-9.16-12.74-9.16S213.5,24.99,212.14,31.15z"/>
	<path class="st0" d="M291.54,54.42v0.43h-8.52c-0.64-0.64-1.07-2.29-1.07-4.65v-1.07c-3.65,4.73-9.59,6.94-16.97,6.94
		c-8.09,0-15.11-3.87-15.11-12.17c0-8.16,5.51-11.31,11.38-11.96l15.18-1.58c3.44-0.36,5.01-1.43,5.01-3.94
		c0-2.65-2.86-4.44-9.67-4.44c-6.09,0-10.31,1.86-10.6,5.8h-9.09c0.21-9.24,9.38-12.67,19.62-12.67c11.1,0,18.76,2.86,18.76,11.31
		v22.19C290.47,50.84,290.54,53.2,291.54,54.42z M281.73,35.44c-0.79,0.57-2,0.79-3.15,0.93l-13.46,1.72
		c-3.65,0.43-6.23,1.79-6.23,5.66c0,4.3,3.29,5.8,7.95,5.8c6.01,0,14.89-2.65,14.89-11.74V35.44z"/>
	<path class="st0" d="M315.24,21.77c-6.66,0-9.74,1.79-9.74,4.44c0,2.51,1.58,3.65,5.8,4.15l13.89,1.65
		c6.3,0.72,11.74,3.08,11.74,11.53c0,9.24-8.45,12.53-20.62,12.53c-11.46,0-21.05-3.01-21.33-14.25h8.95
		c0.29,5.87,5.8,7.52,12.46,7.52c7.3,0,11.38-1.93,11.38-5.3c0-2.94-1.79-4.15-6.09-4.73l-13.39-1.72
		c-6.3-0.79-11.74-3.22-11.74-10.88c0-8.09,8.09-11.6,18.69-11.6c10.6,0,19.97,3.44,20.19,12.89h-8.95
		C326.2,23.34,321.54,21.77,315.24,21.77z"/>
	<path class="st0" d="M385.48,35.59c0,12.89-8.52,20.48-22.55,20.48c-14.03,0-22.55-7.59-22.55-20.48
		c0-12.89,8.52-20.48,22.55-20.48C376.96,15.11,385.48,22.7,385.48,35.59z M376.46,35.59c0-8.81-5.15-13.32-13.53-13.32
		s-13.53,4.51-13.53,13.32s5.15,13.32,13.53,13.32S376.46,44.39,376.46,35.59z"/>
	<path class="st0" d="M399.58,21.27h0.29c3.72-4.01,9.09-5.87,15.18-5.87c9.38,0,16.54,3.94,16.54,13.6v25.85h-8.73V32.08
		c0-6.87-3.87-9.52-10.74-9.52c-5.87,0-12.31,3.15-12.31,11.67v20.62h-8.73V16.33h8.52V21.27z"/>
	<path class="st0" d="M478.34,54.42v0.43h-8.52c-0.64-0.64-1.07-2.29-1.07-4.65v-1.07c-3.65,4.73-9.59,6.94-16.97,6.94
		c-8.09,0-15.11-3.87-15.11-12.17c0-8.16,5.51-11.31,11.38-11.96l15.18-1.58c3.44-0.36,5.01-1.43,5.01-3.94
		c0-2.65-2.86-4.44-9.67-4.44c-6.09,0-10.31,1.86-10.6,5.8h-9.09c0.21-9.24,9.38-12.67,19.62-12.67c11.1,0,18.76,2.86,18.76,11.31
		v22.19C477.27,50.84,477.34,53.2,478.34,54.42z M468.53,35.44c-0.79,0.57-2,0.79-3.15,0.93l-13.46,1.72
		c-3.65,0.43-6.23,1.79-6.23,5.66c0,4.3,3.29,5.8,7.95,5.8c6.01,0,14.89-2.65,14.89-11.74V35.44z"/>
	<path class="st0" d="M508.56,15.4c12.1,0,20.48,7.45,20.48,20.33c0,12.89-8.38,20.33-20.48,20.33c-6.59,0-11.88-2.58-14.75-6.73
		h-0.29v5.51H485V3.01h8.73v18.76h0.29C496.89,17.97,501.97,15.4,508.56,15.4z M520.01,35.73c0-8.81-4.94-13.17-13.25-13.17
		c-8.23,0-13.25,5.3-13.25,13.17s5.01,13.17,13.25,13.17C515.07,48.9,520.01,44.54,520.01,35.73z"/>
	<path class="st0" d="M534.62,3.01h8.73v51.83h-8.73V3.01z"/>
	<path class="st0" d="M592.9,37.81h-35.01c0.72,7.73,5.73,11.38,13.53,11.38c7.88,0,10.95-3.58,11.53-6.44h9.67
		c-0.93,6.44-6.66,13.32-21.19,13.32c-13.96,0-22.48-7.59-22.48-20.48c0-12.89,8.52-20.48,22.05-20.48s22.05,7.59,22.05,20.48
		C593.04,36.23,592.97,37.16,592.9,37.81z M558.25,31.15h25.49c-1.36-6.16-6.09-9.16-12.74-9.16S559.61,24.99,558.25,31.15z"/>
	<path class="st0" d="M623.86,18.12c0,5.53-4.06,7.34-11.75,7.34c-6.82,0-11.65-2.27-11.86-8.64h4.65c0.21,3.85,2.94,5.14,7.2,5.14
		c4.3,0,7.17-0.87,7.17-3.85c0-2.97-1.89-4.09-6.26-4.09h-3.57V10.7h3.95c3.71,0,5.14-1.12,5.14-3.74s-3.11-3.46-6.44-3.46
		s-6.19,1.08-6.5,4.41h-4.62c0.38-5.74,5.49-7.9,11.12-7.9c6.4,0,10.95,1.82,10.95,6.85c0,2.76-1.43,4.69-3.6,5.21v0.14
		C622.26,12.77,623.86,14.72,623.86,18.12z"/>
</g>
</svg>
