<?xml version="1.0" encoding="utf-8"?>
<!-- Generator: Adobe Illustrator 26.0.2, SVG Export Plug-In . SVG Version: 6.00 Build 0)  -->
<svg version="1.1" id="Layer_1" xmlns="http://www.w3.org/2000/svg" xmlns:xlink="http://www.w3.org/1999/xlink" x="0px" y="0px"
	 viewBox="0 0 648 69" style="enable-background:new 0 0 648 69;" xml:space="preserve">
<style type="text/css">
	.st0{fill:#FFFFFF;}
</style>
<g>
	<path class="st0" d="M621.4,20.7c-0.5,0-1,0.1-1.5,0.1c-1.3,0-1.6-0.2-1.7-1.6c-0.1-2.1-0.2-2.1-2.2-2.1c-0.3,0-0.7,0-1-0.1
		c-0.3,0-0.5-0.2-0.5-0.5c-0.1-0.7-0.1-1.5-0.2-2.3c0-0.5-0.4-0.9-1-0.9c-1.1,0-2.2,0-3.3-0.1c-0.8,0-1.7-0.1-2.5-0.1
		c-0.3,0-0.6-0.3-0.7-0.6c-0.1-0.8-0.2-1.5,0.1-2.2c0-0.1,0.2-0.3,0.3-0.3c0.3-0.1,0.7-0.1,1-0.1c1.4,0,2.9,0,4.3,0
		c0.4,0,0.8,0,1.2-0.1c0.2-0.1,0.4-0.3,0.4-0.5c0.1-0.7,0.1-1.5,0.1-2.3c0-0.7-0.2-1-1.1-1.1c-0.3,0-0.7,0-1,0c-2.4,0-4.9,0-7.3,0
		c-0.5,0-1,0.1-1.5,0.1c-0.3,0-0.7,0.4-0.7,0.7c-0.1,0.8-0.1,1.5-0.1,2.3c0,0.4-0.3,0.7-0.8,0.7c-0.7,0-1.3,0-2-0.1
		c-0.1,0-0.3-0.2-0.3-0.3c-0.1-0.1-0.1-0.3-0.1-0.5c0-1.8,0-3.7,0-5.5c0-0.4,0.4-0.8,0.8-0.8c0.3,0,0.7,0,1,0c5,0,9.9,0,14.9,0
		c0.4,0,0.8,0,1.2,0.1c0.2,0,0.4,0.2,0.5,0.5c0,0.6,0.1,1.2,0.1,1.8c0,2.3,0,4.5,0,6.8c0,0.5,0.1,1,0.1,1.5c0,0.3,0.4,0.6,0.7,0.6
		c0.9,0,1.8,0.1,2.8,0.1C621.4,16,621.4,18.4,621.4,20.7z"/>
	<path class="st0" d="M482,28.6c0-7.7,0-15.4,0-23.1c0-0.8,0.1-1.7,0.1-2.5c0-0.3,0.4-0.6,0.7-0.7c0.1,0,0.2,0,0.2,0c3,0,6,0,9.1,0
		c0.4,0,0.8,0.4,0.8,0.8c0,0.6,0.1,1.2,0.1,1.8c0,3,0,6,0,9c0,0.7,0,1.3,0,2c0,1.1,0.3,1.4,1.3,1.4c0.6,0,1.2,0,1.8,0
		c1.3,0,2.5,0,3.8,0c5.5,0,10.9,0,16.4,0c0.8,0,1.5,0,2.3,0c0.5,0,0.8,0.3,0.9,0.7c0,0.6,0,1.2,0.1,1.8c0,0.2,0,0.5,0.2,0.7
		c0.1,0.2,0.3,0.4,0.5,0.5c0.7,0.1,1.5,0.1,2.2,0.2c0.5,0,0.8,0.3,0.8,0.8c0,0.4,0.1,0.8,0.1,1.3c0,1,0,2,0,3c0,2.2,0,2.5,2.4,2.5
		c0.2,0,0.5,0,0.7,0.1c0.2,0.1,0.4,0.3,0.5,0.5c0.1,0.2,0.1,0.5,0.1,0.7c0,3.9,0,7.9,0,11.8c0,0.2,0,0.5-0.1,0.7
		c0,0.3-0.4,0.6-0.7,0.6c-0.6,0.1-1.2,0.1-1.8,0.2c-0.2,0-0.5,0.1-0.7,0.2c-0.1,0.1-0.3,0.2-0.3,0.4c-0.1,0.3-0.2,0.7-0.2,1
		c0,1.2,0,2.3,0,3.5c0,0.5,0,1-0.1,1.5c0,0.4-0.4,0.8-0.8,0.8c-0.7,0.1-1.3,0.1-2,0.2c-0.6,0.1-0.9,0.4-0.9,1c0,0.6,0,1.2-0.1,1.8
		c0,0.7-0.3,0.9-0.9,1c-0.3,0-0.7,0-1,0c-6.1,0-12.3,0-18.4,0c-0.4,0-0.8,0-1.3-0.1c-0.3,0-0.6-0.4-0.6-0.7c0-0.4-0.1-0.8-0.1-1.2
		c0-0.3-0.1-0.7-0.1-1c-0.1-0.4-0.4-0.7-0.9-0.8c-0.7,0-1.3,0-2,0c-0.7,0-1,0.4-1.1,1.1c0,0.3,0,0.7,0,1c-0.1,1.5-0.2,1.6-1.6,1.6
		c-2.6,0-5.2,0-7.8,0c-0.3,0-0.7,0-1-0.1c-0.2-0.1-0.5-0.2-0.5-0.5c-0.1-0.3-0.1-0.7-0.1-1c0-0.8,0-1.5,0-2.3
		C482,43.5,482,36,482,28.6z M506.4,47.5C506.4,47.5,506.4,47.5,506.4,47.5c2.5,0,5,0,7.6,0c0.5,0,1,0,1.5-0.1
		c0.2,0,0.4-0.3,0.5-0.5c0.1-0.5,0.1-1,0.1-1.5c0-1.4,0-2.8,0-4.3c0-0.8,0.3-1.1,1-1.1c0.6,0,1.2,0,1.8-0.1c0.5,0,0.8-0.3,0.8-0.8
		c0-1.7,0.1-3.3,0.1-5c0-0.4-0.1-0.8-0.1-1.2c0-0.3-0.4-0.7-0.7-0.7c-0.8-0.1-1.7-0.1-2.5-0.2c-0.1,0-0.3-0.2-0.3-0.3
		c-0.1-0.3-0.1-0.7-0.1-1c0-1.4,0-2.8,0-4.3c0-0.4,0-0.8-0.1-1.2c-0.1-0.2-0.3-0.4-0.5-0.5c-0.5-0.1-1-0.1-1.5-0.1c-1.5,0-3,0-4.5,0
		c-0.5,0-0.8-0.3-0.8-0.8c0-0.7-0.1-1.3-0.1-2c0-0.5-0.4-0.9-1-1c-0.3,0-0.5-0.1-0.8-0.1c-0.6,0-1.2,0-1.8,0c-0.9,0-1.8,0-2.8,0
		c-1.1,0-1.5,0.2-1.6,1.5c0,0.6-0.1,1.2-0.1,1.7c0,0.2-0.2,0.5-0.5,0.5c-0.5,0-1,0.1-1.5,0.1c-1.4,0-2.9,0-4.3,0
		c-0.8,0-1.1,0.3-1.1,1c0,0.5,0,1,0,1.5c0,4.7,0,9.4,0,14.1c0,0.5,0,1,0,1.5c0,0.6,0.4,1,0.9,1c0.7,0.1,1.3,0.1,2,0.1
		c0.3,0,0.6,0.3,0.6,0.7c0,0.7,0.1,1.3,0.1,2c0,0.4,0.4,0.8,0.8,0.8c0.5,0,1,0.1,1.5,0.1C501.5,47.5,504,47.5,506.4,47.5z"/>
	<path class="st0" d="M129.6,54.7c-0.6,0-1.1,0.1-1.6,0.1c-6.2,0-12.4,0-18.6,0c-0.4,0-0.8,0-1.3-0.1c-0.2,0-0.5-0.2-0.5-0.5
		c-0.1-0.7-0.1-1.3-0.1-2c0-0.7-0.4-1.1-1-1.2c-0.2,0-0.5,0-0.8-0.1c-1.7-0.1-1.9-0.2-2-2.1c0-0.3,0-0.5-0.1-0.7
		c-0.1-0.5-0.4-0.8-0.8-0.8c-0.5,0-1,0-1.5-0.1c-1.1,0-1.4-0.1-1.4-1.5c0-5.1,0-10.2,0-15.3c0-1.3,0-2.5,0-3.8c0-0.3,0-0.5,0-0.8
		c0-0.7,0.3-1,1.1-1c0.5,0,1,0,1.5,0c0.7,0,1-0.3,1.1-1.1c0-0.5,0.1-1,0.1-1.5c0.1-0.6,0.4-0.9,0.9-1c0.7-0.1,1.3-0.1,2-0.2
		c0.3,0,0.6-0.4,0.7-0.7c0-0.2,0.1-0.5,0.1-0.7c0-2.5,0-2.4,2.3-2.4c6,0,12.1,0,18.1,0c1.5,0,1.9,0.1,1.9,1.8c0,0.4,0,0.8,0.1,1.3
		c0,0.3,0.4,0.7,0.7,0.7c0.8,0,1.7,0,2.5,0c0.3,0,0.7-0.4,0.7-0.6c0.1-0.7,0.1-1.5,0.1-2.2c0-4.1,0-8.2,0-12.3c0-0.7,0-1.3,0-2
		c0-0.3,0.1-0.7,0.1-1c0-0.3,0.4-0.6,0.7-0.6c1.8,0,3.7,0,5.5,0c0.4,0,0.7,0.4,0.8,0.8c0,0.8,0,1.5,0,2.3c0,4.4,0,8.9,0,13.3
		c0,11,0,21.9,0,32.9c0,0.8,0,1.7-0.1,2.5c0,0.3-0.3,0.6-0.7,0.6c-1.8,0-3.5,0-5.3,0c-0.7,0-1-0.3-1.1-1.1c-0.1-0.7-0.1-1.3-0.2-2
		c0-0.3-0.4-0.6-0.7-0.6c-0.8-0.1-1.7-0.1-2.5,0c-0.3,0-0.7,0.4-0.7,0.7c0,0.7,0,1.3-0.1,2C129.9,54.1,129.7,54.4,129.6,54.7z
		 M120.7,47.5c2.3,0,4.7,0,7,0c0.6,0,1.2,0,1.8-0.1c0.3,0,0.7-0.3,0.7-0.6c0.1-0.7,0.1-1.5,0.2-2.2c0-0.3,0.3-0.6,0.7-0.6
		c0.8-0.1,1.5-0.1,2.3-0.2c0.2,0,0.6-0.4,0.7-0.7c0.1-0.6,0.1-1.2,0.1-1.7c0-3.5,0-7,0-10.5c0-0.5,0-1-0.1-1.5
		c0-0.4-0.4-0.8-0.8-0.9c-0.5-0.1-1-0.1-1.5-0.1c-1.2-0.1-1.3-0.3-1.4-1.3c0-0.4,0-0.8,0-1.3c0-0.8-0.3-1.1-1.1-1.1
		c-0.8,0-1.7,0-2.5,0c-1,0-2,0-3,0c-0.6,0-0.9-0.3-0.9-1c0-0.7-0.1-1.3-0.1-2c0-0.3-0.4-0.6-0.6-0.7c-0.9-0.2-1.8-0.2-2.7,0
		c-0.3,0.1-0.6,0.4-0.6,0.7c0,0.8-0.1,1.5-0.1,2.3c0,0.4-0.3,0.7-0.6,0.7c-1.1,0-2.2,0-3.3,0.1c-0.9,0-1.8,0-2.8,0.1
		c-0.4,0-0.8,0.4-0.8,0.8c-0.1,0.7-0.1,1.5-0.2,2.2c0,0.1-0.2,0.3-0.3,0.4c-0.2,0.1-0.5,0.1-0.7,0.2c-0.6,0.1-1.2,0.1-1.7,0.2
		c-0.3,0-0.7,0.4-0.7,0.7c0,0.4-0.1,0.8-0.1,1.2c0,3.8,0,7.5,0,11.3c0,0.4,0,0.8,0.1,1.3c0,0.4,0.4,0.8,0.8,0.9
		c0.7,0.1,1.3,0.1,2,0.1c0.5,0,0.8,0.3,0.8,0.8c0,0.7,0.1,1.3,0.1,2c0,0.4,0.4,0.7,0.8,0.8c0.4,0,0.8,0,1.3,0
		C115.7,47.5,118.2,47.5,120.7,47.5z"/>
	<path class="st0" d="M574.3,35.9c-4.7,0-9.4,0-14.1,0c-3.1,0-2.9,0.1-2.9,2.9c0,2,0,4,0,6c0,0.6,0,1.2,0.1,1.8
		c0,0.5,0.4,0.8,0.8,0.9c0.2,0,0.3,0,0.5,0.1c0.3,0,0.5,0,0.8,0c6.4,0,12.8,0,19.1,0c0.3,0,0.7,0,1,0c0.3,0,0.7-0.4,0.7-0.6
		c0.1-0.7,0.2-1.5,0.3-2.2c0-0.3,0.4-0.6,0.7-0.7c0.3,0,0.7-0.1,1-0.1c0.9,0,1.8,0,2.8,0c2.7,0,2.6-0.1,2.6,2.6c0,1.2,0,2.3,0,3.5
		c0,0.6-0.3,0.9-1,0.9c-0.6,0.1-1.2,0.1-1.8,0.1c-0.6,0.1-0.9,0.4-0.9,1c0,0.7-0.1,1.3-0.1,2c0,0.3-0.3,0.7-0.6,0.7
		c-0.5,0-1,0.1-1.5,0.1c-7.2,0-14.4,0-21.7,0c-0.5,0-1,0-1.5-0.1c-0.3,0-0.6-0.4-0.7-0.7c-0.1-0.6-0.1-1.2-0.1-1.8
		c0-0.2,0-0.5-0.2-0.7c-0.1-0.2-0.3-0.4-0.5-0.5c-0.7-0.1-1.3-0.1-2-0.2c-1.3,0-2.5,0-3.8-0.1c-0.5,0-0.9-0.4-1-1
		c0-0.4-0.1-0.8-0.1-1.3c0-0.8,0-1.7,0-2.5c0-2.5,0.1-2.7-2.6-2.8c-0.2,0-0.5-0.1-0.7-0.2c-0.1-0.1-0.3-0.2-0.3-0.4
		c-0.1-0.1-0.1-0.3-0.1-0.5c0-4.2,0-8.4,0-12.6c0-0.6,0.3-1,0.9-1c0.6,0,1.2-0.1,1.8-0.1c0.7,0,1-0.4,1.1-1.1c0-1.1,0-2.2,0.1-3.3
		c0-0.8,0.1-1.5,0.1-2.3c0-0.4,0.4-0.7,0.8-0.8c0.5,0,1,0,1.5-0.1c0.9-0.1,1.2-0.4,1.3-1.2c0-0.6,0-1.2,0.1-1.8c0-0.6,0.4-0.9,1-0.9
		c2.4,0,4.7,0,7.1,0c0.8,0,1.5,0,2.3,0c0.6,0,0.9-0.3,0.9-1c0-0.4,0.1-0.8,0.1-1.3c0.1-1.1,0.3-1.4,1.4-1.4c1.7,0,3.4,0,5,0.1
		c0.3,0,0.7,0.3,0.7,0.6c0.1,0.7,0.1,1.5,0.2,2.2c0,0.3,0.4,0.6,0.7,0.6c0.5,0,1,0.1,1.5,0.1c2,0,4,0,6,0c0.7,0,1.3,0,2,0
		c0.6,0,1,0.4,1,0.9c0,0.6,0,1.2,0.1,1.8c0,0.8,0.4,1.1,1,1.2c0.2,0,0.3,0,0.5,0c2.2,0,2.1,0.1,2.1,2.3c0,1,0,2,0,3
		c0,0.4,0,0.8,0.1,1.3c0,0.4,0.4,0.8,0.8,0.9c0.6,0,1.2,0.1,1.8,0.1c0.2,0,0.5,0.1,0.7,0.2c0.1,0.1,0.2,0.2,0.3,0.3
		c0.1,0.1,0.1,0.3,0.1,0.5c0,1.7,0,3.3,0,5c0,0.2,0,0.4-0.1,0.5c-0.1,0.2-0.3,0.4-0.5,0.5c-0.7,0.1-1.5,0.1-2.3,0.1
		C583.8,35.9,579,35.9,574.3,35.9C574.3,35.9,574.3,35.9,574.3,35.9z M568.9,32.4c2.8,0,5.5,0,8.3,0c0.7,0,1.3,0,2,0
		c0.6,0,1-0.3,1-0.9c0-2,0-4,0-6c0-0.4-0.4-0.8-0.8-0.8c-1.4,0-2.9,0-4.3,0c-2.2,0-2.3,0.1-2.4-2.1c0-0.3,0-0.5-0.1-0.8
		c-0.1-0.5-0.4-0.9-1-0.9c-1.9,0-3.9,0-5.8,0c-0.6,0-1,0.4-1,0.9c0,0.4,0,0.8-0.1,1.3c0,1.4-0.1,1.6-1.6,1.6c-1.2,0-2.4,0-3.5,0
		c-0.5,0-1,0-1.5,0c-0.4,0-0.8,0.4-0.8,0.8c0,2,0,4,0,6c0,0.5,0.4,0.9,1,0.9c0.7,0,1.3,0,2,0C563.2,32.4,566.1,32.4,568.9,32.4z"/>
	<path class="st0" d="M288.8,38.1c0,4.8,0,9.6,0,14.3c0,2.5-0.1,2.4-2.3,2.4c-0.8,0-1.5,0-2.3,0c-2.7,0-2.7,0.3-2.7-2.5
		c0-0.2,0-0.3-0.1-0.5c0-0.3-0.4-0.6-0.7-0.7c-0.9-0.2-1.8-0.2-2.7,0c-0.2,0.1-0.6,0.5-0.6,0.7c-0.1,0.8-0.1,1.5-0.1,2.3
		c0,0.3-0.3,0.6-0.7,0.6c-0.4,0-0.8,0.1-1.3,0.1c-6,0-12.1,0-18.1,0c-0.2,0-0.3,0-0.5,0c-1.4,0-1.5-0.1-1.7-1.6c0-0.5-0.1-1-0.1-1.5
		c0-0.3-0.4-0.6-0.7-0.7c-0.6-0.1-1.2-0.1-1.8-0.1c-0.2,0-0.5-0.1-0.7-0.2c-0.1-0.1-0.3-0.2-0.3-0.3c-0.1-0.2-0.1-0.5-0.1-0.7
		c0-4.1,0-8.2,0-12.3c0-0.2,0-0.3,0.1-0.5c0.1-0.2,0.2-0.4,0.5-0.5c0.7-0.1,1.3-0.1,2-0.1c0.7-0.1,1-0.4,1.1-1.1
		c0.1-0.7,0.1-1.3,0.2-2c0-0.3,0.4-0.6,0.7-0.7c0.7,0,1.3-0.1,2-0.1c4.5,0,8.9,0,13.4,0c0.7,0,1.3,0,2-0.1c0.3,0,0.6-0.3,0.6-0.7
		c0-0.7,0.1-1.3,0.1-2c0-0.5,0.3-0.8,0.8-0.8c0.9,0,1.8-0.1,2.8-0.1c0.9,0,1.8,0,2.8,0c0.8,0,1.2-0.4,1.2-1.3c0-0.6,0-1.2,0-1.8
		c0-0.6-0.4-1-0.9-1c-0.7,0-1.3-0.1-2-0.1c-0.3,0-0.7-0.3-0.7-0.6c-0.1-0.7-0.1-1.5-0.2-2.2c0-0.4-0.4-0.8-0.8-0.8
		c-0.3,0-0.7-0.1-1-0.1c-2.6,0-5.2,0-7.8,0c-0.3,0-0.5,0-0.8,0c-0.7,0.1-1.1,0.4-1.1,1.1c0,0.4,0,0.8,0,1.3c0,0.2,0,0.5-0.1,0.7
		c0,0.4-0.3,0.6-0.6,0.7c-0.6,0-1.2,0-1.8,0.1c-0.2,0-0.5,0-0.7,0.1c-0.2,0.1-0.5,0.3-0.5,0.5c-0.1,0.6-0.1,1.2-0.2,1.7
		c-0.1,1-0.3,1.3-1.4,1.3c-0.3,0-0.5,0-0.8,0c-2.4,0-4.7,0-7.1,0c-0.3,0-0.7-0.1-1-0.1c-0.3,0-0.6-0.4-0.7-0.7c0-1.8,0-3.7,0-5.5
		c0-0.4,0.4-0.7,0.8-0.8c0.6,0,1.2,0,1.8-0.1c0.6-0.1,1-0.2,1.1-1.1c0.1-0.7,0.1-1.3,0.2-2c0-0.3,0.4-0.6,0.7-0.6
		c0.7,0,1.3-0.1,2-0.1c3.4,0,6.7,0,10.1,0c0.4,0,0.8,0,1.3,0c0.5,0,0.8-0.3,0.9-0.8c0.1-0.7,0.1-1.3,0.2-2c0-0.4,0.4-0.8,0.8-0.8
		c0.6,0,1.2,0,1.8,0c0.3,0,0.7,0.3,0.7,0.6c0,0.6,0.1,1.2,0.1,1.7c0,0.2,0.1,0.5,0.1,0.7c0.1,0.1,0.2,0.3,0.3,0.3
		c0.4,0.1,0.8,0.2,1.2,0.2c2.5,0,5,0,7.6,0c0.4,0,0.8,0,1.3,0.1c0.3,0,0.6,0.3,0.6,0.7c0,0.6,0,1.2,0.1,1.8c0,0.2,0,0.5,0.1,0.7
		c0.1,0.2,0.3,0.5,0.5,0.5c0.7,0.1,1.5,0.2,2.2,0.2c0.6,0.1,0.9,0.4,0.9,1c0,0.8,0,1.5,0,2.3C288.8,29,288.8,33.6,288.8,38.1z
		 M281.5,40c0-0.8,0-1.7,0-2.5c0-0.2,0-0.5-0.1-0.7c0-0.2-0.4-0.7-0.6-0.7c-0.5-0.1-1-0.1-1.5-0.1c-3.7,0-7.4,0-11.1,0
		c-0.3,0-0.7,0-1,0c-0.7,0.1-1.1,0.4-1.1,1.1c0,0.7-0.1,1.3-0.1,2c0,0.3-0.3,0.6-0.6,0.7c-1,0-2,0-3,0.1c-1,0-2,0-3,0.1
		c-0.3,0-0.7,0.3-0.7,0.6c0,0.2-0.1,0.5-0.1,0.7c0,1.4,0,2.8,0,4.3c0,2,0,2.1,2.1,2.1c1.5,0,1.5,0.1,1.6,1.6c0,0.4,0,0.8,0.1,1.3
		c0,0.6,0.4,1,0.9,1c1.5,0,3,0.1,4.5,0.1c2.1,0,2.4,0.1,2.5-2.4c0-0.1,0-0.2,0-0.2c0.1-0.9,0.4-1.2,1.2-1.2c1.1,0,2.2,0,3.3,0
		c0.8,0,1.5,0,2.3-0.1c0.3,0,0.6-0.4,0.7-0.7c0-0.2,0.1-0.5,0.1-0.7c0.1-0.5,0.1-1,0.2-1.5c0-0.3,0.4-0.6,0.7-0.6
		c0.4,0,0.8-0.1,1.3-0.1c1.4,0,1.7-0.4,1.7-1.6C281.6,41.5,281.6,40.8,281.5,40z"/>
	<path class="st0" d="M228.4,35.9c-5,0-10.1,0-15.1,0c-0.4,0-0.8,0-1.3,0c-2.8,0-2.7,0.2-2.7,2.9c0,0.2,0,0.3,0.1,0.5
		c0,0.3,0.4,0.6,0.7,0.6c0.6,0,1.2,0,1.8,0.1c0.2,0,0.3,0,0.5,0c0.3,0,0.7,0.4,0.7,0.7c0.1,0.4,0.1,0.8,0.1,1.2c0,1.3,0,2.7,0,4
		c0,0.3,0,0.7,0.1,1c0.1,0.2,0.3,0.4,0.5,0.5c0.3,0.1,0.7,0.1,1,0.1c6.6,0,13.1,0,19.7,0c0.2,0,0.3,0,0.5,0c0.8,0,1.1-0.3,1.1-1
		c0-0.6,0-1.2,0.1-1.8c0-0.5,0.3-0.8,0.8-0.8c1.8,0,3.7,0,5.5,0c0.4,0,0.8,0.4,0.8,0.8c0,1.8,0,3.5,0,5.3c0,0.4-0.4,0.8-0.8,0.9
		c-0.7,0.1-1.3,0.1-2,0.2c-0.6,0.1-0.9,0.4-1,1c0,0.7-0.1,1.3-0.1,2c0,0.5-0.3,0.7-0.8,0.8c-0.6,0-1.2,0-1.8,0c-7,0-14,0-20.9,0
		c-0.5,0-1,0-1.5,0c-0.6,0-1-0.3-1-0.9c0-0.7-0.1-1.3-0.1-2c0-0.4-0.4-0.8-0.8-0.8c-0.8-0.1-1.5-0.1-2.3-0.1c-1.1,0-2.2,0-3.3-0.1
		c-0.6,0-1.1-0.2-1.1-1.1c0-1,0-2,0-3c0-0.8,0-1.5,0-2.3c0-0.7-0.3-1-1.1-1.1c-0.6-0.1-1.2-0.1-1.8-0.2c-0.4,0-0.7-0.4-0.8-0.9
		c0-0.4-0.1-0.8-0.1-1.3c0-3.4,0-6.9,0-10.3c0-0.4,0-0.8,0.1-1.3c0-0.4,0.4-0.8,0.8-0.8c0.7-0.1,1.3-0.1,2-0.2
		c0.4,0,0.8-0.4,0.8-0.8c0-0.9,0-1.8,0.1-2.8c0-1,0-2,0.1-3c0-0.4,0.4-0.8,0.8-0.8c0.6,0,1.2,0,1.8-0.1c0.6-0.1,1-0.2,1.1-1.1
		c0.1-0.7,0.1-1.3,0.2-2c0-0.2,0.4-0.7,0.7-0.7c0.6,0,1.2-0.1,1.8-0.1c2.3,0,4.5,0,6.8,0c0.4,0,0.8,0,1.3-0.1c0.3,0,0.6-0.3,0.7-0.7
		c0-0.6,0.1-1.2,0.1-1.8c0.1-0.9,0.3-1.1,1.3-1.1c0.3,0,0.5,0,0.8,0c1.1,0,1.3,0.2,1.3,1.3c0,0.5,0,1,0.1,1.5c0,0.4,0.4,0.7,0.9,0.8
		c0.7,0,1.3,0,2,0c3.4,0,6.7,0,10.1,0c0.5,0,1,0,1.5,0.1c0.2,0,0.5,0.2,0.5,0.5c0.1,0.8,0.1,1.7,0.2,2.5c0,0.3,0.4,0.6,0.7,0.7
		c0.8,0.1,1.5,0.1,2.3,0.2c0.4,0,0.8,0.4,0.8,0.8c0,0.9,0.1,1.8,0.1,2.8c0,0.9,0,1.8,0,2.8c0,0.7,0.4,1,1.1,1.1c0.5,0,1,0,1.5,0.1
		c0.7,0.1,1,0.3,1,1.1c0,0.3,0,0.7,0,1c-0.1,5.7,1,4.9-4.9,4.9C237.6,35.9,233,35.9,228.4,35.9z M224.4,32.4c2.9,0,5.7,0,8.6,0
		c0.7,0,1.3,0,2,0c0.7,0,1.1-0.4,1.1-1.1c0-1.8,0-3.7,0-5.5c0-0.1,0-0.2,0-0.2c0-0.5-0.4-0.9-1-0.9c-0.3,0-0.7,0-1,0
		c-1.3,0-2.7,0-4,0c-0.3,0-0.7,0-1-0.1c-0.1,0-0.3-0.2-0.3-0.3c-0.1-0.7-0.1-1.5-0.2-2.2c0-0.6-0.4-1-0.9-1c-2-0.2-4-0.2-6,0
		c-0.4,0-0.8,0.4-0.8,0.8c-0.1,0.7-0.1,1.5-0.2,2.2c0,0.3-0.3,0.6-0.7,0.6c-1.2,0-2.4,0-3.5,0.1c-0.8,0-1.7,0-2.5,0.1
		c-0.3,0-0.6,0.3-0.7,0.7c0,0.1-0.1,0.2-0.1,0.2c0,1.9,0,3.9,0,5.8c0,0.6,0.3,1,0.9,1c0.6,0,1.2,0,1.8,0
		C218.7,32.4,221.6,32.4,224.4,32.4z"/>
	<path class="st0" d="M362.6,54.8c-3.5,0-7.1,0-10.6,0c-0.6,0-1.2,0-1.8-0.1c-0.2,0-0.5-0.2-0.5-0.5c0-0.8-0.1-1.5-0.1-2.3
		c0-0.4-0.4-0.7-0.8-0.9c-0.9-0.3-2,0.2-2.6-0.5c-0.6-0.7-0.2-1.6-0.4-2.4c-0.1-0.5-0.4-0.8-0.8-0.8c-0.2,0-0.3,0-0.5,0
		c-2.5,0-2.4,0.1-2.4-2.6c0-1.1,0-2.2,0-3.3c0-0.3-0.1-0.7-0.1-1c0-0.3-0.4-0.6-0.7-0.6c-0.7,0-1.3-0.1-2-0.1c-0.6,0-0.9-0.4-0.9-1
		c0-0.4-0.1-0.8-0.1-1.3c0-2.1,0-4.2,0-6.3c0-0.5,0-1,0.1-1.5c0-0.4,0.4-0.8,0.8-0.8c0.7-0.1,1.3-0.1,2-0.2c0.4,0,0.8-0.4,0.8-0.8
		c0-0.6,0.1-1.2,0.1-1.8c0-1.3,0-2.5,0-3.8c0-0.8,0.3-1,1.1-1.1c0.4,0,0.8,0,1.3,0c1.1-0.1,1.3-0.3,1.4-1.4c0.1-0.6,0.1-1.2,0.2-1.8
		c0-0.2,0.4-0.7,0.7-0.7c0.6,0,1.2-0.1,1.8-0.1c3.1,0,6.2,0,9.3,0c0.6,0,1.2,0,1.8,0c1.1,0,1.4-0.2,1.5-1.3c0-0.5,0.1-1,0.1-1.5
		c0-0.4,0.4-0.8,0.8-0.8c0.6,0,1.2,0,1.8,0c0.4,0,0.7,0.4,0.8,0.8c0.1,0.7,0.1,1.3,0.1,2c0,0.3,0.3,0.7,0.6,0.7c0.5,0,1,0.1,1.5,0.1
		c2.2,0,4.4,0,6.6,0c0.6,0,1.2,0,1.8,0.1c0.3,0,0.6,0.3,0.7,0.6c0,0.3,0.1,0.7,0.1,1c0,0.4,0,0.8,0.1,1.3c0,0.4,0.4,0.8,0.8,0.8
		c0.8,0.1,1.5,0.1,2.3,0.2c0.3,0,0.6,0.4,0.6,0.7c0,0.2,0.1,0.3,0.1,0.5c0,0.2,0,0.3,0,0.5c0,1.8,0,1.9,2,1.9c0.3,0,0.5,0,0.8,0
		c0.5,0,0.8,0.3,0.8,0.8c0,0.7,0.1,1.3,0.1,2c0,3.8,0,7.5,0,11.3c0,1.9,0,3.9,0,5.8c0,0.6,0,1.2-0.1,1.8c0,0.3-0.3,0.6-0.6,0.7
		c-0.8,0-1.5,0.1-2.3,0.1c-0.3,0-0.6,0.3-0.7,0.6c-0.1,0.7-0.1,1.5-0.2,2.2c0,0.3-0.4,0.6-0.7,0.7c-0.6,0-1.2,0.1-1.8,0.1
		c-0.9,0.1-1.3,0.4-1.3,1.2c-0.1,2.9,0.2,2.6-2.9,2.6C369.4,54.8,366,54.8,362.6,54.8z M356.6,24.5c-0.6,0-1.2,0.1-1.8,0.1
		c-1.3,0-2.5,0-3.8,0c-0.3,0-0.7,0-1,0.1c-0.2,0.1-0.4,0.3-0.5,0.5c-0.1,0.3-0.1,0.7-0.1,1c0,5.3,0,10.5,0,15.8c0,0.3,0.1,0.7,0.1,1
		c0,0.3,0.4,0.7,0.6,0.7c0.7,0.1,1.5,0.1,2.2,0.2c0.3,0,0.6,0.3,0.6,0.7c0.1,0.7,0.1,1.5,0.2,2.2c0,0.2,0.3,0.5,0.5,0.5
		c0.4,0.1,0.8,0.1,1.2,0.1c5.2,0,10.4,0,15.6,0c1.7,0,1.8-0.1,1.9-1.9c0-1.5,0-3,0-4.5c0-0.8,0.3-1.1,1-1.1c0.6,0,1.2,0,1.8-0.1
		c0.6,0,0.9-0.4,0.9-1c0-0.4,0.1-0.8,0.1-1.3c0-2.3,0-4.7,0-7c0-0.4,0-0.8-0.1-1.3c0-0.6-0.4-1-0.9-1c-0.6-0.1-1.2-0.1-1.8-0.1
		c-0.7-0.1-1-0.3-1-1.1c0-0.3,0-0.7,0-1c0-0.2,0-0.5-0.1-0.7c0-0.3-0.3-0.6-0.6-0.7c-0.4,0-0.8-0.1-1.3-0.1c-1.3,0-2.5,0-3.8,0
		c-0.4,0-0.8,0-1.2-0.1c-0.2,0-0.5-0.2-0.5-0.5c-0.1-0.8-0.1-1.7-0.2-2.5c0-0.2-0.3-0.4-0.5-0.5c-0.3-0.1-0.6-0.2-1-0.2
		c-1.6,0-3.2,0-4.8,0c-0.2,0-0.5,0.1-0.7,0.1c-0.2,0-0.7,0.4-0.7,0.7c0,0.7,0,1.3-0.1,2C356.8,23.9,356.7,24.2,356.6,24.5z"/>
	<path class="st0" d="M46.3,54.7c-0.3,0-0.7,0.1-1,0.1c-2.7,0-5.4,0-8.1,0c-0.3,0-0.5,0-0.8-0.1c-0.3,0-0.7-0.4-0.7-0.6
		c-0.1-0.7-0.1-1.5-0.2-2.2c0-0.4-0.4-0.8-0.8-0.8c-0.5,0-1-0.1-1.5-0.1c-1.3,0-1.6,0.3-1.6,1.6c0,0.6-0.1,1.2-0.2,1.7
		c0,0.1-0.2,0.3-0.3,0.3c-0.3,0.1-0.7,0.1-1,0.1c-1.6,0-3.2,0-4.8,0c-4.6,0-9.2,0-13.9,0c-0.6,0-1.2,0-1.8-0.1
		c-0.1,0-0.3-0.2-0.3-0.3c-0.1-0.6-0.1-1.2-0.1-1.7c0-0.3,0-0.5-0.1-0.8c0-0.4-0.4-0.7-0.8-0.8C7.7,51,7.1,51,6.6,50.9
		c-0.7-0.1-1-0.4-1.1-1.2c0-0.3,0-0.7,0-1c0-3.4,0-6.9,0-10.3c0-0.4,0-0.8,0.1-1.3c0-0.4,0.4-0.8,0.8-0.8c0.7-0.1,1.3-0.1,2-0.2
		c0.4,0,0.8-0.4,0.8-0.8c0.1-0.8,0.1-1.5,0.1-2.3c0-0.3,0.3-0.6,0.6-0.7c0.8,0,1.5-0.1,2.3-0.1c5.5,0,10.9,0,16.4,0
		c0.8,0,1.5,0,2.3,0c0.9,0,1-0.4,1.1-1.1c0-0.6,0.1-1.2,0.1-1.8c0-0.3,0.3-0.7,0.6-0.7c0.4,0,0.8-0.1,1.3-0.1c0.3,0,0.7,0,1-0.1
		c0.3,0,0.6-0.4,0.7-0.6c0.2-0.9,0.2-1.8,0-2.7c0-0.3-0.4-0.6-0.7-0.6c-0.8,0-1.5-0.1-2.3-0.1c-0.3,0-0.6-0.3-0.6-0.6
		c0-0.2,0-0.5-0.1-0.7c0-0.5,0-1-0.1-1.5c0-0.3-0.4-0.7-0.6-0.7c-0.3,0-0.7-0.1-1-0.1c-2.8,0-5.5,0-8.3,0c-0.3,0-0.7,0.1-1,0.1
		c-0.2,0-0.6,0.4-0.7,0.7c0,0.7-0.1,1.3-0.1,2c0,0.7-0.3,0.9-0.9,1c-0.7,0-1.3,0.1-2,0.1c-0.3,0-0.7,0.3-0.7,0.6
		c-0.1,0.7-0.1,1.5-0.2,2.2c0,0.3-0.4,0.6-0.7,0.7c-0.2,0-0.5,0.1-0.7,0.1c-2.6,0-5.2,0-7.8,0c-0.3,0-0.5,0-0.8-0.1
		c-0.4,0-0.8-0.4-0.9-0.8c0-0.4-0.1-0.8-0.1-1.2c0-0.9,0.3-1.3,1.4-1.3c0.4,0,0.8,0,1.3,0c0.8,0,1-0.3,1.1-1.1c0-0.5,0-1,0.1-1.5
		c0-0.6,0.3-1,0.9-1c0.6,0,1.2,0,1.8-0.1c0.6-0.1,0.9-0.3,1-0.9c0.1-0.7,0.1-1.3,0.2-2c0.1-0.6,0.4-0.9,1-0.9c2.2,0,4.4,0,6.5,0
		c0.9,0,1.8,0,2.8,0c0.6,0,0.9-0.4,0.9-1c0-0.3,0-0.7,0-1c0.1-1.5,0.2-1.6,1.8-1.6c0.3,0,0.7,0,1,0.1c0.2,0.1,0.4,0.3,0.5,0.5
		c0.1,0.7,0.1,1.5,0.2,2.2c0,0.3,0.3,0.7,0.6,0.7c0.6,0,1.2,0.1,1.8,0.1c3.3,0,6.5,0,9.8,0c0.7,0,1.3,0,2,0c0.4,0,0.8,0.4,0.8,0.8
		c0,0.8,0,1.7,0,2.5c0,9.1,0,18.3,0,27.4c0,0.8,0.1,1.7,0.1,2.5c0,0.3,0.4,0.7,0.7,0.7c0.7,0.1,1.5,0.1,2.3,0.2
		c0.4,0,0.8,0.4,0.8,0.8c0,0.6,0,1.2,0,1.7C46.6,54.3,46.4,54.5,46.3,54.7z M12.7,43.6C12.6,43.6,12.6,43.6,12.7,43.6
		c0,0.7,0,1.3,0,2c0,1.7,0.2,1.8,1.9,1.9c1.5,0,3,0,4.5,0c0.8,0,1.1,0.3,1.1,1c0,0.7,0.1,1.3,0.1,2c0,0.3,0.3,0.7,0.6,0.7
		c0.9,0.2,1.8,0.2,2.7,0c0.3-0.1,0.6-0.4,0.6-0.7c0-0.3,0.1-0.7,0.1-1c0-2.1,0.1-2.1,2.1-2.1c0.4,0,0.8,0,1.3,0c1,0,2,0,3,0
		c0.8,0,1.1-0.3,1.1-1c0-0.3,0-0.7,0-1C32,44,32,44,33.5,43.9c0.4,0,0.8,0,1.3-0.1c0.4,0,0.8-0.4,0.8-0.8c0.2-2.1,0.2-4.2,0-6.3
		c0-0.4-0.4-0.7-0.9-0.8c-0.2,0-0.3,0-0.5,0c-4.1,0-8.2,0-12.3,0c-0.3,0-0.7,0.1-1,0.1c-0.2,0-0.6,0.5-0.6,0.7
		c0,0.8-0.1,1.5-0.1,2.3c0,0.3-0.3,0.6-0.6,0.7c-0.8,0-1.5,0.1-2.3,0.1c-1.2,0-2.3,0-3.5,0c-0.7,0-1,0.4-1.1,1.1
		C12.6,41.8,12.7,42.7,12.7,43.6z"/>
	<path class="st0" d="M462.5,54.7c-0.6,0-1.1,0.1-1.6,0.1c-6.2,0-12.4,0-18.7,0c-0.4,0-0.8,0-1.3-0.1c-0.2,0-0.5-0.2-0.5-0.5
		c-0.1-0.8-0.1-1.5-0.1-2.3c0-0.5-0.3-0.8-0.8-0.9c-0.5-0.1-1-0.1-1.5-0.1c-1.2-0.1-1.4-0.4-1.4-1.6c0-2.8,0-5.5,0-8.3
		c0-1.1,0-2.2,0-3.3c0-0.2,0.1-0.5,0.1-0.7c0-0.3,0.4-0.6,0.7-0.7c0.7-0.1,1.3-0.1,2-0.2c0.5,0,0.9-0.4,0.9-1c0-0.6,0-1.2,0.1-1.8
		c0-0.8,0.3-1,1.1-1c0.8,0,1.5,0,2.3,0c5.6,0,11.3,0,16.9,0c2.3,0,2.4,0.1,2.4-2.3c0-0.2,0-0.5,0.1-0.7c0.1-0.2,0.2-0.5,0.5-0.5
		c0.8-0.1,1.5-0.1,2.3-0.2c0.4,0,0.8-0.4,0.8-0.8c0.1-0.8,0.1-1.7,0-2.5c-0.1-0.3-0.4-0.7-0.6-0.7c-0.7,0-1.3-0.1-2-0.1
		c-0.7,0-0.9-0.3-1-0.9c0-0.2,0-0.3,0-0.5c0-2.3-0.1-2.4-2.4-2.4c-2.4,0-4.7,0-7.1,0c-0.4,0-0.8,0-1.3,0.1c-0.6,0.1-1,0.4-1,1
		c0,0.7-0.1,1.3-0.1,2c0,0.5-0.3,0.7-0.8,0.8c-0.7,0-1.3,0.1-2,0.1c-0.4,0-0.8,0.4-0.8,0.8c0,0.5,0,1-0.1,1.5
		c-0.1,0.9-0.4,1.2-1.2,1.3c-0.2,0-0.3,0-0.5,0c-2.5,0-5,0-7.6,0c-0.3,0-0.7-0.1-1-0.1c-0.3,0-0.6-0.4-0.6-0.7c0-0.6,0-1.2,0-1.7
		c0-0.4,0.4-0.8,0.8-0.8c0.7,0,1.3-0.1,2-0.1c0.4,0,0.8-0.4,0.8-0.8c0-1.3,0-2.7,0.1-4c0-0.7,0-1.3,0.1-2c0-0.3,0.4-0.6,0.7-0.6
		c0.5,0,1-0.1,1.5-0.1c3.4,0,6.7,0,10.1,0c0.7,0,1.3,0,2-0.1c0.3,0,0.6-0.3,0.7-0.6c0-0.7,0.1-1.3,0.1-2c0-0.2,0-0.3,0.1-0.5
		c0.1-0.1,0.2-0.3,0.4-0.3c0.7-0.2,1.5-0.2,2.2,0c0.3,0,0.5,0.3,0.5,0.5c0.1,0.7,0.1,1.5,0.2,2.2c0,0.4,0.4,0.8,0.8,0.8
		c0.7,0,1.3,0,2,0.1c2.2,0,4.4,0,6.6,0c0.3,0,0.7,0,1,0c0.4,0,0.8,0.4,0.9,0.8c0,0.6,0.1,1.2,0.1,1.8c0,0.1,0,0.2,0,0.3
		c0,0.6,0.4,1,0.9,1c0.7,0.1,1.3,0.1,2,0.1c0.3,0,0.6,0.3,0.7,0.6c0,0.5,0.1,1,0.1,1.5c0,9.7,0,19.4,0,29.2c0,0.6-0.1,1.2-0.1,1.7
		c0,0.1-0.2,0.3-0.3,0.4c-0.1,0-0.2,0-0.2,0c-1.8,0-3.7,0-5.5,0c-0.4,0-0.8-0.3-0.8-0.8c-0.1-0.7-0.1-1.5-0.2-2.2
		c0-0.3-0.4-0.6-0.7-0.7c-0.8,0-1.5-0.1-2.3,0c-0.6,0-0.9,0.4-1,0.9c0,0.6,0,1.2-0.1,1.8C462.7,54.1,462.6,54.4,462.5,54.7z
		 M443.9,43.6C443.9,43.6,443.9,43.6,443.9,43.6c0,1,0,2,0,3c0,0.4,0.4,0.8,0.8,0.8c0.8,0,1.5,0.1,2.3,0.1c0.3,0,0.6,0.4,0.7,0.7
		c0.1,0.7,0.1,1.5,0.2,2.2c0,0.4,0.4,0.8,0.8,0.8c2,0,4,0,6,0c0.1,0,0.2,0,0.2-0.1c0.3-0.1,0.6-0.4,0.6-0.7c0.1-0.7,0.1-1.5,0.1-2.2
		c0-0.4,0.4-0.8,0.8-0.8c1.1,0,2.2,0,3.3,0c0.7,0,1.3,0,2,0c1.1,0,1.3-0.2,1.4-1.3c0-0.5,0-1,0.1-1.5c0-0.5,0.3-0.8,0.8-0.8
		c0.7-0.1,1.5-0.1,2.2-0.2c0.2,0,0.4-0.3,0.5-0.5c0.1-0.2,0.1-0.5,0.1-0.7c0-1.8,0-3.5,0-5.3c0-0.2,0-0.5-0.2-0.7
		c-0.1-0.2-0.3-0.4-0.5-0.5c-0.2-0.1-0.5-0.1-0.7-0.1c-4.2,0-8.4,0-12.6,0c-0.2,0-0.5,0.1-0.7,0.1c-0.2,0-0.6,0.4-0.7,0.7
		c0,0.7-0.1,1.3-0.1,2c0,0.7-0.3,0.9-0.9,1c-1.2,0-2.3,0-3.5,0c-0.8,0-1.5,0-2.3,0.1c-0.4,0-0.8,0.4-0.8,0.8
		C443.9,41.6,443.9,42.6,443.9,43.6z"/>
	<path class="st0" d="M315.3,54.8c-4.1,0-8.2,0-12.4,0c-0.5,0-1,0-1.5,0c-0.6,0-0.9-0.3-0.9-1c0-0.5-0.1-1-0.1-1.5
		c0-0.1,0-0.2,0-0.2c-0.1-0.6-0.4-1-0.9-1c-0.4,0-0.8-0.1-1.3-0.1c-1.4-0.1-1.5-0.2-1.5-1.7c0-0.4,0-0.8-0.1-1.3
		c0-0.3-0.3-0.6-0.6-0.7c-0.6,0-1.2-0.1-1.8-0.1c-0.2,0-0.5,0-0.7-0.1c-0.1,0-0.3-0.2-0.3-0.3c-0.3-0.8-0.3-1.6,0-2.5
		c0.1-0.1,0.2-0.3,0.4-0.3c0.2-0.1,0.5-0.1,0.7-0.1c2.9,0,5.7,0,8.6,0c0.7,0,1,0.3,1.1,1.1c0,0.6,0.1,1.2,0.1,1.8
		c0,0.4,0.4,0.7,0.9,0.7c0.5,0,1,0,1.5,0c6,0,12.1,0,18.1,0c2.4,0,2.4,0,2.4-2.3c0-1.4,0-2.8,0-4.3c0-0.8-0.4-1.1-1.3-1.2
		c-0.7,0-1.3,0-2,0c-3.3,0-6.6,0-9.8,0c-0.5,0-1,0-1.5-0.1c-0.1,0-0.3-0.2-0.3-0.3c-0.1-0.6-0.1-1.2-0.1-1.7c0-0.3,0-0.5-0.1-0.8
		c0-0.4-0.4-0.7-0.9-0.8c-0.6,0-1.2-0.1-1.8-0.1c-1.8,0-3.7,0-5.5,0c-0.7,0-1.3,0-2-0.1c-0.6,0-1-0.4-1-0.9
		c-0.1-0.6-0.1-1.2-0.2-1.8c-0.1-0.6-0.4-0.9-0.9-1c-0.7,0-1.3,0-2-0.1c-0.4,0-0.7-0.3-0.7-0.6c0-0.2-0.1-0.5-0.1-0.7
		c0-2.7,0-5.4,0-8c0-0.3,0-0.5,0.1-0.8c0-0.3,0.3-0.6,0.6-0.7c0.8-0.1,1.5-0.1,2.3-0.2c0.3,0,0.7-0.4,0.7-0.7
		c0.1-0.6,0.1-1.2,0.2-1.7c0.1-1.2,0.3-1.4,1.6-1.4c1.7,0,3.4,0,5,0c0.8,0,1.5,0,2.3,0c2.3,0,2.4,0,2.4-2.3c0-0.2,0-0.5,0.1-0.7
		c0.1-0.2,0.2-0.5,0.5-0.5c0.6,0,1.2-0.1,1.8-0.1c0.6,0,1,0.3,1,0.9c0,0.7,0.1,1.3,0.1,2c0,0.3,0.4,0.6,0.7,0.6c0.7,0,1.3,0.1,2,0.1
		c3.3,0,6.6,0,9.8,0c0.6,0,1.2,0,1.8,0.1c0.3,0,0.7,0.3,0.7,0.6c0,0.6,0.1,1.2,0.1,1.8c0.1,1.2,0.3,1.4,1.6,1.5c0.5,0,1,0,1.5,0.1
		c0.3,0,0.6,0.4,0.7,0.7c0,0.7,0.1,1.3,0.1,2c0,1.2,0,2.3-0.1,3.5c0,0.4-0.4,0.8-0.8,0.8c-1.8,0-3.7,0-5.5,0c-0.4,0-0.7-0.4-0.8-0.8
		c0-0.7-0.1-1.3-0.1-2c0-0.3-0.3-0.6-0.6-0.7c-0.8-0.1-1.5-0.1-2.3-0.1c-0.3,0-0.6-0.3-0.7-0.6c-0.1-0.7-0.1-1.5-0.2-2.2
		c0-0.4-0.4-0.8-0.8-0.8c-0.4,0-0.8-0.1-1.3-0.1c-3.7,0-7.4,0-11.1,0c-0.5,0-1,0.1-1.5,0.1c-0.2,0-0.6,0.4-0.7,0.7
		c0,0.5-0.1,1-0.1,1.5c0,0.3,0,0.5-0.1,0.8c0,0.4-0.3,0.7-0.6,0.7c-0.8,0-1.5,0.1-2.3,0.1c-0.3,0-0.6,0.3-0.7,0.6
		c0,0.2-0.1,0.5-0.1,0.7c0,2.6,0,2.7,2.6,2.7c1.3,0,2.7,0,4,0.1c0.4,0,0.8,0.4,0.8,0.8c0.1,0.7,0.1,1.3,0.1,2c0,0.4,0.4,0.7,0.8,0.8
		c0.8,0,1.5,0,2.3,0c4.4,0,8.7,0,13.1,0c0.6,0,1.2,0,1.8,0c0.4,0,0.7,0.4,0.8,0.8c0,0.7,0.1,1.3,0.1,2c0,0.5,0.4,0.9,1,1
		c0.7,0,1.3,0.1,2,0.1c0.3,0,0.7,0.4,0.7,0.6c0,0.3,0.1,0.7,0.1,1c0,3.8,0,7.5,0,11.3c0,0.2,0,0.5-0.1,0.7c0,0.4-0.4,0.8-0.8,0.8
		c-0.7,0.1-1.3,0.1-2,0.2c-0.6,0.1-0.9,0.4-0.9,1c0,0.6,0,1.2-0.1,1.8c0,0.7-0.3,1-1.1,1c-0.6,0-1.2,0-1.8,0
		C323.4,54.8,319.4,54.8,315.3,54.8z"/>
	<path class="st0" d="M50.8,35.9c0-5.2,0-10.4,0-15.6c0-0.8,0.1-1.5,0.1-2.3c0-0.3,0.4-0.7,0.7-0.7c0.3,0,0.5-0.1,0.8-0.1
		c2.7,0,5.4,0,8.1,0c0.2,0,0.3,0,0.5,0c0.4,0,0.8,0.4,0.8,0.8c0,0.6,0.1,1.2,0.1,1.8c0,0.2,0,0.3,0.1,0.5c0,0.3,0.4,0.7,0.6,0.7
		c0.8,0,1.7,0,2.5,0c0.3,0,0.7-0.4,0.7-0.6c0.1-0.7,0.2-1.5,0.2-2.2c0.1-0.6,0.4-0.9,1-0.9c0.4,0,0.8,0,1.3,0c5.9,0,11.8,0,17.6,0
		c0.5,0,1,0,1.5,0c0.4,0,0.7,0.4,0.8,0.8c0,0.7,0.1,1.3,0.1,2c0,0.5,0.4,0.9,1,0.9c0.7,0.1,1.5,0.1,2.2,0.2c0.1,0,0.3,0.2,0.3,0.3
		c0.1,0.2,0.2,0.5,0.2,0.7c0,0.5,0,1,0,1.5c0,9.5,0,18.9,0,28.4c0,0.6,0,1.2-0.1,1.8c0,0.3-0.3,0.7-0.6,0.7c-1.9,0-3.9,0-5.8,0
		c-0.3,0-0.7-0.3-0.7-0.6c0-0.8-0.1-1.7-0.1-2.5c0-7.8,0-15.6,0-23.4c0-0.8,0-1.5,0-2.3c0-1-0.3-1.3-1.4-1.3c-1.4,0-2.9,0-4.3,0
		c-0.3,0-0.7,0-1,0c-0.5,0-0.8-0.3-0.8-0.8c0-0.7-0.1-1.3-0.1-2c0-0.5-0.4-0.9-1-1c-2-0.1-4-0.2-6,0c-0.4,0-0.7,0.4-0.8,0.9
		c0,0.1,0,0.2,0,0.2c0,3-0.1,2.6-2.9,2.6c-1.3,0-2.5,0-3.8,0.1c-0.5,0-0.8,0.3-0.8,0.8c0,0.8-0.1,1.7-0.1,2.5c0,8,0,15.9,0,23.9
		c0,0.8-0.1,1.5-0.1,2.3c0,0.3-0.3,0.6-0.6,0.7c-0.2,0-0.3,0-0.5,0c-2.8,0-5.5,0-8.3,0c-0.3,0-0.5,0-0.7-0.1
		c-0.2-0.1-0.4-0.3-0.5-0.5c-0.1-0.2-0.2-0.5-0.2-0.7c0-0.8,0-1.5,0-2.3C50.8,46.2,50.8,41,50.8,35.9z"/>
	<path class="st0" d="M391.3,36c0-5.1,0-10.2,0-15.3c0-0.8,0-1.5,0.1-2.3c0-0.7,0.4-1,1.1-1c1.6,0,3.2,0,4.8,0
		c0.9,0,1.1,0.2,1.2,1.2c0,0.5,0,1,0.1,1.5c0,0.7,0.4,1,1.1,1.1c0.7,0,1.3,0,2,0c0.5,0,0.9-0.4,0.9-1c0-0.7,0.1-1.3,0.1-2
		c0-0.4,0.4-0.7,0.8-0.8c0.5,0,1,0,1.5,0c5.9,0,11.8,0,17.6,0c0.4,0,0.8,0,1.3,0c0.7,0,1,0.4,1.1,1.1c0,0.6,0,1.2,0.1,1.8
		c0,0.5,0.4,0.9,1,0.9c0.3,0,0.5,0,0.8,0c1.8,0,1.9,0.1,1.9,1.8c0,10,0,19.9,0,29.9c0,0.4,0,0.8-0.1,1.2c0,0.2-0.3,0.4-0.5,0.5
		c-0.4,0.1-0.8,0.1-1.2,0.1c-1.5,0-3,0-4.5-0.1c-0.3,0-0.6-0.3-0.7-0.6c-0.1-0.7-0.1-1.5-0.1-2.3c0-4.1,0-8.2,0-12.3
		c0-3.9,0-7.7,0-11.6c0-0.8,0-1.5-0.1-2.3c0-0.7-0.4-1-1.1-1c-1.6,0-3.2,0-4.8,0c-0.3,0-0.5,0-0.8-0.1c-0.3,0-0.7-0.3-0.7-0.6
		c-0.1-0.7-0.1-1.5-0.2-2.2c0-0.4-0.4-0.8-0.8-0.8c-0.4,0-0.8-0.1-1.3-0.1c-1.6,0-1.9,0.2-1.9,1.9c0,0.5-0.1,1-0.2,1.5
		c0,0.1-0.2,0.3-0.3,0.3c-0.3,0.1-0.7,0.1-1,0.1c-1.5,0-3,0-4.5,0c-0.3,0-0.5,0-0.8,0.1c-0.3,0-0.7,0.3-0.7,0.6
		c-0.1,0.7-0.1,1.5-0.2,2.2c0,0.3-0.4,0.6-0.7,0.7c-0.8,0.1-1.5,0.1-2.3,0.2c-0.4,0-0.8,0.5-0.8,0.9c0,0.8-0.1,1.7-0.1,2.5
		c0,6.7,0,13.4,0,20.1c0,3.1,0.2,2.8-2.8,2.9c-1.2,0-2.4,0-3.5-0.1c-0.3,0-0.6-0.3-0.7-0.6c-0.1-0.7-0.1-1.5-0.1-2.3
		C391.3,46.6,391.3,41.3,391.3,36z"/>
	<path class="st0" d="M542.2,28.5c0,7.8,0,15.6,0,23.4c0,0.8-0.1,1.7-0.1,2.5c0,0.1-0.2,0.3-0.3,0.4c-0.1,0.1-0.3,0.1-0.5,0.1
		c-3,0-6,0-9.1,0c-0.2,0-0.3,0-0.5-0.1c-0.1-0.1-0.3-0.2-0.3-0.4c-0.1-0.7-0.1-1.3-0.1-2c0-15.8,0-31.6,0-47.5
		c0-2.7-0.1-2.6,2.6-2.6c2.2,0,4.4,0,6.5,0c0.4,0,0.8,0,1.2,0.1c0.2,0,0.5,0.2,0.5,0.5c0,0.8,0.1,1.7,0.1,2.5
		C542.2,13.1,542.2,20.8,542.2,28.5z"/>
	<path class="st0" d="M171.9,36.1c0-5.3,0-10.6,0-15.8c0-0.7,0.1-1.5,0.1-2.2c0-0.3,0.4-0.6,0.7-0.6c1.8,0,3.7,0,5.5,0
		c0.4,0,0.7,0.4,0.8,0.8c0.1,0.7,0.1,1.5,0.2,2.2c0,0.3,0.4,0.6,0.7,0.7c0.8,0,1.5,0.1,2.3,0.1c0.8,0,1-0.4,1.1-1.1
		c0-0.7,0.1-1.3,0.1-2c0-0.3,0.3-0.6,0.7-0.7c0.2,0,0.3,0,0.5,0c4.1,0,8.2,0,12.3,0c0.2,0,0.5,0.1,0.7,0.2c0.1,0.1,0.3,0.2,0.3,0.4
		c0.1,0.1,0.1,0.3,0.1,0.5c0,1.8,0,3.5,0,5.3c0,0.7-0.4,1-1.1,1c-0.7,0-1.3,0-2,0c-3.2,0-6.4,0-9.6,0c-0.6,0-1.2,0-1.8,0.1
		c-0.2,0-0.5,0.2-0.5,0.5c-0.1,0.7-0.1,1.3-0.2,2c-0.1,0.7-0.4,1-1.2,1.1c-0.2,0-0.3,0-0.5,0c-2.2,0-2.2,0.4-2.2,2.4
		c0,7,0,13.9,0,20.9c0,0.8,0,1.7-0.1,2.5c0,0.3-0.3,0.6-0.6,0.6c-0.4,0-0.8,0.1-1.3,0.1c-1.6-0.1-3.2,0.3-4.7-0.2
		c-0.4-0.1-0.5-0.6-0.5-4.9C171.9,45.2,171.9,40.7,171.9,36.1z"/>
	<path class="st0" d="M608.5,24.6c-2.3,0-4.7,0-7,0c-0.5,0-1,0-1.5-0.1c-0.2,0-0.4-0.3-0.5-0.4c0-0.1-0.1-0.2-0.1-0.2
		c0-1.9,0-3.8,0-5.8c0-0.3,0.3-0.7,0.6-0.7c0.7,0,1.3,0,2,0c0.3,0,0.6,0.3,0.6,0.7c0,0.6,0,1.2,0.1,1.8c0,0.2,0,0.5,0.1,0.7
		c0.1,0.2,0.3,0.5,0.5,0.5c0.6,0.1,1.2,0.2,1.7,0.2c3.1,0,6.2,0,9.3,0c0.8,0,1.5,0,2.3,0c0.9,0,1.1,0.3,1.1,1.3c0,0.5,0,1-0.1,1.5
		c0,0.3-0.2,0.5-0.5,0.5c-0.5,0.1-1,0.1-1.5,0.1C613.3,24.6,610.9,24.6,608.5,24.6z"/>
</g>
</svg>
