<?xml version="1.0" encoding="utf-8"?>
<!-- Generator: Adobe Illustrator 26.0.2, SVG Export Plug-In . SVG Version: 6.00 Build 0)  -->
<svg version="1.1" id="Layer_1" xmlns="http://www.w3.org/2000/svg" xmlns:xlink="http://www.w3.org/1999/xlink" x="0px" y="0px"
	 viewBox="0 0 589 69" style="enable-background:new 0 0 589 69;" xml:space="preserve">
<style type="text/css">
	.st0{fill:#333333;}
</style>
<g>
	<g>
		<path class="st0" d="M14.8,24.5h34.9v7.4H14.8v15.3h36.9v7.7H5.9V3.8h44.8v7.7H14.8V24.5z"/>
		<path class="st0" d="M100.2,54.9h-11L77.7,40.5L65.9,54.9H55l17.1-20.3l-15-18.2h11l9.6,12.2l9.4-12.2h10.9L83.2,34.6L100.2,54.9z
			"/>
		<path class="st0" d="M113.2,49.7v18.6h-8.7v-52h8.5v5.8h0.3c2.9-4.1,8.2-6.7,14.7-6.7c12.1,0,20.5,7.5,20.5,20.3
			c0,12.9-8.4,20.3-20.5,20.3c-6.6,0-11.7-2.6-14.5-6.4H113.2z M113,35.8c0,7.9,5,13.2,13.2,13.2c8.3,0,13.2-4.4,13.2-13.2
			s-4.9-13.2-13.2-13.2C118,22.6,113,27.9,113,35.8z"/>
		<path class="st0" d="M154.1,3.1h8.7v51.8h-8.7V3.1z"/>
		<path class="st0" d="M213.5,35.6c0,12.9-8.5,20.5-22.6,20.5s-22.6-7.6-22.6-20.5s8.5-20.5,22.6-20.5S213.5,22.8,213.5,35.6z
			 M204.5,35.6c0-8.8-5.1-13.3-13.5-13.3s-13.5,4.5-13.5,13.3S182.6,49,190.9,49S204.5,44.4,204.5,35.6z"/>
		<path class="st0" d="M227.6,16.4v5.1h0.3c3.4-3.8,7.9-6.1,15-6.1c1.6,0,3.5,0.2,4.6,0.6v8.6c-1.2-0.3-2.9-0.6-5.6-0.6
			c-6.7,0-14.2,2.4-14.2,11.2v19.8h-8.7V16.4H227.6z"/>
		<path class="st0" d="M294.1,37.9h-35c0.7,7.7,5.7,11.4,13.5,11.4c7.9,0,11-3.6,11.5-6.4h9.7c-0.9,6.4-6.7,13.3-21.2,13.3
			c-14,0-22.5-7.6-22.5-20.5s8.5-20.5,22.1-20.5s22,7.6,22,20.5C294.3,36.3,294.2,37.2,294.1,37.9z M259.5,31.2H285
			c-1.4-6.2-6.1-9.2-12.7-9.2S260.8,25,259.5,31.2z"/>
		<path class="st0" d="M364.6,35.6c0,12.9-8.5,20.5-22.5,20.5s-22.5-7.6-22.5-20.5s8.5-20.5,22.5-20.5S364.6,22.8,364.6,35.6z
			 M355.6,35.6c0-8.8-5.1-13.3-13.5-13.3s-13.5,4.5-13.5,13.3S333.7,49,342.1,49S355.6,44.4,355.6,35.6z"/>
		<path class="st0" d="M378.8,16.4v5.1h0.3c3.4-3.8,8-6.1,15-6.1c1.6,0,3.5,0.2,4.6,0.6v8.6c-1.2-0.3-2.9-0.6-5.6-0.6
			c-6.7,0-14.2,2.4-14.2,11.2v19.8h-8.7V16.4H378.8z"/>
		<path class="st0" d="M436.6,21.8V3.1h8.7v51.8h-8.5v-5.5h-0.3c-2.9,4.2-8.2,6.7-14.8,6.7c-12.1,0-20.5-7.5-20.5-20.3
			c0-12.9,8.4-20.3,20.5-20.3c6.6,0,11.7,2.6,14.5,6.4L436.6,21.8L436.6,21.8z M436.8,35.8c0-7.9-5-13.2-13.2-13.2
			c-8.3,0-13.2,4.4-13.2,13.2s4.9,13.2,13.2,13.2C431.8,49,436.8,43.7,436.8,35.8z"/>
		<path class="st0" d="M494.9,37.9h-35c0.7,7.7,5.7,11.4,13.5,11.4c7.9,0,11-3.6,11.5-6.4h9.7c-0.9,6.4-6.7,13.3-21.2,13.3
			c-14,0-22.5-7.6-22.5-20.5s8.5-20.5,22-20.5s22,7.6,22,20.5C495,36.3,495,37.2,494.9,37.9z M460.2,31.2h25.5
			C484.4,25,479.6,22,473,22S461.6,25,460.2,31.2z"/>
		<path class="st0" d="M509.1,16.4v5.1h0.3c3.4-3.8,7.9-6.1,15-6.1c1.7,0,3.5,0.2,4.7,0.6v8.6c-1.2-0.3-2.9-0.6-5.6-0.6
			c-6.7,0-14.2,2.4-14.2,11.2v19.8h-8.7V16.4H509.1z"/>
		<path class="st0" d="M546.6,24.9h-4.3V7.3h-6.6V4.1h1.8c3.4,0,4.8-1,5.4-3.5h3.7L546.6,24.9L546.6,24.9z"/>
		<path class="st0" d="M564.5,52.9c0,10.5-3,14.6-10.4,14.8v-4c3.3-0.1,4.8-1.9,4.8-8.7h-4.9v-9.7h10.5V52.9z"/>
	</g>
</g>
</svg>
