<?xml version="1.0" encoding="utf-8"?>
<!-- Generator: Adobe Illustrator 26.0.2, SVG Export Plug-In . SVG Version: 6.00 Build 0)  -->
<svg version="1.1" id="Layer_1" xmlns="http://www.w3.org/2000/svg" xmlns:xlink="http://www.w3.org/1999/xlink" x="0px" y="0px"
	 viewBox="0 0 617 69" style="enable-background:new 0 0 617 69;" xml:space="preserve">
<style type="text/css">
	.st0{fill:#FFFFFF;}
</style>
<g>
	<path class="st0" d="M176.2,34.7c0-5.9,0-11.7,0-17.6c0-0.8,0-1.5,0.1-2.3c0-0.4,0.4-0.7,0.8-0.8c0.4,0,0.8,0,1.3,0
		c2.3,0,4.5,0,6.8,0c0.4,0,0.8,0,1.3,0.1c0.3,0,0.6,0.3,0.7,0.6c0.1,0.8,0.1,1.5,0.1,2.3c0,0.4,0.4,0.8,0.8,0.8c0.8,0,1.7,0,2.5,0
		c0.3,0,0.7-0.4,0.7-0.6c0-0.5,0.1-1,0.1-1.5c0-1.4,0.2-1.6,1.5-1.6c5.1,0,10.2,0,15.4,0c0.3,0,0.7,0,1,0.1c0.2,0.1,0.5,0.2,0.5,0.5
		c0.1,0.7,0.1,1.5,0.2,2.2c0,0.6,0.4,0.9,1,1c0.3,0,0.5,0,0.8,0c2.8,0,5.5,0,8.3,0c0.3,0,0.5,0,0.8-0.1c0.4,0,0.8-0.4,0.8-0.8
		c0-0.3,0-0.7,0.1-1c0-0.4,0-0.8,0.1-1.3c0-0.3,0.3-0.6,0.6-0.7c0.3,0,0.7-0.1,1-0.1c3.8,0,7.6,0,11.3,0c0.4,0,0.8,0.1,1.2,0.2
		c0.1,0,0.3,0.2,0.3,0.3c0.1,0.5,0.2,1,0.2,1.5c0,1.7,0.3,1.9,1.9,1.9c1.3,0,2.5,0,3.8,0c0.4,0,0.8,0.1,1.2,0.1
		c0.3,0,0.4,0.3,0.5,0.5c0.1,0.3,0.1,0.7,0.1,1c0,1.2,0,2.3,0,3.5c0,0.5,0,1,0.1,1.5c0,0.4,0.4,0.8,0.8,0.8c0.7,0.1,1.3,0.1,2,0.1
		c0.4,0,0.8,0.4,0.8,0.8c0,0.6,0.1,1.2,0.1,1.8c0,8.1,0,16.3,0,24.4c0,0.6,0,1.2,0,1.8c0,0.5-0.4,0.9-1,0.9c-0.1,0-0.2,0-0.3,0
		c-2.8,0-5.5,0-8.3,0c-0.2,0-0.5,0-0.7-0.1c-0.2-0.1-0.5-0.3-0.5-0.5c-0.1-0.7-0.1-1.5-0.1-2.3c0-6.5,0-13.1,0-19.6
		c0-1.6,0-3.2,0-4.8c0-0.6,0-1.2,0-1.8c0-0.6-0.4-1-0.9-1c-0.2,0-0.5-0.1-0.7-0.1c-2-0.1-2-0.2-2.1-2.2c0-0.2-0.1-0.5-0.1-0.7
		c-0.1-0.3-0.3-0.6-0.6-0.7c-0.2,0-0.5-0.1-0.7-0.1c-2.9,0-5.7,0-8.6,0c-0.3,0-0.7,0-1,0.1c-0.2,0.1-0.4,0.3-0.5,0.5
		c-0.1,0.7-0.1,1.3-0.2,2c0,0.6-0.4,0.9-0.9,1c-0.7,0.1-1.3,0.1-2,0.2c-0.4,0-0.8,0.4-0.8,0.8c0,0.8-0.1,1.7-0.1,2.5
		c0,7.7,0,15.4,0,23.1c0,0.8,0,1.7,0,2.5c0,0.6-0.4,1-0.9,1c-0.2,0-0.3,0-0.5,0c-2.7,0-5.4,0-8.1,0c-0.2,0-0.5-0.1-0.7-0.1
		c-0.3,0-0.6-0.4-0.7-0.7c0-0.8-0.1-1.7-0.1-2.5c0-7.5,0-14.9,0-22.4c0-0.6,0-1.2,0-1.8c0-2.4,0.2-2.7-2.6-2.8c-0.1,0-0.2,0-0.2,0
		c-0.4-0.1-0.8-0.4-0.9-0.8c-0.1-0.7-0.1-1.3-0.2-2c-0.1-0.5-0.4-0.8-0.8-0.8c-0.5,0-1,0-1.5,0c-2.3,0-4.5,0-6.8,0
		c-0.4,0-0.8,0-1.3,0c-0.9,0-1.1,0.3-1.1,1c-0.1,0.6-0.1,1.2-0.1,1.8c0,0.4-0.4,0.8-0.8,0.8c-0.7,0.1-1.5,0.1-2.2,0.2
		c-0.3,0-0.6,0.4-0.7,0.7c0,0.8-0.1,1.7-0.1,2.5c0,7.5,0,15.1,0,22.6c0,0.6,0,1.2,0,1.8c0,2.4,0,2.4-2.3,2.5c-2.2,0-4.4,0-6.6,0
		c-0.5,0-1-0.1-1.5-0.2c-0.2,0-0.5-0.3-0.5-0.5c-0.1-0.7-0.1-1.5-0.1-2.3C176.2,46.4,176.2,40.6,176.2,34.7z"/>
	<path class="st0" d="M100.6,34.7c0-5.9,0-11.7,0-17.6c0-0.8,0-1.5,0.1-2.3c0-0.4,0.4-0.8,0.8-0.8c1,0,2,0,3,0c1.8,0,3.7,0,5.5,0
		c0.3,0,0.5,0,0.8,0.1c0.3,0,0.6,0.3,0.7,0.6c0.1,0.8,0.1,1.5,0.1,2.3c0,0.4,0.4,0.8,0.8,0.8c0.8,0,1.7,0,2.5,0
		c0.3,0,0.7-0.4,0.7-0.6c0-0.5,0.1-1,0.1-1.5c0-1.4,0.2-1.6,1.6-1.6c5.1,0,10.3,0,15.4,0c0.3,0,0.7,0,1,0.1c0.2,0.1,0.5,0.2,0.5,0.5
		c0.1,0.7,0.1,1.5,0.2,2.2c0,0.5,0.4,0.9,1,1c0.3,0,0.5,0,0.8,0c2.8,0,5.5,0,8.3,0c0.3,0,0.5,0,0.8-0.1c0.4,0,0.8-0.4,0.8-0.8
		c0-0.6,0-1.2,0.1-1.8c0-0.2,0-0.3,0.1-0.5c0-0.3,0.3-0.6,0.6-0.7c0.3,0,0.7-0.1,1-0.1c3.8,0,7.6,0,11.3,0c0.3,0,0.7,0,1,0.1
		c0.3,0,0.6,0.4,0.7,0.7c0,0.5,0.1,1,0.1,1.5c0,0.3,0,0.7,0.1,1c0.1,0.2,0.3,0.4,0.5,0.5c0.4,0.1,0.8,0.1,1.2,0.1c1.3,0,2.7,0,4,0
		c0.3,0,0.7,0.1,1,0.1c0.3,0,0.4,0.3,0.5,0.5c0.1,0.3,0.1,0.7,0.1,1c0,1,0,2,0,3c0,9.8,0,19.6,0,29.4c0,0.8-0.1,1.7-0.1,2.5
		c0,0.2-0.4,0.6-0.7,0.7c-1.9,0.1-3.9,0.2-5.8,0c-0.3,0-0.6-0.4-0.6-0.7c0-0.8-0.1-1.7-0.1-2.5c0-7.8,0-15.6,0-23.4
		c0-0.8,0-1.5,0-2.3c0-0.6-0.2-1-1.1-1.1c-0.4,0-0.8,0-1.3-0.1c-1.1-0.1-1.3-0.3-1.4-1.4c0-0.5-0.1-1-0.1-1.5
		c-0.1-0.4-0.4-0.7-0.9-0.7c-1,0-2,0-3,0c-2,0-4,0-6,0c-0.3,0-0.7,0-1,0.1c-0.2,0.1-0.5,0.2-0.5,0.5c-0.1,0.7-0.1,1.3-0.2,2
		c-0.1,0.7-0.4,1-1.2,1.1c-0.2,0-0.3,0-0.5,0c-2.2,0-2.2,0.4-2.2,2.4c0,7.9,0,15.8,0,23.6c0,1.1,0,2.2-0.1,3.3
		c0,0.4-0.4,0.8-0.8,0.8c-0.3,0-0.5,0.1-0.8,0.1c-2.5,0-5,0-7.6,0c-0.3,0-0.7-0.1-1-0.1c-0.3,0-0.7-0.4-0.7-0.6
		c0-0.8-0.1-1.5-0.1-2.3c0-7.9,0-15.8,0-23.6c0-0.8,0-1.5,0-2.3c0-0.8-0.4-1.1-1.3-1.2c-0.4,0-0.8,0-1.3-0.1
		c-0.9-0.1-1.1-0.3-1.2-1.3c0-0.2,0-0.3,0-0.5c-0.1-1.9-0.3-1.9-1.9-1.9c-2.6,0-5.2,0-7.8,0c-0.4,0-0.8,0-1.3,0.1
		c-0.3,0-0.6,0.4-0.6,0.7c0,0.7-0.1,1.3-0.1,2c0,0.4-0.4,0.8-0.8,0.9c-0.7,0.1-1.5,0.1-2.2,0.2c-0.3,0-0.6,0.4-0.7,0.7
		c0,0.7-0.1,1.3-0.1,2c0,5.8,0,11.6,0,17.3c0,2.6,0,5.2,0,7.8c0,0.5,0,1-0.1,1.5c0,0.2-0.3,0.4-0.5,0.5c-0.2,0.1-0.5,0.2-0.7,0.2
		c-2.8,0-5.5,0-8.3,0c-0.2,0-0.5,0-0.7-0.1c-0.2-0.1-0.5-0.3-0.5-0.5c-0.1-0.7-0.1-1.3-0.1-2C100.6,46.6,100.6,40.7,100.6,34.7z"/>
	<path class="st0" d="M452,38.3c0,4.5,0,9.1,0,13.6c0,0.8,0,1.5,0,2.3c0,0.6-0.4,1-0.9,1c-1.8,0-3.5,0-5.3,0c-0.4,0-0.8-0.4-0.9-0.8
		c-0.1-0.8-0.1-1.7-0.1-2.5c0-1.1-0.1-2.2-0.1-3.3c0-0.4-0.4-0.8-0.8-0.8c-0.4,0-0.8-0.1-1.3-0.1c-1.6,0-1.9,0.2-1.9,1.9
		c0,0.5-0.1,1-0.2,1.5c0,0.1-0.2,0.3-0.3,0.3c-0.3,0.1-0.7,0.1-1,0.1c-1.4,0-2.9,0-4.3,0c-0.3,0-0.7,0-1,0.1c-0.3,0-0.6,0.3-0.7,0.6
		c-0.1,0.7-0.1,1.5-0.2,2.2c0,0.3-0.4,0.6-0.7,0.7c-0.2,0-0.5,0.1-0.8,0.1c-3.9,0-7.9,0-11.8,0c-0.2,0-0.5-0.1-0.7-0.1
		c-0.3,0-0.6-0.4-0.6-0.7c0-0.7-0.1-1.3-0.1-2c0-0.4-0.4-0.7-0.8-0.8c-0.9-0.2-2,0.3-2.6-0.4c-0.6-0.6-0.2-1.6-0.4-2.4
		c0-0.1,0-0.2-0.1-0.2c-0.1-0.3-0.4-0.6-0.7-0.7c-0.8-0.1-1.5-0.1-2.3-0.2c-0.3,0-0.6-0.4-0.7-0.7c0-0.2-0.1-0.5-0.1-0.8
		c0-2.7,0-5.4,0-8c0-0.2,0-0.5,0.1-0.7c0-0.3,0.3-0.6,0.7-0.6c0.8,0,1.5-0.1,2.3-0.1c0.3,0,0.6-0.4,0.7-0.7c0.1-0.7,0.1-1.3,0.2-2
		c0.1-0.5,0.4-0.9,1-0.9c1.2,0,2.4,0,3.5,0c0.7,0,1.3,0,2-0.1c0.4,0,0.8-0.4,0.8-0.8c0.1-0.7,0.1-1.5,0.2-2.2c0-0.3,0.4-0.7,0.7-0.7
		c0.8,0,1.5-0.1,2.3-0.1c4.5,0,9.1,0,13.6,0c0.6,0,1.2-0.1,1.7-0.2c0.1,0,0.2-0.2,0.3-0.3c0-0.1,0.1-0.2,0.1-0.2c0-2.1,0-4.2,0-6.3
		c0-0.3-0.4-0.6-0.6-0.7c-0.3,0-0.7-0.1-1-0.1c-4,0-8.1,0-12.1,0c-0.3,0-0.7,0-1,0.1c-0.2,0.1-0.5,0.2-0.5,0.5
		c-0.1,0.7-0.1,1.5-0.2,2.2c0,0.3-0.3,0.7-0.6,0.7c-0.2,0-0.5,0.1-0.7,0.1c-2.7,0-5.4,0-8.1,0c-0.2,0-0.3,0-0.5-0.1
		c-0.4-0.1-0.8-0.4-0.9-0.8c0-0.1-0.1-0.2-0.1-0.2c0-1.7,0-3.3,0-5c0-0.1,0-0.2,0.1-0.2c0.1-0.3,0.4-0.6,0.7-0.7
		c0.8,0,1.5-0.1,2.3-0.1c1.2,0,2.4,0,3.5-0.1c0.4,0,0.8-0.4,0.8-0.8c0.1-0.7,0.1-1.5,0.2-2.2c0-0.4,0.4-0.7,0.9-0.7c0.5,0,1,0,1.5,0
		c5.8,0,11.6,0,17.4,0c0.5,0,1,0,1.5,0c0.5,0,0.8,0.3,0.9,0.7c0,0.6,0,1.2,0.1,1.8c0,0.2,0,0.5,0.2,0.7c0.1,0.2,0.3,0.4,0.5,0.5
		c0.7,0.1,1.5,0.1,2.2,0.2c0.4,0,0.8,0.4,0.8,0.8c0,0.6,0.1,1.2,0.1,1.8c0.1,0.8,0.3,1,1.1,1c0.6,0,1.2,0,1.8,0.1
		c0.4,0,0.8,0.4,0.8,0.8c0,0.8,0,1.5,0,2.3C452,29.2,452,33.8,452,38.3z M431.4,36.4C431.4,36.4,431.4,36.4,431.4,36.4
		c-2.4,0-4.7,0-7.1,0c-0.6,0-1.2,0-1.8,0.1c-0.4,0-0.8,0.4-0.8,0.8c-0.1,0.8-0.1,1.5-0.2,2.3c0,0.1-0.2,0.3-0.3,0.4
		c-0.2,0.1-0.5,0.1-0.7,0.2c-0.6,0.1-1.2,0.1-1.8,0.2c-0.3,0-0.7,0.4-0.7,0.7c0,0.5-0.1,1-0.1,1.5c0,1.6,0.1,1.7,1.6,1.8
		c0.2,0,0.3,0,0.5,0c0.1,0,0.2,0,0.3,0c1.1,0,1.2,0.3,1.3,1.1c0,0.6,0,1.2,0.1,1.8c0,0.5,0.5,0.9,1,0.9c0.4,0,0.8,0,1.3,0
		c3.6,0,7.2,0,10.8,0c0.4,0,0.8,0,1.3,0c0.6,0,0.9-0.4,1-0.9c0.1-0.5,0.1-1,0.1-1.5c0.1-1.1,0.3-1.3,1.3-1.4c0.3,0,0.7,0,1,0
		c1.1-0.1,1.4-0.2,1.4-1.3c0-1.7,0-3.4,0-5c0-0.2-0.1-0.5-0.1-0.7c0-0.3-0.4-0.6-0.7-0.6c-0.4,0-0.8-0.1-1.3-0.1
		C436.4,36.4,433.9,36.4,431.4,36.4z"/>
	<path class="st0" d="M96.4,34.7c0,2.5,0,5,0,7.5c0,0.4,0,0.8-0.1,1.2c0,0.2-0.2,0.4-0.5,0.5c-0.5,0-1,0.1-1.5,0.1
		c-1.3,0-1.5,0.3-1.5,1.4c0,0.4,0,0.8-0.1,1.3c0,0.6-0.4,0.9-0.9,1c-0.7,0.1-1.3,0.1-2,0.2c-0.4,0-0.8,0.4-0.8,0.8
		c-0.1,0.8-0.1,1.5-0.1,2.3c0,0.3-0.3,0.6-0.7,0.6c-1.6,0-3.2,0-4.8,0.1c-0.4,0-0.8,0-1.3,0.1c-0.3,0-0.6,0.4-0.7,0.7
		c0,0.5-0.1,1-0.1,1.5c0,0.2,0,0.3,0,0.5c0,0.5-0.4,0.9-1,0.9c-0.4,0-0.8,0.1-1.3,0.1c-1.5,0-3,0-4.5,0c-3.1,0-6.2,0-9.3,0
		c-0.5,0-1,0-1.5-0.1c-0.4,0-0.8-0.4-0.8-0.8c0-0.7-0.1-1.3-0.1-2c0-0.4-0.4-0.8-0.8-0.8c-0.7,0-1.3-0.1-2-0.1
		c-0.4,0-0.8-0.4-0.8-0.8c-0.1-0.7-0.1-1.3-0.2-2c-0.1-0.5-0.4-0.9-1-0.9c-0.7-0.1-1.3-0.1-2-0.2c-0.3,0-0.6-0.4-0.6-0.7
		c-0.2-0.9,0.3-1.9-0.5-2.6c-0.7-0.6-1.6-0.2-2.4-0.3c-0.5-0.1-0.8-0.3-0.8-0.8c0-0.5-0.1-1-0.1-1.5c0-4.6,0-9.2,0-13.8
		c0-0.3,0-0.5,0-0.8c0.1-1.3,0.3-1.6,1.6-1.6c0.3,0,0.5,0,0.8,0c1-0.1,1.3-0.3,1.3-1.4c0-0.6,0-1.2,0.1-1.8c0-0.3,0.3-0.6,0.7-0.6
		c0.6,0,1.2-0.1,1.8-0.1c0.2,0,0.3,0,0.5,0c0.3,0,0.7-0.4,0.7-0.6c0.1-0.7,0.2-1.5,0.2-2.2c0-0.3,0.4-0.6,0.7-0.6
		c0.7-0.1,1.3-0.1,2-0.1c0.5,0,0.9-0.4,0.9-1c0-0.7,0.1-1.3,0.1-2c0-0.4,0.4-0.7,0.8-0.8c0.5,0,1,0,1.5,0c5.9,0,11.8,0,17.6,0
		c0.5,0,1,0,1.5,0c0.4,0,0.8,0.4,0.8,0.8c0.1,0.7,0.1,1.5,0.2,2.2c0,0.3,0.4,0.6,0.7,0.6c0.7,0.1,1.3,0.1,2,0.1c0.6,0,0.9,0.4,0.9,1
		c0.1,2.7,0,2.6,2.6,2.6c0.2,0,0.3,0,0.5,0.1c0.3,0,0.6,0.4,0.7,0.7c0,0.5,0.1,1,0.1,1.5c0,0.3,0,0.7,0.1,1c0.1,0.2,0.3,0.5,0.5,0.5
		c0.7,0.1,1.5,0.1,2.3,0.2c0.4,0,0.7,0.4,0.8,0.8c0,1.1,0,2.2,0,3.3C96.4,31.3,96.4,33,96.4,34.7C96.4,34.7,96.4,34.7,96.4,34.7z
		 M73.9,48.1c1.8,0,3.7,0,5.5,0c0.5,0,1,0,1.5-0.1c0.2,0,0.4-0.3,0.5-0.5c0.1-0.2,0.1-0.5,0.2-0.7c0.1-2.7,0.1-2.5,2.8-2.6
		c0.7,0,1-0.4,1-1.1c0-1.3,0-2.5,0-3.8c0-2.6-0.2-2.6,2.6-2.6c0.1,0,0.2,0,0.3,0c0.5,0,0.8-0.3,0.8-0.8c0.1-0.8,0.1-1.7,0-2.5
		c-0.1-0.3-0.4-0.6-0.7-0.7c-0.2,0-0.5-0.1-0.7-0.1c-0.5,0-1-0.1-1.5-0.1c-0.3,0-0.6-0.4-0.7-0.7c0-0.4-0.1-0.8-0.1-1.3
		c0-1.3,0-2.5,0-3.8c0-1.4-0.2-1.6-1.5-1.7c-0.2,0-0.3,0-0.5,0c-1.5-0.1-1.6-0.2-1.7-1.6c0-0.5-0.1-1-0.2-1.5c0-0.2-0.2-0.5-0.5-0.5
		c-0.3,0-0.7-0.1-1-0.1c-4,0-8.1,0-12.1,0c-0.3,0-0.7,0-1,0.1c-0.3,0-0.7,0.3-0.7,0.6c-0.1,0.7-0.1,1.5-0.2,2.2
		c0,0.3-0.3,0.6-0.7,0.6c-0.7,0.1-1.5,0.2-2.2,0.2c-0.2,0-0.6,0.4-0.6,0.7c0,0.8-0.1,1.7-0.1,2.5c0,1.1,0,2.2-0.1,3.3
		c0,0.4-0.4,0.8-0.8,0.8c-0.7,0.1-1.5,0.1-2.2,0.2c-0.3,0-0.7,0.4-0.7,0.7c0,0.8,0,1.7,0,2.5c0,0.3,0.3,0.7,0.6,0.7
		c0.6,0,1.2,0.1,1.8,0.1c0.9,0,1.3,0.2,1.4,1.4c0,0.5,0,1,0,1.5c0,1.1,0,2.2,0,3.3c0,1.1,0.2,1.3,1.3,1.4c0.6,0,1.2,0,1.8,0.1
		c0.2,0,0.4,0.3,0.5,0.5c0.1,0.2,0.1,0.5,0.1,0.7c0,0.5,0,1,0.1,1.5c0,0.7,0.4,1,1.2,1.1c0.3,0,0.7,0,1,0
		C70.2,48.1,72.1,48.1,73.9,48.1z"/>
	<path class="st0" d="M501.9,43.9c-0.1-0.3-0.3-0.5-0.3-0.7c-0.1-0.4-0.1-0.8-0.1-1.3c0-4.8,0-9.6,0-14.3c0-0.5,0-1,0.1-1.5
		c0-0.2,0.2-0.5,0.5-0.5c0.8-0.1,1.5-0.1,2.3-0.2c0.4,0,0.8-0.4,0.8-0.8c0.1-0.7,0.1-1.3,0.2-2c0.1-0.6,0.4-0.9,0.9-1
		c0.7,0,1.3-0.1,2-0.1c0.3,0,0.7-0.3,0.7-0.6c0.1-0.8,0.1-1.5,0.2-2.3c0-0.3,0.3-0.6,0.7-0.6c0.7,0,1.3-0.1,2-0.1c0.6,0,0.9-0.4,1-1
		c0-0.1,0-0.2,0-0.3c0.1-2.9,0.3-2.6,2.7-2.6c5.7,0,11.4,0,17.1,0c0.6,0,1.2,0,1.8,0.1c0.3,0,0.6,0.3,0.6,0.7c0,0.6,0.1,1.2,0.1,1.8
		c0,0.2,0,0.5,0.1,0.7c0.1,0.2,0.3,0.5,0.5,0.5c0.7,0.1,1.5,0.2,2.2,0.2c0.6,0.1,0.9,0.4,0.9,1c0,0.1,0,0.2,0,0.3
		c0.1,2.4-0.1,2.4,2.3,2.4c0.2,0,0.3,0,0.5,0c0.5,0,0.8,0.3,0.8,0.8c0,0.5,0,1,0.1,1.5c0,0.2,0,0.3,0,0.5c0.1,0.7,0.4,1,1.2,1
		c0.6,0,1.2,0.1,1.8,0.1c0.4,0,0.8,0.4,0.8,0.8c0,0.4,0.1,0.8,0.1,1.3c0,4.8,0,9.6,0,14.3c0,0.3,0,0.7,0,1c0,0.7-0.3,1-1.1,1
		c-0.6,0-1.2,0-1.8,0.1c-0.5,0-0.8,0.4-0.9,1c-0.1,0.8,0.3,1.8-0.4,2.4c-0.6,0.5-1.5,0.2-2.2,0.3c-0.1,0-0.2,0-0.2,0
		c-0.4,0.1-0.8,0.4-0.8,0.8c-0.1,0.7-0.1,1.5-0.2,2.2c0,0.3-0.3,0.6-0.7,0.6c-0.3,0-0.5,0-0.8,0c-1.4,0-2.9,0-4.3,0
		c-0.4,0-0.8,0.1-1.2,0.2c-0.1,0-0.3,0.2-0.3,0.3c-0.1,0.4-0.1,0.8-0.2,1.2c0,0.4-0.1,0.8-0.1,1.2c0,0.2-0.4,0.6-0.7,0.6
		c-0.5,0-1,0.1-1.5,0.1c-2.3,0-4.5,0-6.8,0c-2.3,0-4.5,0-6.8,0c-0.5,0-1,0-1.5-0.1c-0.7,0-1-0.4-1.1-1.1c-0.1-0.6-0.1-1.2-0.2-1.7
		c-0.1-0.4-0.4-0.7-0.9-0.7c-0.7,0-1.3,0-2-0.1c-0.5,0-0.7-0.3-0.8-0.8c0-0.1,0-0.2,0-0.3c0-2.6,0.1-2.7-2.6-2.8c-0.1,0-0.2,0-0.2,0
		c-0.4-0.1-0.8-0.4-0.8-0.8c-0.1-0.7-0.1-1.3-0.2-2c-0.1-0.5-0.4-0.8-0.8-0.8C503.6,44,502.8,43.9,501.9,43.9z M524.1,21.3
		C524.1,21.3,524.1,21.3,524.1,21.3c-1.8,0-3.7,0-5.5,0c-0.5,0-1,0-1.5,0.1c-0.3,0-0.6,0.3-0.7,0.7c-0.1,0.7-0.1,1.3-0.1,2
		c0,0.6-0.4,0.9-1,0.9c-0.5,0-1,0-1.5,0.1c-0.9,0.1-1.2,0.4-1.3,1.2c0,0.6,0,1.2-0.1,1.8c0,0.5-0.3,0.8-0.8,0.8
		c-0.8,0.1-1.5,0.1-2.3,0.2c-0.2,0-0.4,0.3-0.5,0.5c-0.1,0.2-0.1,0.5-0.1,0.7c0,2.9,0,5.9,0,8.8c0,0.2,0.1,0.5,0.1,0.7
		c0,0.3,0.4,0.6,0.7,0.7c0.7,0.1,1.5,0.1,2.3,0.2c0.3,0,0.6,0.3,0.6,0.7c0,0.7,0.1,1.3,0.1,2c0,0.5,0.4,0.8,0.8,0.8
		c0.8,0,1.5,0.1,2.3,0.1c0.3,0,0.6,0.4,0.7,0.7c0,0.2,0.1,0.5,0.1,0.7c0.1,0.6,0.1,1.2,0.2,1.7c0,0.2,0.3,0.4,0.5,0.5
		c0.3,0.1,0.7,0.1,1,0.1c4,0,8.1,0,12.1,0c0.3,0,0.7-0.1,1-0.1c0.3,0,0.6-0.4,0.6-0.7c0-0.8,0.1-1.5,0.1-2.3c0-0.4,0.4-0.7,0.8-0.8
		c0.8,0,1.5-0.1,2.3-0.1c0.2,0,0.4-0.3,0.5-0.5c0.1-0.4,0.1-0.8,0.2-1.2c0-1.2,0-2.3,0-3.5c0-0.5,0.1-1,0.1-1.5
		c0-0.3,0.4-0.6,0.7-0.6c0.8-0.1,1.5-0.1,2.3-0.2c0.3,0,0.5-0.2,0.5-0.5c0.2-0.9,0.2-1.8,0-2.7c0-0.3-0.4-0.6-0.7-0.6
		c-0.7-0.1-1.3-0.1-2-0.2c-0.5-0.1-0.9-0.4-0.9-1c0-0.8,0-1.7-0.1-2.5c0-1,0-2-0.1-3c0-0.4-0.4-0.8-0.8-0.9c-0.5-0.1-1-0.1-1.5-0.1
		c-1.2-0.1-1.3-0.2-1.4-1.3c0-0.6-0.1-1.2-0.1-1.7c0-0.3-0.3-0.5-0.5-0.5c-0.4-0.1-0.8-0.1-1.2-0.1C528,21.3,526.1,21.3,524.1,21.3z
		"/>
	<path class="st0" d="M550.7,34.5c0-5.5,0-11.1,0-16.6c0-0.8,0-1.5,0-2.3c0-1.3,0.3-1.6,1.7-1.6c2.6,0,5.2,0,7.8,0
		c0.2,0,0.5,0,0.7,0.1c0.3,0,0.6,0.4,0.7,0.7c0.1,0.7,0.1,1.5,0.2,2.2c0,0.4,0.4,0.8,0.8,0.8c2,0,4,0,6,0c0.5,0,0.9-0.4,0.9-1
		c0-0.7,0.1-1.3,0.1-2c0-0.4,0.4-0.7,0.8-0.8c0.2,0,0.3,0,0.5,0c3.9,0,7.9,0,11.8,0c0.2,0,0.3,0,0.5,0c0.6,0,1,0.4,1,0.9
		c0,0.6,0,1.2,0.1,1.8c0,0.8,0.4,1.1,1,1.2c0.8,0.1,1.8-0.3,2.4,0.4c0.5,0.6,0.2,1.5,0.3,2.2c0,0.2,0,0.3,0.1,0.5
		c0.1,0.2,0.2,0.5,0.5,0.5c0.7,0,1.3,0.1,2,0.1c0.9,0.1,1.2,0.4,1.2,1.3c0,0.5,0,1,0,1.5c0,9.3,0,18.6,0,27.9c0,3,0,2.9-2.9,2.9
		c-1.2,0-2.3,0-3.5-0.1c-0.4,0-0.8-0.4-0.8-0.8c0-0.8-0.1-1.7-0.1-2.5c0-7.8,0-15.6,0-23.4c0-0.8,0-1.5,0-2.3c0-0.6-0.4-1-0.9-1
		c-0.6-0.1-1.2-0.1-1.8-0.1c-0.6-0.1-1-0.4-1-0.9c-0.1-0.7-0.1-1.3-0.2-2c0-0.3-0.4-0.6-0.7-0.7c-0.3,0-0.7-0.1-1-0.1
		c-3.9,0-7.9,0-11.8,0c-0.4,0-0.8,0-1.2,0.1c-0.2,0.1-0.5,0.3-0.5,0.5c-0.1,0.5-0.1,1-0.1,1.5c0,1.4-0.3,1.5-1.7,1.6
		c-0.3,0-0.5,0-0.8,0c-1,0.1-1.3,0.4-1.3,1.5c0,0.8,0,1.5,0,2.3c0,7.8,0,15.6,0,23.4c0,0.8-0.1,1.5-0.1,2.3c0,0.3-0.4,0.6-0.7,0.7
		c-0.3,0-0.7,0.1-1,0.1c-2.4,0-4.9,0-7.3,0c-0.4,0-0.8,0-1.2-0.2c-0.2-0.1-0.4-0.3-0.5-0.5c-0.1-0.2-0.2-0.5-0.2-0.7
		c0-0.8,0-1.5,0-2.3C550.7,45.9,550.7,40.2,550.7,34.5z"/>
	<path class="st0" d="M301.1,34.6c0-5.8,0-11.6,0-17.3c0-0.8,0.1-1.7,0.2-2.5c0-0.3,0.4-0.6,0.7-0.6c1.8,0,3.7,0,5.5,0
		c0.4,0,0.7,0.4,0.7,0.8c0,1.1,0,2.2,0,3.3c0,0.8,0,1.7,0.1,2.5c0,0.4,0.4,0.8,0.8,0.8c0.8,0,1.7,0,2.5,0c0.3,0,0.7-0.3,0.7-0.6
		c0.1-0.7,0.1-1.5,0.2-2.3c0-0.3,0.3-0.6,0.7-0.6c0.7,0,1.3-0.1,2-0.1c0.6,0,0.9-0.4,1-1c0-0.1,0-0.2,0-0.2c0.1-2.9,0.3-2.6,3-2.6
		c4.3,0,8.6,0,12.9,0c0.7,0,1.3,0,2,0.1c0.3,0,0.7,0.3,0.7,0.6c0.1,0.7,0.1,1.5,0.2,2.2c0,0.4,0.4,0.8,0.8,0.9c0.1,0,0.2,0,0.2,0
		c0.8,0.2,1.8-0.3,2.4,0.4c0.5,0.6,0.2,1.5,0.3,2.2c0,0.2,0,0.4,0.1,0.5c0.1,0.2,0.3,0.4,0.5,0.5c0.7,0.1,1.5,0.1,2.3,0.2
		c0.4,0,0.8,0.4,0.9,0.8c0,0.5,0.1,1,0.1,1.5c0,9.6,0,19.3,0,28.9c0,2.3-0.1,2.4-2.4,2.4c-1.3,0-2.7,0-4-0.1c-0.4,0-0.8-0.4-0.8-0.8
		c0-0.8-0.1-1.5-0.1-2.3c0-6.6,0-13.2,0-19.9c0-0.8,0-1.7-0.1-2.5c0-0.3-0.3-0.7-0.6-0.7c-0.8-0.1-1.5-0.1-2.3-0.2
		c-0.3,0-0.7-0.3-0.7-0.6c-0.1-0.8-0.1-1.7-0.1-2.5c0-1.2-0.1-2.3-0.1-3.5c0-0.4-0.4-0.8-0.8-0.8c-0.4,0-0.8,0-1.3,0
		c-3.7,0-7.4,0-11.1,0c-0.5,0-1,0.1-1.5,0.1c-0.3,0-0.6,0.4-0.6,0.7c0,0.4-0.1,0.8-0.1,1.2c0,0.3,0,0.5,0,0.8c0,0.5-0.3,0.8-0.8,0.9
		c-0.7,0.1-1.3,0.1-2,0.2c-0.4,0-0.8,0.4-0.8,0.8c0,0.8-0.1,1.7-0.1,2.5c0,7.9,0,15.8,0,23.6c0,0.8,0,1.5-0.1,2.3
		c0,0.4-0.4,0.8-0.8,0.8c-3,0-6,0-9.1,0c-0.5,0-0.9-0.4-1-1c0-0.8-0.1-1.7-0.1-2.5C301.1,46,301.1,40.3,301.1,34.6z"/>
	<path class="st0" d="M365.4,34.7c0-3.4,0-6.7,0-10.1c0-0.7,0-1.3,0-2c0-0.6,0.3-1,0.9-1c0.3,0,0.7,0,1,0c1.7-0.1,1.7-0.1,1.8-1.6
		c0-0.4,0.1-0.8,0.1-1.2c0-0.3,0.4-0.7,0.7-0.7c0.6,0,1.2-0.1,1.8-0.1c1.3,0,2.5,0,3.8,0c0.7,0,1.1-0.4,1.2-1c0.1-0.7,0.1-1.3,0.2-2
		c0-0.4,0.4-0.7,0.9-0.8c0.4,0,0.8,0,1.3,0c4.7,0,9.4,0,14.1,0c0.5,0,1,0,1.5,0.1c0.3,0,0.6,0.4,0.7,0.7c0,0.5,0.1,1,0.1,1.5
		c0,0.3,0,0.7,0.2,1c0.1,0.2,0.3,0.4,0.5,0.5c0.4,0.1,0.8,0.1,1.2,0.1c1.3,0,2.5,0,3.8,0c0.4,0,0.8,0.1,1.2,0.1
		c0.3,0,0.4,0.3,0.5,0.5c0.1,0.5,0.1,1,0.2,1.5c0.1,1.4,0.1,1.5,1.7,1.5c0.4,0,0.8,0,1.3,0.1c0.3,0,0.7,0.3,0.7,0.6
		c0,0.2,0.1,0.5,0.1,0.7c-0.2,7.5,1.4,5.7-6.4,5.8c-0.3,0-0.7-0.3-0.7-0.6c-0.1-0.7-0.1-1.5-0.2-2.2c0-0.4-0.4-0.8-0.8-0.8
		c-0.2,0-0.3,0-0.5-0.1c-2.4-0.1-2.4,0-2.4-2.4c0-0.2,0-0.5-0.1-0.7c-0.1-0.2-0.3-0.4-0.5-0.5c-0.3-0.1-0.7-0.1-1-0.1
		c-5.3,0-10.6,0-15.9,0c-0.4,0-0.8,0.1-1.2,0.2c-0.1,0-0.3,0.2-0.3,0.3c-0.1,0.2-0.1,0.5-0.1,0.7c0,0.9,0,1.8,0,2.8
		c0,0.8,0,1.7,0,2.5c0,0.6-0.3,0.9-0.9,1c-0.7,0-1.3,0.1-2,0.1c-0.3,0-0.6,0.3-0.7,0.6c0,0.2-0.1,0.5-0.1,0.7c0,2.8,0,5.7,0,8.5
		c0,0.3,0,0.5,0,0.8c0,0.4,0.4,0.8,0.8,0.8c0.7,0.1,1.3,0.1,2,0.1c0.5,0,0.8,0.3,0.8,0.8c0,0.6,0,1.2,0.1,1.8c0,0.6,0.4,1,0.9,1
		c0.7,0,1.3,0,2,0.1c0.4,0,0.8,0.4,0.8,0.8c0.1,0.8,0.1,1.5,0.2,2.3c0,0.2,0.4,0.7,0.7,0.7c0.4,0,0.8,0.1,1.3,0.1
		c3.8,0,7.6,0,11.3,0c0.2,0,0.3,0,0.5,0c1.2,0,1.5-0.3,1.6-1.4c0-0.6,0.1-1.2,0.1-1.8c0-0.3,0.3-0.6,0.7-0.6c0.8,0,1.5-0.1,2.3-0.1
		c0.3,0,0.6-0.4,0.6-0.7c0.1-0.7,0.1-1.3,0.2-2c0.1-0.5,0.4-0.8,0.8-0.8c1.8,0,3.7,0,5.5,0c0.4,0,0.7,0.4,0.7,0.9c0,1.6,0,3.2,0,4.8
		c0,1.1-0.2,1.3-1.3,1.4c-0.3,0-0.5,0-0.8,0c-1.4,0.1-1.5,0.3-1.6,1.7c0,0.4,0,0.8-0.1,1.3c0,0.6-0.4,0.9-1,0.9c-0.8,0-1.7,0-2.5,0
		c-0.9,0-1.8,0-2.8,0c-0.2,0-0.5,0.1-0.7,0.2c-0.1,0.1-0.3,0.2-0.3,0.3c-0.1,0.4-0.2,0.8-0.2,1.2c0,1.8-0.4,1.9-1.9,1.9
		c-5,0-9.9,0-14.9,0c-0.3,0-0.5,0-0.8,0c-0.6,0-1-0.4-1-0.9c-0.1-0.5-0.1-1-0.1-1.5c-0.1-1-0.3-1.2-1.2-1.2c-1.3,0-2.5,0-3.8,0
		c-0.6,0-1.2,0-1.8-0.1c-0.3,0-0.6-0.4-0.7-0.7c-0.1-0.7-0.1-1.3-0.2-2c-0.1-0.7-0.4-1-1.2-1.1c-0.6-0.1-1.2-0.1-1.8-0.1
		c-0.4,0-0.7-0.4-0.8-0.9c0-0.7,0-1.3,0-2C365.4,41.4,365.4,38,365.4,34.7z"/>
	<path class="st0" d="M6,34.6c0-3.4,0-6.9,0-10.3c0-0.7,0.1-1.3,0.1-2c0-0.3,0.4-0.6,0.7-0.7c0.8-0.1,1.5-0.1,2.3-0.2
		c0.3,0,0.6-0.4,0.6-0.7c0-0.3,0.1-0.7,0.1-1c0-1.8,0.1-1.9,2.1-1.9c1.3,0,2.7,0,4,0c0.2,0,0.5-0.1,0.7-0.1c0.3,0,0.6-0.4,0.6-0.7
		c0-0.8,0.1-1.5,0.1-2.3c0-0.4,0.4-0.7,0.8-0.8c0.4,0,0.8,0,1.3,0c4.8,0,9.6,0,14.4,0c0.4,0,0.8,0,1.3,0.1c0.3,0,0.7,0.3,0.7,0.6
		c0,0.5,0.1,1,0.1,1.5c0,0.3,0,0.5,0.1,0.8c0,0.4,0.4,0.8,0.8,0.9c0.5,0,1,0.1,1.5,0.1c1.1,0,2.2,0,3.3,0c0.4,0,0.8,0.1,1.3,0.1
		c0.3,0,0.6,0.3,0.6,0.7c0,0.7,0.1,1.3,0.1,2c0,0.4,0.4,0.8,0.8,0.8c0.8,0,1.5,0.1,2.3,0.1c0.3,0,0.6,0.4,0.6,0.7
		c0,0.4,0.1,0.8,0.1,1.2c0,1.4,0,2.8,0,4.3c0,0.6-0.4,1-0.9,1c-3,0-6,0-9.1,0c-0.6,0-0.9-0.4-0.9-1c0-0.9-0.1-1.8-0.1-2.8
		c0-0.8,0-1.7,0-2.5c0-0.9-0.3-1.2-1.2-1.3c-0.3,0-0.7,0-1,0c-5,0-9.9,0-14.9,0c-0.4,0-0.8,0-1.3,0.1c-0.4,0-0.8,0.4-0.8,0.8
		c0,0.5,0,1-0.1,1.5c-0.1,0.9-0.3,1.2-1.2,1.3c-0.1,0-0.2,0-0.3,0c-2.5,0-2.4,0.4-2.4,2.4c0,4.8,0,9.6,0,14.3c0,0.4,0,0.8,0,1.3
		c0,0.9,0.4,1.1,1,1.1c0.7,0.1,1.3,0.1,2,0.1c0.3,0,0.6,0.4,0.7,0.7c0,0.2,0.1,0.5,0.1,0.7c0,0.5,0,1,0.1,1.5c0,0.4,0.4,0.8,0.8,0.8
		c0.4,0,0.8,0.1,1.3,0.1c5,0,9.9,0,14.9,0c0.5,0,1,0,1.5-0.1c0.2,0,0.5-0.3,0.5-0.5c0.1-0.5,0.2-1,0.2-1.5c0-1.2,0-2.3,0-3.5
		c0-0.4,0.1-0.8,0.2-1.2c0.1-0.2,0.3-0.4,0.5-0.5c0.1-0.1,0.3-0.1,0.5-0.1c2.9,0,5.9,0,8.8,0c0.1,0,0.2,0,0.3,0
		c0.3,0,0.7,0.4,0.7,0.6c0,0.2,0.1,0.3,0.1,0.5c0,1.7,0,3.3,0,5c0,0.4-0.4,0.8-0.8,0.8c-0.7,0.1-1.5,0.1-2.2,0.2
		c-0.3,0-0.6,0.4-0.7,0.7c0,0.6-0.1,1.2-0.1,1.8c-0.1,1.1-0.2,1.2-1.4,1.2c-1.1,0-2.2,0-3.3,0c-0.7,0-1.3,0-2,0.1
		c-0.4,0-0.8,0.4-0.8,0.8c-0.1,0.7-0.1,1.3-0.1,2c0,0.3-0.3,0.7-0.6,0.7c-0.5,0.1-1,0.1-1.5,0.1c-4.7,0-9.4,0-14.1,0
		c-0.5,0-1-0.1-1.5-0.1c-0.3,0-0.6-0.4-0.6-0.7c0-0.5-0.1-1-0.1-1.5c0-0.2-0.1-0.5-0.1-0.7c0-0.3-0.4-0.6-0.7-0.6
		c-0.6,0-1.2-0.1-1.8-0.1c-1.4,0-2.9,0-4.3-0.1c-0.3,0-0.6-0.3-0.6-0.6c0-0.2,0-0.5-0.1-0.8c0-0.5,0-1-0.1-1.5
		c0-0.3-0.4-0.7-0.6-0.7c-0.7-0.1-1.5-0.2-2.2-0.3c-0.3,0-0.7-0.3-0.7-0.6c-0.1-0.7-0.1-1.3-0.1-2C6,41.5,6,38.1,6,34.6z"/>
	<path class="st0" d="M293.1,34.7c0,6,0,12.1,0,18.1c0,2.4,0,2.4-2.3,2.4c-1.1,0-2.2,0-3.3,0c-0.2,0-0.5-0.1-0.7-0.1
		c-0.3,0-0.6-0.4-0.7-0.7c-0.1-0.7-0.2-1.5-0.3-2.2c0-0.3-0.4-0.6-0.7-0.6c-2.1,0-4.2,0-6.3,0c-0.4,0-0.8,0.4-0.8,0.8
		c0,0.7-0.1,1.3-0.1,2c0,0.3-0.3,0.6-0.6,0.7c-0.2,0-0.3,0.1-0.5,0.1c-4,0-8.1,0-12.1,0c-0.2,0-0.3,0-0.5-0.1
		c-0.4-0.1-0.8-0.4-0.9-0.8c-0.1-0.7-0.1-1.3-0.2-2c0-0.4-0.4-0.8-0.8-0.8c-1.6,0-3.2,0-4.8-0.1c-0.4,0-0.8,0-1.2-0.1
		c-0.1,0-0.3-0.2-0.4-0.3c-0.1-0.2-0.2-0.5-0.2-0.7c0-0.8-0.1-1.7-0.1-2.5c0-10,0-20.1,0-30.1c0-0.8,0-1.7,0.1-2.5
		c0-0.7,0.4-1.1,1.1-1.1c1.8,0,3.5,0,5.3,0c0.3,0,0.6,0.3,0.7,0.6c0,0.8,0.1,1.5,0.1,2.3c0,8,0,15.9,0,23.9c0,0.8,0,1.7,0.1,2.5
		c0,0.4,0.4,0.8,0.8,0.8c0.6,0,1.2,0,1.8,0.1c0.9,0,1.1,0.3,1.2,1.3c0,0.6,0,1.2,0.1,1.8c0,0.4,0.4,0.7,0.9,0.8
		c0.3,0,0.5,0.1,0.8,0.1c2.8,0,5.5,0,8.3,0c0.3,0,0.5,0,0.8-0.1c0.4,0,0.8-0.4,0.8-0.8c0.1-0.5,0.1-1,0.1-1.5c0-0.2,0.1-0.5,0.1-0.7
		c0-0.3,0.4-0.7,0.7-0.7c0.8,0,1.5-0.1,2.3-0.1c0.9,0,1.8,0,2.8,0c1.5,0,1.7-0.2,1.7-1.8c0-0.8,0-1.5,0-2.3c0-7.5,0-15.1,0-22.6
		c0-0.8,0-1.7,0.1-2.5c0-0.6,0.4-0.9,0.9-1c0.5,0,1,0,1.5,0c3.6,0,4.3,0,4.4,0.4c0.4,1.4,0.2,2.8,0.2,4.2
		C293.1,24,293.1,29.4,293.1,34.7z"/>
	<path class="st0" d="M463.7,36.4c0-4,0-8,0-12.1c0-0.8-0.1-1.5-0.1-2.3c0-0.3-0.4-0.6-0.7-0.7c-0.3,0-0.7-0.1-1-0.1
		c-0.9,0-1.8,0-2.8,0c-0.7,0-1.3,0-2,0c-0.6,0-1-0.3-1-0.9c0-0.6,0-1.2,0-1.8c0-3.9,0-4.3,0.4-4.4c1.4-0.5,2.8-0.1,4.2-0.2
		c0.8,0,1.5-0.1,2.3-0.1c0.3,0,0.6-0.4,0.6-0.7c0-1.6,0-3.2,0.1-4.8c0-0.5,0.1-1,0.1-1.5c0-0.1,0.2-0.3,0.3-0.4
		c0.1-0.1,0.3-0.1,0.5-0.1c1.8,0,3.5,0,5.3,0c0.5,0,0.9,0.4,1,1c0,1.1,0,2.2,0.1,3.3c0,0.8,0,1.7,0.1,2.5c0,0.3,0.3,0.7,0.6,0.7
		c0.6,0,1.2,0.1,1.8,0.1c2.4,0,4.7,0,7.1,0c0.4,0,0.8,0,1.2,0.1c0.1,0,0.3,0.2,0.3,0.3c0.1,0.1,0.1,0.3,0.1,0.5c0,1.8,0,3.7,0,5.5
		c0,0.5-0.3,0.8-0.8,0.8c-0.7,0-1.3,0-2,0c-2.2,0-4.4,0-6.6,0c-0.4,0-0.8,0-1.2,0.1c-0.2,0.1-0.4,0.3-0.5,0.5
		c-0.1,0.8-0.1,1.7-0.1,2.5c0,6.8,0,13.6,0,20.4c0,0.6,0,1.2,0,1.8c0,0.2,0.1,0.5,0.1,0.7c0,0.3,0.4,0.6,0.7,0.7
		c0.5,0,1,0.1,1.5,0.1c2,0,4,0,6,0c0.7,0,1.3,0,2,0c0.5,0,0.9,0.3,0.9,0.7c0,1.8,0,3.7,0,5.5c0,0.3-0.3,0.6-0.6,0.7
		c-0.4,0-0.8,0.1-1.2,0.1c-3.6,0-7.2,0-10.8,0c-0.3,0-0.7,0-1-0.1c-0.4,0-0.8-0.4-0.9-0.8c-0.1-0.7-0.1-1.3-0.2-2
		c-0.1-0.5-0.4-0.8-0.8-0.8c-0.2,0-0.3,0-0.5,0c-2.5,0-2.4,0.1-2.4-2.6C463.7,44.8,463.7,40.6,463.7,36.4z"/>
	<path class="st0" d="M486.4,34.5c0-5.8,0-11.5,0-17.3c0-0.8,0-1.5,0-2.3c0-0.5,0.4-0.9,1-0.9c3,0,6,0,9.1,0c0.5,0,0.8,0.3,0.8,0.8
		c0,0.6,0.1,1.2,0.1,1.8c0,12,0,23.9,0,35.9c0,0.6,0,1.2,0,1.8c0,0.5-0.4,0.9-1,0.9c-0.5,0-1,0.1-1.5,0.1c-2,0-4,0-6,0
		c-0.5,0-1,0-1.5-0.1c-0.4,0-0.8-0.4-0.8-0.8c0-0.7-0.1-1.3-0.1-2c0-3.2,0-6.4,0-9.5C486.4,40.1,486.4,37.3,486.4,34.5z"/>
	<path class="st0" d="M350.2,34.2c0-5.9,0-11.9,0-17.8c0-2.4-0.1-2.4,2.3-2.4c1.3,0,2.7,0,4,0c0.4,0,0.8,0.4,0.8,0.8
		c0,0.5,0.1,1,0.1,1.5c0,12.1,0,24.3,0,36.4c0,2.3-0.2,2.4-2.4,2.4c-1.3,0-2.7,0-4-0.1c-0.4,0-0.8-0.4-0.8-0.8
		c0-0.8-0.1-1.5-0.1-2.3C350.2,46.1,350.2,40.2,350.2,34.2z"/>
	<path class="st0" d="M610.8,49.8c0,1.5,0,3,0,4.5c0,0.5-0.3,0.8-0.8,0.9c-0.2,0-0.5,0.1-0.7,0.1c-2.6,0-5.2,0-7.8,0
		c-0.3,0-0.7,0-1-0.1c-0.2-0.1-0.4-0.3-0.5-0.5c-0.1-0.1-0.1-0.3-0.1-0.5c0-3,0-6,0-9c0-0.4,0.3-0.8,0.8-0.8c0.2,0,0.5,0,0.7,0
		c2.6,0,5.2,0,7.8,0c0.3,0,0.7,0,1,0.1c0.2,0.1,0.4,0.3,0.5,0.5c0.1,0.3,0.1,0.7,0.1,1C610.9,47.1,610.8,48.4,610.8,49.8
		C610.8,49.8,610.8,49.8,610.8,49.8z"/>
	<path class="st0" d="M491.9,2.8c1.3,0,2.5,0,3.8,0c0.3,0,0.7,0,1,0.1c0.3,0,0.6,0.3,0.7,0.6c0,0.5,0.1,1,0.1,1.5
		c-0.1,5.7,1,4.8-4.8,4.9c-1.4,0-2.8,0-4.3,0c-0.4,0-0.8-0.1-1.2-0.2c-0.2-0.1-0.4-0.3-0.5-0.5c0-0.1,0-0.2,0-0.2c0-1.8,0-3.7,0-5.5
		c0-0.3,0.3-0.6,0.6-0.6c1.1,0,2.2-0.1,3.2-0.1C490.9,2.8,491.4,2.8,491.9,2.8C491.9,2.8,491.9,2.8,491.9,2.8z"/>
	<path class="st0" d="M354,2.8c0.9,0,1.9,0.1,2.8,0.1c0.3,0,0.6,0.3,0.7,0.7c0,0.2,0.1,0.3,0.1,0.5c0,1.6,0,3.2,0,4.7
		c0,0.7-0.4,1.1-1.1,1.1c-1.8,0-3.5,0-5.3,0c-0.4,0-0.8-0.4-0.8-0.8c0-1.8,0-3.7,0-5.5c0-0.3,0.3-0.6,0.7-0.6
		C352,2.9,353,2.8,354,2.8z"/>
</g>
</svg>
