<?xml version="1.0" encoding="utf-8"?>
<!-- Generator: Adobe Illustrator 26.0.2, SVG Export Plug-In . SVG Version: 6.00 Build 0)  -->
<svg version="1.1" id="Layer_1" xmlns="http://www.w3.org/2000/svg" xmlns:xlink="http://www.w3.org/1999/xlink" x="0px" y="0px"
	 viewBox="0 0 310.2 17.2" style="enable-background:new 0 0 310.2 17.2;" xml:space="preserve">
<style type="text/css">
	.st0{fill:#333333;}
</style>
<g>
	<g>
		<g>
			<path class="st0" d="M16.3,5.3c0,3.4-1.8,4.9-5.7,4.9H2.8v6.6H0V0.4h10.6C14.5,0.4,16.3,1.9,16.3,5.3z M13.2,5.4
				c0-1.8-0.9-2.5-2.9-2.5H2.9v5h7.4C12.2,7.9,13.2,7.1,13.2,5.4z"/>
			<path class="st0" d="M30,13.1h-9.5l-1.8,3.7h-3l8-16.4h3.3l7.9,16.4h-3.1L30,13.1z M28.8,10.7l-3.6-7.6h-0.1l-3.6,7.6H28.8z"/>
			<path class="st0" d="M37.1,16.8V0.4H40v13.9h11.8v2.5H37.1z"/>
			<path class="st0" d="M57.2,7h11.2v2.4H57.2v4.9h11.8v2.5H54.4V0.4h14.4v2.5H57.2V7z"/>
			<path class="st0" d="M88.4,12.2c0,3.2-1.8,4.7-5.6,4.7H72.2V0.4h10.5c3.6,0,5.2,1.5,5.2,4.2c0,1.8-0.6,2.9-1.8,3.3V8
				C87.3,8.5,88.4,9.5,88.4,12.2z M84.8,5c0-1.5-0.8-2.2-2.5-2.2h-7.2v4.4h7.2C84,7.1,84.8,6.5,84.8,5z M85.4,11.9
				c0-1.8-0.9-2.5-2.9-2.5h-7.4v5h7.4C84.5,14.5,85.4,13.7,85.4,11.9z"/>
			<path class="st0" d="M91.6,16.8V0.4h2.8v13.9h11.8v2.5H91.6z"/>
			<path class="st0" d="M124.9,0.4v10.1c0,4.7-3.4,6.7-8.2,6.7s-8.2-2-8.2-6.7V0.4h2.9v10c0,3,2.2,4.4,5.4,4.4s5.4-1.3,5.4-4.4v-10
				H124.9z"/>
			<path class="st0" d="M131.6,7h11.2v2.4h-11.2v4.9h11.8v2.5h-14.7V0.4h14.4v2.5h-11.5L131.6,7L131.6,7z"/>
		</g>
		<g>
			<path class="st0" d="M163.5,8.6c0,5.8-3.2,8.2-8.6,8.2h-8.3V0.4h8.3C160.3,0.4,163.5,2.8,163.5,8.6z M149.5,2.8v11.6h4.9
				c3.7,0,6-1.7,6-5.8s-2.3-5.8-6-5.8L149.5,2.8L149.5,2.8z"/>
			<path class="st0" d="M184.6,8.6c0,5.8-4.2,8.6-9.4,8.6s-9.4-2.8-9.4-8.6c0-5.8,4.2-8.6,9.4-8.6C180.5,0,184.6,2.8,184.6,8.6z
				 M181.5,8.6c0-4.2-2.8-6.1-6.3-6.1s-6.3,2-6.3,6.1s2.8,6.2,6.3,6.2C178.8,14.8,181.5,12.8,181.5,8.6z"/>
			<path class="st0" d="M202.5,2.9h-6.9v13.9h-2.9V2.9h-6.9V0.4h16.7L202.5,2.9L202.5,2.9z"/>
			<path class="st0" d="M202.1,13.7h3.4v3.1h-3.4V13.7z"/>
			<path class="st0" d="M216,2.3c-2.6,0-4.4,0.7-4.4,2.4c0,1.4,1,1.8,2.5,2l5.9,0.7c2.5,0.3,4.6,1.3,4.6,4.6c0,3.8-3.4,5.2-8.3,5.2
				c-4.6,0-8.3-1.3-8.4-6h3.1c0.1,2.9,2.5,3.6,5.4,3.6c3.1,0,5.1-0.9,5.1-2.7c0-1.7-1.1-2.1-2.7-2.3L213,9.2
				c-2.5-0.3-4.5-1.3-4.5-4.3c0-3.4,3.2-4.9,7.5-4.9c4.3,0,7.9,1.3,8,5.4H221C220.9,2.9,218.6,2.3,216,2.3z"/>
			<path class="st0" d="M242.8,2.9h-6.9v13.9H233V2.9h-6.9V0.4h16.7V2.9z"/>
			<path class="st0" d="M261.6,0.4v10.1c0,4.7-3.4,6.7-8.2,6.7s-8.2-2-8.2-6.7V0.4h2.9v10c0,3,2.2,4.4,5.4,4.4s5.4-1.3,5.4-4.4v-10
				H261.6z"/>
			<path class="st0" d="M282.4,8.6c0,5.8-3.2,8.2-8.6,8.2h-8.3V0.4h8.3C279.1,0.4,282.4,2.8,282.4,8.6z M268.3,2.8v11.6h4.9
				c3.7,0,6-1.7,6-5.8s-2.3-5.8-6-5.8L268.3,2.8L268.3,2.8z"/>
			<path class="st0" d="M285.5,16.8V0.4h2.9v16.4H285.5z"/>
			<path class="st0" d="M310.2,8.6c0,5.8-4.2,8.6-9.4,8.6s-9.4-2.8-9.4-8.6c0-5.8,4.2-8.6,9.4-8.6C306,0,310.2,2.8,310.2,8.6z
				 M307.1,8.6c0-4.2-2.8-6.1-6.3-6.1s-6.3,2-6.3,6.1s2.8,6.2,6.3,6.2C304.3,14.8,307.1,12.8,307.1,8.6z"/>
		</g>
	</g>
</g>
</svg>
