<?xml version="1.0" encoding="utf-8"?>
<!-- Generator: Adobe Illustrator 26.0.2, SVG Export Plug-In . SVG Version: 6.00 Build 0)  -->
<svg version="1.1" id="Layer_1" xmlns="http://www.w3.org/2000/svg" xmlns:xlink="http://www.w3.org/1999/xlink" x="0px" y="0px"
	 viewBox="0 0 589 69" style="enable-background:new 0 0 589 69;" xml:space="preserve">
<style type="text/css">
	.st0{fill:#0000FF;}
</style>
<g>
	<path class="st0" d="M6.5,28.3c0-7.6,0-15.3,0-22.9c0-0.8,0-1.7,0.1-2.5c0-0.3,0.3-0.7,0.6-0.7c0.5,0,1-0.1,1.5-0.1
		c13.5,0,27.1,0,40.6,0c0.5,0,1,0,1.5,0.1c0.3,0,0.6,0.4,0.7,0.7c0,0.2,0.1,0.5,0.1,0.7c0,2.7,0,5.4,0,8c0,0.2-0.1,0.5-0.1,0.7
		c0,0.2-0.4,0.6-0.7,0.7c-0.8,0-1.7,0.1-2.5,0.1c-7.3,0-14.6,0-21.9,0c-2,0-4,0-6.1,0c-0.6,0-1.2,0-1.8,0.1c-0.6,0-1,0.4-1,1
		c0,0.3,0,0.7-0.1,1c0,2.6,0,5.2,0,7.8c0,0.3,0,0.5,0,0.8c0,0.6,0.4,1,0.9,1c0.7,0,1.3,0,2,0c5.3,0,10.6,0,15.9,0
		c4.5,0,8.9,0,13.4,0c1.5,0,1.9,0.1,1.9,1.9c0,1.3,0,2.5,0,3.8c0,0.3-0.1,0.7-0.1,1c0,0.3-0.3,0.6-0.7,0.6c-0.8,0-1.7,0-2.5,0
		c-9.1,0-18.2,0-27.2,0c-0.8,0-1.5,0-2.3,0c-0.9,0-1.2,0.3-1.3,1.2c0,0.4,0,0.8,0,1.3c0,3.5,0,7,0,10.6c0,0.5,0,1,0.1,1.5
		c0,0.4,0.4,0.8,0.8,0.8c0.8,0,1.7,0,2.5,0c10.4,0,20.8,0,31.3,0c3.4,0,3.1-0.3,3.1,3.1c0,1.2,0,2.3-0.1,3.5c0,0.3-0.3,0.6-0.7,0.6
		c-0.7,0-1.3,0.1-2,0.1c-14.5,0-28.9,0-43.4,0c-0.3,0-0.7,0-1,0c-1.5,0-1.7-0.1-1.7-1.8c0-6.1,0-12.2,0-18.4
		C6.5,32.5,6.5,30.4,6.5,28.3z"/>
	<path class="st0" d="M104.8,41.6c0-7.1,0-14.2,0-21.4c0-0.8,0-1.5,0.1-2.3c0-0.3,0.4-0.6,0.7-0.6c0.1,0,0.2,0,0.2,0c3,0,6,0,9.1,0
		c0.5,0,0.8,0.3,0.8,0.8c0.1,0.8,0.1,1.5,0.1,2.3c0,0.3,0.4,0.6,0.6,0.7c0.9,0.2,1.8,0.2,2.7,0c0.3-0.1,0.6-0.4,0.6-0.7
		c0-0.8,0.1-1.5,0.1-2.3c0-0.3,0.3-0.7,0.6-0.7c0.4,0,0.8-0.1,1.3-0.1c6.1,0,12.3,0,18.4,0c0.4,0,0.8,0,1.3,0.1
		c0.3,0,0.6,0.4,0.7,0.6c0,0.3,0.1,0.7,0.1,1c0,0.4,0,0.8,0.1,1.3c0,0.4,0.4,0.8,0.8,0.8c0.7,0.1,1.3,0.1,2,0.1
		c0.5,0,0.8,0.3,0.8,0.8c0,0.5,0.1,1,0.1,1.5c0,1,0.4,1.3,1.4,1.3c0.5,0,1,0,1.5,0c0.4,0,0.8,0.4,0.8,0.8c0,0.4,0.1,0.8,0.1,1.3
		c0,4.8,0,9.6,0,14.3c0,0.3,0,0.7,0,1c0,0.7-0.4,1-1.1,1.1c-0.5,0-1,0-1.5,0.1c-0.8,0.1-1.1,0.4-1.2,1.3c0,1.5,0,3,0,4.5
		c0,0.3,0,0.7-0.1,1c-0.1,0.2-0.2,0.5-0.5,0.5c-0.7,0.1-1.5,0.2-2.2,0.3c-0.4,0.1-0.7,0.4-0.8,0.9c0,0.2,0,0.3,0,0.5
		c0,2.6-0.2,2.4-2.4,2.4c-5.9,0-11.8,0-17.6,0c-0.5,0-1,0-1.5,0c-0.5,0-0.8-0.3-0.8-0.7c0-0.7-0.1-1.3-0.1-2c0-0.6-0.4-0.9-1-1
		c-0.4,0-0.8-0.1-1.3-0.1c-1.7,0-1.9,0.4-1.9,1.9c0,3.3,0,6.5,0,9.8c0,0.8,0,1.5,0,2.3c0,0.8-0.5,1-1.1,1.1c-0.3,0-0.7,0-1,0
		c-2.4,0-4.7,0-7.1,0c-0.3,0-0.7-0.1-1-0.1c-0.3,0-0.6-0.4-0.7-0.7c0-0.8-0.1-1.5-0.1-2.3C104.8,55.8,104.8,48.7,104.8,41.6z
		 M126.9,24.4c-0.9,0.3-1.7,0.2-2.6,0.2c-1.3,0-2.5,0-3.8,0.1c-0.5,0-0.8,0.3-0.8,0.8c-0.1,0.7-0.1,1.3-0.1,2c0,0.4-0.4,0.8-0.8,0.8
		c-0.7,0.1-1.5,0.1-2.2,0.2c-0.3,0-0.6,0.4-0.6,0.7c0,0.5-0.1,1-0.1,1.5c0,3.6,0,7.2,0,10.8c0,2.1,0.1,2.4,2.4,2.4
		c0.2,0,0.3,0,0.5,0c0.5,0,0.8,0.3,0.8,0.8c0.1,0.7,0.1,1.5,0.2,2.2c0,0.3,0.3,0.4,0.5,0.5c0.3,0.1,0.7,0.1,1,0.1
		c5.3,0,10.6,0,15.9,0c0.3,0,0.7,0,1-0.1c0.3,0,0.6-0.4,0.6-0.7c0-0.8,0.1-1.5,0.1-2.3c0-1.1,0-2.2,0-3.3c0-0.9,0.4-1.2,1.2-1.3
		c0.6,0,1.2,0,1.8-0.1c0.3,0,0.7-0.3,0.7-0.6c0-2.1,0-4.2,0-6.3c0-0.1,0-0.2-0.1-0.2c-0.1-0.2-0.2-0.4-0.5-0.5c-0.3,0-0.7-0.1-1-0.1
		c-2,0-2.1-0.2-2.1-2.1c0-0.8,0-1.5,0-2.3c0-0.6,0-1.2,0-1.8c-0.1-1.2-0.4-1.3-1.3-1.4c-1.1,0-2.2,0-3.3,0c-0.7,0-1.3,0-2,0
		c-0.4,0-0.8-0.3-0.8-0.8c-0.1-0.7-0.1-1.5-0.2-2.2c0-0.2-0.2-0.5-0.4-0.6c-1-0.3-2-0.3-3,0c-0.2,0.1-0.4,0.3-0.5,0.5
		c-0.1,0.7-0.1,1.3-0.1,2C127.1,23.8,127,24.1,126.9,24.4z"/>
	<path class="st0" d="M445,28.6c0,7.7,0,15.4,0,23.1c0,0.8,0,1.5-0.1,2.3c0,0.3-0.3,0.7-0.6,0.7c-1.9,0-3.9,0-5.8,0
		c-0.3,0-0.7-0.3-0.7-0.6c0-0.4-0.1-0.8-0.1-1.3c0-1.6-0.2-1.9-1.9-1.9c-0.4,0-0.8,0-1.3,0.1c-0.6,0-1,0.4-1,1c0,0.7-0.1,1.3-0.1,2
		c0,0.5-0.3,0.7-0.8,0.8c-0.4,0-0.8,0-1.3,0c-6,0-11.9,0-17.9,0c-0.5,0-1,0-1.5-0.1c-0.3,0-0.7-0.3-0.7-0.6c-0.1-0.5-0.1-1-0.1-1.5
		c0-0.3,0-0.7-0.2-1c-0.1-0.2-0.3-0.5-0.5-0.5c-0.7-0.1-1.5-0.2-2.2-0.3c-0.4,0-0.8-0.4-0.8-0.8c0-0.7-0.1-1.3-0.1-2
		c0-0.4-0.4-0.8-0.8-0.8c-0.7,0-1.3-0.1-2-0.1c-0.4,0-0.8-0.4-0.8-0.8c0-0.8-0.1-1.5-0.1-2.3c0-2,0-4,0-6c0-0.3,0-0.7,0-1
		c-0.1-0.7-0.4-1.1-1.1-1.2c-0.6-0.1-1.2-0.1-1.8-0.1c-0.2,0-0.3-0.1-0.5-0.1c-0.1-0.1-0.3-0.2-0.3-0.4c0-0.7,0-1.5,0-2.2
		c0-0.3,0.3-0.6,0.7-0.6c0.7,0,1.3,0,2-0.1c0.6,0,0.9-0.4,0.9-1c0-0.2,0-0.3,0-0.5c0-0.9,0-1.8,0-2.8c0-0.7,0-1.3,0-2
		c0-0.9,0.4-1.2,1.2-1.3c0.6,0,1.2-0.1,1.8-0.1c0.3,0,0.7-0.3,0.7-0.6c0.1-0.7,0.1-1.5,0.2-2.3c0-0.3,0.3-0.6,0.7-0.6
		c0.8-0.1,1.5-0.1,2.3-0.2c0.3,0,0.6-0.4,0.7-0.7c0.1-0.7,0.1-1.5,0.2-2.2c0.1-0.4,0.4-0.8,0.8-0.8c0.4,0,0.8,0,1.3,0
		c6,0,12.1,0,18.1,0c0.4,0,0.8,0,1.3,0.1c0.3,0,0.6,0.3,0.7,0.6c0,0.5,0.1,1,0.1,1.5c0,0.3,0,0.5,0,0.8c0,0.4,0.4,0.8,0.8,0.8
		c0.8,0,1.7,0,2.5,0c0.4,0,0.7-0.5,0.8-0.9c0-0.6,0-1.2,0-1.8c0-4.4,0-8.7,0-13.1c0-3.4-0.3-3.1,3.1-3.2c1.1,0,2.2,0,3.3,0
		c0.4,0,0.8,0.4,0.8,0.8c0,0.8,0.1,1.5,0.1,2.3C445,13.1,445,20.8,445,28.6z M424.3,47.5c2.4,0,4.9,0,7.3,0c0.5,0,1,0,1.5-0.1
		c0.3,0,0.6-0.4,0.7-0.7c0.1-0.7,0.2-1.5,0.3-2.2c0-0.3,0.4-0.6,0.7-0.6c0.7-0.1,1.3-0.1,2-0.1c0.4,0,0.8-0.4,0.9-0.8
		c0-0.4,0.1-0.8,0.1-1.2c0-3.8,0-7.5,0-11.3c0-0.4,0-0.8-0.1-1.3c0-0.3-0.4-0.7-0.6-0.7c-0.7-0.1-1.5-0.2-2.2-0.3
		c-0.3,0-0.6-0.4-0.7-0.6c-0.1-0.7-0.2-1.5-0.3-2.2c0-0.3-0.4-0.6-0.7-0.7c-0.5,0-1-0.1-1.5-0.1c-1.1,0-2.2,0-3.3,0
		c-1.8,0-1.9,0-2-1.7c-0.1-2-0.4-2.1-2.3-2.1c-0.3,0-0.7,0-1,0.1c-0.4,0-0.8,0.4-0.8,0.8c0,0.4,0,0.8-0.1,1.3
		c-0.1,1.5-0.2,1.6-1.8,1.6c-1.3,0-2.5,0-3.8,0c-0.4,0-0.8,0-1.3,0.1c-0.3,0-0.6,0.4-0.6,0.7c0,0.6-0.1,1.2-0.1,1.8
		c-0.1,0.8-0.4,1.1-1,1.2c-0.4,0-0.8,0-1.3,0.1c-0.2,0-0.5,0.1-0.7,0.1c-0.3,0.1-0.6,0.4-0.7,0.7c0,0.2-0.1,0.5-0.1,0.7
		c0,4.1,0,8.2,0,12.3c0,0.2,0,0.5,0.1,0.7c0,0.4,0.4,0.8,0.8,0.8c0.8,0.1,1.5,0.1,2.3,0.2c0.3,0,0.6,0.4,0.6,0.7
		c0.1,0.7,0.1,1.3,0.1,2c0,0.5,0.3,0.8,0.8,0.8c0.6,0,1.2,0.1,1.8,0.1C419.6,47.5,422,47.5,424.3,47.5z"/>
	<path class="st0" d="M193.4,54.7c-3.6,0-7.2,0-10.8,0c-0.5,0-1,0-1.5-0.1c-0.2,0-0.5-0.3-0.5-0.5c-0.1-0.7-0.1-1.5-0.2-2.2
		c0-0.5-0.4-0.9-1-1c-1,0-2-0.1-3-0.1c-0.8,0-1.7,0-2.5-0.1c-0.6,0-1-0.4-1-0.9c0-1,0-2,0-3c0-0.8,0-1.7,0-2.5c0-0.5-0.4-0.9-1-1
		c-0.6-0.1-1.2-0.1-1.8-0.1c-0.5-0.1-0.9-0.5-0.9-1c0-0.5-0.1-1-0.1-1.5c0-3.2,0-6.4,0-9.5c0-0.5,0-1,0.1-1.5c0-0.6,0.4-0.9,0.9-1
		c0.7-0.1,1.3-0.1,2-0.2c0.3,0,0.6-0.4,0.7-0.7c0-0.7,0.1-1.5,0.1-2.2c0-1.3,0-2.5,0.1-3.8c0-0.3,0.3-0.6,0.6-0.7
		c0.8-0.1,1.5-0.1,2.3-0.2c0.3,0,0.6-0.4,0.7-0.7c0.1-0.5,0.1-1,0.2-1.5c0.1-1.5,0.3-1.6,1.9-1.6c1.1,0,2.2,0,3.3,0
		c2.7,0,5.4,0,8.1,0c0.4,0,0.8,0,1.2-0.1c0.2-0.1,0.5-0.3,0.5-0.5c0.1-0.7,0.2-1.5,0.3-2.2c0.1-0.4,0.4-0.8,0.9-0.8
		c0.6,0,1.2,0,1.8,0c0.3,0,0.6,0.4,0.7,0.7c0.1,0.6,0.1,1.2,0.1,1.7c0,0.2,0.1,0.5,0.1,0.7c0.1,0.1,0.2,0.3,0.4,0.3
		c0.5,0.1,1,0.1,1.5,0.1c2.4,0,4.7,0,7.1,0c0.5,0,1,0,1.5,0.1c0.3,0,0.6,0.3,0.6,0.7c0,0.6,0,1.2,0.1,1.8c0,0.2,0,0.5,0.1,0.7
		c0.1,0.2,0.3,0.5,0.5,0.5c0.7,0.1,1.3,0.1,2,0.2c0.8,0.1,1.1,0.3,1.2,1c0.1,0.8-0.3,1.8,0.4,2.4c0.6,0.5,1.5,0.2,2.2,0.3
		c0.2,0,0.4,0,0.5,0.1c0.2,0.1,0.4,0.3,0.5,0.5c0.1,0.3,0.1,0.7,0.1,1c0,6.4,0,12.9,0,19.3c0,0.2,0,0.5-0.1,0.7
		c0,0.3-0.3,0.6-0.6,0.7c-0.8,0-1.5,0.1-2.3,0.1c-0.3,0-0.6,0.3-0.7,0.6c-0.1,0.7-0.1,1.5-0.2,2.2c0,0.3-0.4,0.6-0.7,0.7
		c-0.7,0.1-1.5,0.1-2.2,0.2c-0.4,0-0.7,0.4-0.8,0.9c0,0.2,0,0.3,0,0.5c0,2.5,0.1,2.3-2.6,2.4C200.5,54.8,197,54.7,193.4,54.7z
		 M187.3,24.5c-0.4,0-0.9,0.1-1.4,0.1c-1.5,0-3,0-4.5,0c-0.8,0-1.1,0.3-1.1,1c0,0.3,0,0.7,0,1c0,5,0,10,0,15.1c0,0.3,0,0.5,0,0.8
		c0,0.9,0.3,1.2,1.2,1.3c0.6,0,1.2,0.1,1.8,0.1c0.3,0,0.6,0.3,0.7,0.6c0,0.7,0.1,1.3,0.1,2c0,0.5,0.4,0.9,1,0.9c0.5,0,1,0,1.5,0
		c4.7,0,9.4,0,14.1,0c0.5,0,1,0,1.5,0c0.7,0,1.1-0.4,1.1-1.1c0-0.9,0-1.8,0-2.8c0-0.9,0-1.8,0-2.8c0-0.6,0.4-0.9,1-0.9
		c0.7,0,1.3-0.1,2-0.1c0.3,0,0.6-0.4,0.7-0.7c0-0.2,0.1-0.5,0.1-0.7c0-2.8,0-5.7,0-8.5c0-1.3-0.3-1.5-1.7-1.6c-0.4,0-0.8,0-1.3-0.1
		c-0.4,0-0.7-0.4-0.8-0.8c0-0.5,0-1-0.1-1.5c-0.1-1-0.3-1.2-1.2-1.3c-0.3,0-0.7,0-1,0c-1.5,0-3,0-4.5,0c-0.5,0-0.8-0.3-0.8-0.8
		c0-0.7-0.1-1.5-0.2-2.2c0-0.2-0.3-0.4-0.5-0.5c-0.2-0.1-0.5-0.2-0.7-0.2c-1.8,0-3.5,0-5.3,0c-0.1,0-0.2,0-0.2,0
		c-0.6,0.1-1,0.4-1,0.9c0,0.5,0,1-0.1,1.5C187.7,23.7,187.7,24.1,187.3,24.5z"/>
	<path class="st0" d="M341,54.7c-3.5,0-7.1,0-10.6,0c-0.6,0-1.2,0-1.8-0.1c-0.2,0-0.5-0.3-0.5-0.5c-0.1-0.8-0.2-1.7-0.3-2.5
		c0-0.3-0.4-0.6-0.7-0.7c-0.3,0-0.7-0.1-1-0.1c-0.4,0-0.8-0.1-1.3-0.1c-0.3,0-0.6-0.4-0.7-0.7c0-0.6-0.1-1.2-0.1-1.8
		c0-0.8,0-1.5,0-2.3c0-2.5,0.2-2.7-2.6-2.8c-0.1,0-0.2,0-0.3,0c-0.4-0.1-0.8-0.4-0.8-0.8c-0.1-0.7-0.1-1.5-0.1-2.3c0-3,0-6,0-9
		c0-1.3,0-2.7,0-4c0-0.5,0-1,0.1-1.5c0-0.4,0.4-0.8,0.8-0.8c0.7,0,1.3-0.1,2-0.1c0.4,0,0.8-0.4,0.8-0.8c0-0.6,0-1.2,0.1-1.8
		c0-0.7,0.3-1,1.1-1c0.5,0,1,0,1.5-0.1c0.6-0.1,1-0.2,1.1-1.1c0.1-0.7,0.1-1.3,0.2-2c0-0.3,0.4-0.6,0.7-0.6c0.5,0,1-0.1,1.5-0.1
		c2.3,0,4.5,0,6.8,0c0.5,0,1,0,1.5-0.1c0.3,0,0.6-0.3,0.6-0.7c0-0.7,0.1-1.3,0.1-2c0-0.5,0.3-0.8,0.8-0.8c0.5,0,1,0,1.5,0
		c0.8,0,1,0.3,1.1,1.1c0,0.5,0,1,0.1,1.5c0,0.7,0.4,1,1.1,1c0.7,0,1.3,0,2,0c3.2,0,6.4,0,9.6,0c0.6,0,1.2,0,1.8,0.1
		c0.2,0,0.5,0.2,0.5,0.5c0.1,0.8,0.1,1.7,0.2,2.5c0,0.3,0.4,0.7,0.7,0.7c0.7,0.1,1.5,0.1,2.3,0.2c0.4,0,0.8,0.4,0.8,0.8
		c0,0.8,0.1,1.5,0.1,2.3c0,1,0,2,0,3c0,1,0.3,1.3,1.4,1.4c0.5,0,1,0,1.5,0.1c0.4,0,0.8,0.4,0.8,0.8c0,4.3,0,8.5,0,12.8
		c0,0.5-0.3,0.8-0.8,0.9c-0.2,0-0.3,0.1-0.5,0.1c-2.5,0.1-2.4,0.3-2.4,2.7c0,1.1,0,2.2,0,3.3c0,0.3,0,0.7-0.2,1
		c-0.1,0.2-0.3,0.4-0.5,0.5c-0.4,0.1-0.8,0.1-1.2,0.2c-1.3,0-2.5,0-3.8,0c-0.4,0-0.8,0.1-1.2,0.2c-0.2,0.1-0.5,0.3-0.5,0.5
		c-0.1,0.7-0.1,1.3-0.1,2c-0.1,0.8-0.3,1.1-1,1.1c-0.3,0-0.5,0-0.8,0c-0.5,0-1,0-1.5,0C347.6,54.7,344.3,54.7,341,54.7z M331.2,31.9
		c-0.9,0.3-1.7,0.1-2.6,0.2c-0.6,0.1-1,0.4-1,0.9c0,2,0,4,0,6c0,0.4,0.4,0.7,0.8,0.8c0.8,0.1,1.5,0.1,2.2,0.2c0.2,0,0.5,0.3,0.5,0.5
		c0.1,0.4,0.2,0.8,0.2,1.2c0,1.4,0,2.8,0,4.3c0,0.3,0.1,0.7,0.1,1c0,0.1,0.2,0.3,0.3,0.3c0.7,0.1,1.3,0.1,2,0.1c6,0,11.9,0,17.9,0
		c0.4,0,0.8,0,1.3,0c1.1,0,1.3-0.3,1.4-1.3c0-0.2,0-0.3,0-0.5c0-6.4,0-12.7,0-19.1c0-0.4-0.1-0.8-0.1-1.2c0-0.3-0.4-0.6-0.7-0.6
		c-0.4,0-0.8-0.1-1.3-0.1c-1.3,0-2.5,0-3.8,0c-0.3,0-0.7,0-1-0.1c-0.3,0-0.7-0.3-0.7-0.6c-0.1-0.7-0.1-1.5-0.1-2.2
		c0-0.4-0.4-0.8-0.8-0.8c-0.2,0-0.3-0.1-0.5-0.1c-1.8,0-3.5,0-5.3,0c-0.2,0-0.3,0.1-0.5,0.1c-0.2,0-0.6,0.4-0.6,0.7
		c0,0.6-0.1,1.2-0.1,1.8c-0.1,1-0.3,1.2-1.2,1.2c-1.3,0-2.5,0-3.8,0c-0.6,0-1.2,0-1.8,0.1c-0.4,0-0.8,0.4-0.8,0.8c0,0.4,0,0.8,0,1.3
		c0,1.3,0,2.7,0,4C331.4,31.1,331.3,31.5,331.2,31.9z"/>
	<path class="st0" d="M477.1,35.8c-4.5,0-8.9,0-13.4,0c-0.8,0-1.5,0-2.3,0c-1,0-1.3,0.4-1.3,1.4c0,1.7,0,3.4,0,5
		c0,0.2,0.1,0.5,0.1,0.7c0,0.3,0.4,0.6,0.7,0.7c0.9,0.3,2-0.3,2.6,0.5c0.6,0.6,0.2,1.6,0.3,2.4c0.1,0.4,0.4,0.8,0.8,0.8
		c0.4,0,0.8,0.1,1.3,0.1c5,0,10.1,0,15.1,0c0.4,0,0.8,0,1.3-0.1c0.3,0,0.7-0.3,0.7-0.6c0-0.7,0.1-1.3,0.1-2c0-0.6,0.4-0.9,1-0.9
		c3,0,6,0,9.1,0c0.5,0,0.8,0.3,0.8,0.8c0,0.4,0,0.8,0,1.3c0,1.1-0.2,1.3-1.3,1.3c-0.2,0-0.3,0-0.5,0c-1.8,0-1.8,0.2-1.9,1.8
		c0,0.3,0,0.5,0,0.8c-0.1,0.7-0.4,1.1-1.1,1.1c-2.8,0.1-2.7,0.2-2.7,2.7c0,0.2,0,0.5-0.1,0.7c0,0.1-0.2,0.3-0.3,0.3
		c-0.5,0.1-1,0.1-1.5,0.1c-4.3,0-8.6,0-12.9,0c-3.1,0-6.2,0-9.3,0c-0.4,0-0.8,0-1.3-0.1c-0.3,0-0.6-0.3-0.6-0.7c0-0.6,0-1.2-0.1-1.8
		c0-0.2,0-0.3,0-0.5c0-0.3-0.4-0.7-0.7-0.7c-0.7-0.1-1.5-0.2-2.2-0.3c-0.3,0-0.6-0.4-0.7-0.6c-0.1-0.7-0.2-1.5-0.3-2.2
		c0-0.3-0.4-0.6-0.7-0.7c-0.8,0-1.5-0.1-2.3-0.1c-0.3,0-0.6-0.3-0.7-0.6c0-0.4-0.1-0.8-0.1-1.3c0-6.1,0-12.2,0-18.4c0-0.3,0-0.7,0-1
		c0-0.8,0.3-1,1.1-1.1c0.3,0,0.5,0,0.8,0c1.7,0,1.9-0.1,1.9-1.8c0-0.3,0-0.5,0.1-0.8c0.1-0.7,0.4-1,1.1-1c0.3,0,0.7,0,1,0
		c1.3,0,1.5-0.4,1.6-1.7c0-0.5,0.1-1,0.1-1.5c0-0.3,0.3-0.6,0.7-0.6c0.8,0,1.5-0.1,2.3-0.1c2.2,0,4.4,0,6.6,0c1.5,0,1.6-0.1,1.7-1.5
		c0-0.3,0-0.7,0.1-1c0.1-0.8,0.4-1.1,1.3-1.1c0.4,0,0.8,0,1.3,0c0.4,0,0.7,0.4,0.8,0.8c0.1,0.7,0.1,1.3,0.1,2c0,0.3,0.3,0.7,0.6,0.7
		c0.6,0,1.2,0.1,1.8,0.1c2.3,0,4.5,0,6.8,0c0.4,0,0.8,0,1.3,0.1c0.3,0,0.6,0.3,0.7,0.6c0,0.5,0.1,1,0.1,1.5c0,0.3,0,0.5,0,0.8
		c0,0.4,0.4,0.8,0.8,0.9c0.8,0.1,1.5,0.1,2.3,0.2c0.3,0,0.6,0.4,0.6,0.7c0,0.2,0.1,0.5,0.1,0.7c0,0.4,0,0.8,0,1.3
		c0,0.6,0.4,0.9,1,0.9c0.5,0,1,0,1.5,0c0.8,0,1.1,0.3,1.1,1c0,3,0,6,0,9c0,0.5-0.3,0.8-0.8,0.8c-0.8,0-1.5,0.1-2.3,0.1
		C486.3,35.8,481.7,35.8,477.1,35.8z M473.3,32.4c3.5,0,7,0,10.6,0c0.7,0,1.3,0,2,0c0.5,0,0.8-0.3,0.9-0.8c0.1-0.8,0.1-1.7,0-2.5
		c-0.1-0.3-0.4-0.6-0.7-0.7c-0.7-0.1-1.5-0.1-2.2-0.2c-0.3,0-0.7-0.4-0.7-0.6c-0.1-0.7-0.1-1.5-0.2-2.2c0-0.3-0.4-0.6-0.7-0.6
		c-0.8-0.1-1.5-0.1-2.3-0.1c-0.3,0-0.6-0.3-0.7-0.7c0-0.2-0.1-0.3-0.1-0.5c0-0.6-0.1-1.2-0.1-1.7c0-0.4-0.4-0.8-0.8-0.8
		c-0.3,0-0.7-0.1-1-0.1c-2.5,0-5,0-7.6,0c-0.4,0-0.8,0-1.3,0.1c-0.4,0-0.8,0.4-0.8,0.8c-0.1,0.7-0.1,1.5-0.2,2.2
		c0,0.3-0.3,0.6-0.7,0.6c-0.2,0-0.3,0-0.5,0c-2.6,0-2.6-0.1-2.6,2.7c0,0.1,0,0.2,0,0.2c0,0.3-0.3,0.7-0.6,0.7
		c-0.7,0.1-1.5,0.2-2.2,0.2c-0.3,0-0.6,0.4-0.7,0.7c-0.1,0.9-0.2,1.8,0.1,2.7c0,0.2,0.3,0.4,0.5,0.5c0.6,0.1,1.2,0.1,1.8,0.1
		C466.1,32.4,469.7,32.4,473.3,32.4z"/>
	<path class="st0" d="M293.3,47.1c-0.2,0.1-0.4,0.1-0.6,0.1c-0.9,0.2-1.9-0.3-2.6,0.4c-0.6,0.6-0.2,1.6-0.4,2.4
		c-0.1,0.5-0.3,0.8-0.8,0.8c-0.3,0-0.5,0.1-0.8,0.1c-2,0-2.1,0.3-2.1,2.2c0,0.3-0.1,0.7-0.1,1c0,0.3-0.3,0.6-0.7,0.6
		c-0.5,0-1,0-1.5,0c-5,0-10.1,0-15.1,0c-2.3,0-4.5,0-6.8,0c-0.4,0-0.8,0-1.3-0.1c-0.2,0-0.5-0.3-0.5-0.5c-0.1-0.7-0.2-1.5-0.3-2.2
		c-0.1-0.6-0.4-0.9-1-0.9c-0.7-0.1-1.3-0.1-2-0.2c-0.3,0-0.6-0.4-0.6-0.7c0-0.4-0.1-0.8-0.1-1.3c0-1.4-0.2-1.7-1.8-1.7
		c-0.4,0-0.8,0-1.3-0.1c-0.2,0-0.4-0.3-0.5-0.5c-0.1-0.3-0.2-0.6-0.2-1c0-6.5,0-12.9,0-19.4c0-0.2,0.1-0.5,0.1-0.7
		c0.1-0.3,0.4-0.6,0.7-0.7c0.8-0.1,1.5-0.1,2.3-0.2c0.3,0,0.6-0.4,0.7-0.7c0.2-0.9-0.3-2,0.4-2.6c0.6-0.6,1.6-0.2,2.4-0.3
		c0.5-0.1,0.9-0.4,0.9-1c0.1-0.7,0.1-1.3,0.2-2c0-0.4,0.4-0.8,0.9-0.8c1.1,0,2.2,0,3.3,0c1.8,0,3.7,0,5.5,0c0.3,0,0.7,0,1-0.1
		c0.2-0.1,0.4-0.2,0.5-0.5c0.1-0.8,0.1-1.5,0.2-2.3c0-0.3,0.3-0.6,0.6-0.7c0.7,0,1.3,0,2,0c0.3,0,0.6,0.3,0.6,0.7
		c0,0.7,0.1,1.3,0.1,2c0,0.4,0.4,0.8,0.8,0.8c0.7,0,1.3,0.1,2,0.1c2.2,0,4.4,0,6.6,0c0.4,0,0.8,0,1.3,0.1c0.3,0,0.6,0.4,0.6,0.7
		c0,0.5,0.1,1,0.1,1.5c0,0.3,0,0.7,0.2,1c0.1,0.2,0.3,0.5,0.5,0.5c0.7,0.1,1.3,0.1,2,0.2c0.7,0.1,1,0.3,1,1.1c0,0.6,0.1,1.2,0.1,1.8
		c0,0.3,0.3,0.6,0.7,0.7c0.8,0,1.5,0.1,2.3,0.1c0.4,0,0.8,0.4,0.8,0.8c0,0.1,0,0.2,0,0.2c0,2.8,0,5.7,0,8.5c0,0.2,0,0.3-0.1,0.5
		c0,0.3-0.4,0.7-0.6,0.7c-0.4,0-0.8,0.1-1.2,0.1c-1.4,0-2.9,0-4.3,0c-8.2,0-16.3,0-24.5,0c-0.8,0-1.7,0.1-2.5,0.1
		c-0.4,0-0.8,0.4-0.8,0.8c0,2,0,4,0,6c0,0.5,0.4,0.9,1,0.9c0.7,0.1,1.3,0.1,2,0.1c0.3,0,0.6,0.4,0.7,0.7c0.1,0.7,0.1,1.5,0.2,2.2
		c0,0.3,0.3,0.6,0.7,0.6c0.4,0,0.8,0.1,1.3,0.1c5,0,10.1,0,15.1,0c0.4,0,0.8,0,1.3-0.1c0.3,0,0.6-0.4,0.7-0.7
		c0.1-0.6,0.1-1.2,0.2-1.7c0-0.2,0.1-0.5,0.2-0.7c0.1-0.1,0.2-0.3,0.4-0.3c0.2-0.1,0.5-0.1,0.7-0.1c2.9,0,5.7,0,8.6,0
		c0.2,0,0.3,0,0.5,0.1c0.1,0.1,0.3,0.2,0.4,0.3C293.7,45.2,293.8,46.1,293.3,47.1z M272.7,32.4C272.7,32.4,272.7,32.4,272.7,32.4
		c1.3,0,2.5,0,3.8,0c2.8,0,5.7,0,8.5,0c1.1,0,1.3-0.3,1.4-1.3c0-0.6,0-1.2,0-1.8c0-0.4-0.4-0.8-0.8-0.9c-0.7-0.1-1.3-0.1-2-0.2
		c-0.4,0-0.8-0.4-0.9-0.8c-0.1-0.7-0.1-1.3-0.2-2c-0.1-0.5-0.4-0.8-0.8-0.8c-0.6,0-1.2,0-1.8-0.1c-0.8,0-1.1-0.2-1.1-1
		c0-0.7-0.1-1.3-0.1-2c0-0.2-0.4-0.6-0.7-0.7c-0.2,0-0.5-0.1-0.7-0.1c-2.9,0-5.9,0-8.8,0c-0.2,0-0.5,0.1-0.7,0.1
		c-0.2,0-0.6,0.5-0.6,0.7c0,0.4,0,0.8-0.1,1.2c0,0.3,0,0.7-0.1,1c0,0.3-0.3,0.6-0.6,0.7c-0.8,0-1.5,0.1-2.3,0.1
		c-0.3,0-0.6,0.3-0.7,0.6c0,0.2-0.1,0.5-0.1,0.7c0,0.5-0.1,1-0.1,1.5c0,0.3-0.4,0.7-0.7,0.7c-0.4,0-0.8,0.1-1.3,0.1
		c-1.8,0.1-1.8,0.5-1.8,2c0,0.1,0,0.2,0,0.3c0,1.7,0.2,1.9,1.9,1.9C265.2,32.4,268.9,32.4,272.7,32.4z"/>
	<path class="st0" d="M73.9,47.1c-0.9,0.1-1.8,0.1-2.7,0.2c-0.3,0-0.6,0.4-0.6,0.7c0,0.8-0.1,1.7-0.1,2.5c0,1.2,0,2.3-0.1,3.5
		c0,0.3-0.3,0.7-0.6,0.7c-3.2,0-6.4,0-9.6,0c-0.3,0-0.6-0.3-0.7-0.6c0-0.7,0-1.3,0-2c0-0.3,0.3-0.6,0.7-0.6c0.7,0,1.3-0.1,2-0.1
		c0.6,0,0.9-0.4,1-1c0-1.1,0.1-2.2,0.1-3.3c0-0.8,0.1-1.7,0.1-2.5c0-0.3,0.4-0.6,0.7-0.7c0.7-0.1,1.5-0.1,2.2-0.2
		c0.3,0,0.6-0.4,0.7-0.7c0.1-0.8,0.1-1.5,0.1-2.3c0-0.4,0.4-0.8,0.8-0.8c0.3,0,0.5,0,0.8,0c2,0,2.1,0,2.2-2.1c0-0.3,0.1-0.7,0.2-1
		c0.1-0.2,0.3-0.4,0.5-0.5c0.7-0.1,1.3-0.1,2-0.2c0.8-0.1,1-0.5,1-1.2c0-0.2,0-0.3,0-0.5c0-2.2,0.1-2.4-2.3-2.4c-0.2,0-0.3,0-0.5,0
		c-0.5,0-0.8-0.3-0.9-0.8c0-0.4-0.1-0.8-0.1-1.3c0-0.3-0.1-0.7-0.1-1c0-0.3-0.4-0.6-0.7-0.7c-0.7-0.1-1.5-0.1-2.3-0.2
		c-0.3,0-0.7-0.4-0.7-0.6C67,26.8,67,26,66.9,25.3c0-0.3-0.4-0.6-0.7-0.6c-0.7,0-1.3-0.1-2-0.1c-0.6,0-0.9-0.4-0.9-1
		c0-1.8,0-3.5,0-5.3c0-0.7,0.4-1,1.2-1c1.3,0,2.5,0,3.8,0c2,0,2.1,0,2.1,2.1c0,0.3,0,0.5,0,0.8c0,0.6,0.4,1,0.9,1
		c0.7,0.1,1.3,0.1,2,0.1c0.4,0,0.8,0.4,0.8,0.8c0.1,0.7,0.1,1.3,0.1,2c0,0.4,0.3,0.7,0.8,0.8c0.6,0,1.2,0,1.8,0.1c0.7,0,1,0.3,1,1.1
		c0,0.6,0,1.2,0.1,1.8c0,0.5,0.5,0.9,1,0.9c0.7,0,1.3,0,2,0c0.8,0,1-0.5,1.1-1.1c0.1-0.7,0.1-1.3,0.1-2c0-0.3,0.3-0.6,0.7-0.6
		c0.8,0,1.5-0.1,2.3-0.1c0.3,0,0.6-0.4,0.7-0.7c0-0.5,0.1-1,0.1-1.5c0-1.1,0-2.2,0-3.3c0-1.9,0.3-2.1,2-2.1c1.8,0,3.7,0,5.5,0
		c0.8,0,1.7,0,2.5,0c0.5,0,0.9,0.4,0.9,1c0,0.2,0,0.3,0,0.5c0,1.7-0.2,1.9-1.8,2c-0.4,0-0.8,0.1-1.2,0.1c-0.3,0-0.7,0.4-0.7,0.7
		c0,0.5-0.1,1-0.1,1.5c0,1.3,0,2.7,0,4c0,0.8-0.3,1.1-1,1.2c-2.7,0.2-2.7,0.1-2.7,2.7c0,0.2,0,0.3-0.1,0.5c0,0.4-0.3,0.6-0.6,0.7
		c-0.6,0-1.2,0-1.8,0.1c-0.2,0-0.5,0-0.7,0.1c-0.2,0.1-0.4,0.3-0.5,0.5c-0.2,0.9-0.2,1.8,0,2.7c0.1,0.3,0.4,0.6,0.7,0.7
		c0.8,0.1,1.5,0.1,2.3,0.2c0.3,0,0.7,0.4,0.7,0.6c0,0.3,0.1,0.7,0.1,1c0,0.8,0,1.7,0,2.5c0,0.7,0,1.3,0,2c0,0.9,0.3,1.2,1.2,1.3
		c0.6,0,1.2,0.1,1.8,0.1c0.3,0,0.6,0.3,0.7,0.6c0.1,0.8,0.1,1.5,0.2,2.3c0,0.3,0.4,0.6,0.7,0.6c0.7,0,1.3,0.1,2,0.1
		c0.6,0,1,0.4,1,0.9c0,0.7,0.1,1.3,0.1,2c0,0.4,0.4,0.8,0.8,0.9c0.3,0,0.7,0.1,1,0.1c1.9,0,1.9,0.2,1.9,2.1c0,0.2-0.1,0.5-0.1,0.7
		c0,0.3-0.3,0.4-0.5,0.5c-0.3,0.1-0.7,0.1-1,0.1c-2.6,0-5.2,0-7.8,0c-0.3,0-0.7,0-1-0.1c-0.2-0.1-0.5-0.2-0.5-0.5
		c0-0.8-0.1-1.5-0.1-2.3c0-0.4-0.4-0.7-0.8-0.9c-0.9-0.3-2,0.2-2.6-0.5c-0.6-0.7-0.2-1.6-0.4-2.4c-0.1-0.5-0.4-0.8-0.8-0.8
		c-0.2,0-0.3,0-0.5,0c-2.5,0-2.4,0.1-2.4-2.6c0-1.1,0-2.2,0-3.3c0-0.3-0.1-0.7-0.1-1c0-0.3-0.4-0.6-0.7-0.6c-0.8,0-1.5-0.1-2.3-0.1
		c-0.7,0-1,0.3-1.1,1.1c0,0.4,0,0.8,0,1.3c-0.1,1-0.3,1.2-1.1,1.3c-0.3,0-0.7,0-1,0.1c-1.3,0.1-1.5,0.3-1.5,1.5c0,0.5,0,1-0.1,1.5
		C74.2,46.6,74,46.8,73.9,47.1z"/>
	<path class="st0" d="M164.7,54.6c-0.2,0.1-0.4,0.1-0.6,0.1c-3,0-6,0-9.1,0c-0.1,0-0.2,0-0.2,0c-0.3,0-0.6-0.3-0.7-0.6
		c-0.1-0.3-0.1-0.7-0.1-1c0-0.7,0-1.3,0-2c0-15.1,0-30.2,0-45.2c0-0.9,0-1.8,0.1-2.8c0-0.4,0.4-0.8,0.8-0.8c0.8,0,1.7-0.1,2.5-0.1
		c2,0,4,0,6,0c0.3,0,0.5,0,0.8,0.1c0.3,0,0.6,0.4,0.7,0.7c0,0.2,0.1,0.5,0.1,0.7c0,0.7,0,1.3,0,2c0,15.2,0,30.5,0,45.7
		c0,0.8,0,1.5,0,2.3C165,54,164.8,54.3,164.7,54.6z"/>
	<path class="st0" d="M369.6,35.7c0-5.4,0-10.7,0-16.1c0-0.6,0-1.2,0.1-1.7c0-0.2,0.3-0.4,0.5-0.5c0.4-0.1,0.8-0.1,1.2-0.1
		c8.7,0,17.5,0,26.2,0c0.2,0,0.3,0,0.5,0c1,0,1.4,0.3,1.4,1.4c0,1.6,0,3.2,0,4.8c0,0.2-0.1,0.5-0.2,0.7c-0.1,0.1-0.2,0.3-0.3,0.3
		c-0.5,0.1-1,0.1-1.5,0.1c-3.5,0-7.1,0-10.6,0c-0.6,0-1.2,0-1.8,0.1c-0.3,0-0.6,0.4-0.6,0.7c0,0.6-0.1,1.2-0.1,1.8
		c-0.1,0.7-0.4,1.1-1.1,1.2c-0.7,0.1-1.3,0.1-2,0.2c-0.3,0-0.7,0.4-0.7,0.7c0,0.7-0.1,1.3-0.1,2c0,6.5,0,12.9,0,19.4
		c0,1.2,0,2.3-0.1,3.5c0,0.4-0.3,0.8-0.8,0.8c-3.1,0-6.2,0-9.3,0c-0.3,0-0.7-0.3-0.7-0.6c0-0.8-0.1-1.5-0.1-2.3
		C369.6,46.5,369.6,41.1,369.6,35.7z"/>
	<path class="st0" d="M222.1,36.1c0-5.3,0-10.6,0-15.8c0-0.7,0.1-1.5,0.1-2.2c0-0.3,0.4-0.6,0.7-0.6c1.9,0,3.9,0,5.8,0
		c0.2,0,0.4,0.2,0.5,0.5c0.1,0.7,0.1,1.5,0.2,2.2c0,0.5,0.5,0.9,1,0.9c0.7,0,1.3,0,2,0c0.8,0,1-0.5,1.1-1.1c0.1-0.7,0.1-1.3,0.1-2
		c0-0.3,0.3-0.6,0.7-0.6c0.2,0,0.3,0,0.5,0c4,0,8.1,0,12.1,0c0.2,0,0.5,0,0.7,0.1c0.3,0,0.6,0.4,0.7,0.7c0,0.1,0.1,0.2,0.1,0.2
		c0,1.8,0,3.5,0,5.3c0,0.7-0.4,1-1.2,1c-0.7,0-1.3,0-2,0c-3.2,0-6.4,0-9.6,0c-0.6,0-1.2,0-1.8,0.1c-0.2,0-0.5,0.2-0.5,0.5
		c-0.1,0.6-0.1,1.2-0.1,1.7c-0.1,0.9-0.3,1.2-1.2,1.3c-0.1,0-0.2,0-0.3,0c-2.5,0-2.4,0.4-2.4,2.7c0,6.9,0,13.7,0,20.6
		c0,0.8,0,1.7-0.1,2.5c0,0.3-0.3,0.6-0.7,0.6c-1.8,0-3.7,0-5.5,0c-0.4,0-0.8-0.4-0.8-0.8c0-0.8-0.1-1.7-0.1-2.5
		C222.1,46.3,222.1,41.2,222.1,36.1z"/>
	<path class="st0" d="M502,36.1c0-5.3,0-10.6,0-15.8c0-0.7,0.1-1.5,0.2-2.2c0-0.3,0.4-0.6,0.7-0.6c1.8,0,3.7,0,5.5,0
		c0.4,0,0.7,0.4,0.8,0.8c0,0.7,0.1,1.3,0.1,2c0,0.5,0.5,0.9,1,0.9c0.7,0,1.3,0,2,0c0.8,0,1-0.5,1.1-1.1c0.1-0.7,0.1-1.3,0.1-2
		c0-0.3,0.3-0.6,0.7-0.6c0.2,0,0.3,0,0.5,0c4,0,8.1,0,12.1,0c0.2,0,0.5,0,0.7,0.1c0.3,0,0.6,0.4,0.6,0.7c0,0.1,0.1,0.2,0.1,0.2
		c0,1.8,0,3.5,0,5.3c0,0.6-0.4,1-0.9,1c-0.7,0-1.3,0-2,0c-3.3,0-6.5,0-9.8,0c-0.6,0-1.2,0-1.8,0.1c-0.2,0-0.5,0.2-0.5,0.5
		c-0.1,0.7-0.1,1.3-0.2,2c0,0.6-0.4,0.9-0.9,1c-0.2,0-0.3,0-0.5,0c-2.5,0-2.4,0.4-2.4,2.7c0,6.9,0,13.7,0,20.6c0,0.8,0,1.7-0.1,2.5
		c0,0.3-0.3,0.6-0.7,0.6c-1.8,0-3.7,0-5.5,0c-0.4,0-0.8-0.4-0.8-0.8c0-0.8-0.1-1.7-0.1-2.5C502,46.3,502,41.2,502,36.1z"/>
	<path class="st0" d="M562.1,54.8c0,2.9,0,5.9,0,8.8c0,0.6,0,1.2-0.1,1.7c0,0.2-0.3,0.3-0.5,0.5c-0.1,0-0.2,0.1-0.2,0.1
		c-1.8,0-3.5,0-5.3,0c-0.6,0-0.9-0.4-1-1c0-0.4,0-0.8,0-1.3c0-0.7,0.4-1.1,1.1-1.1c0.6,0,1.2,0,1.8-0.1c0.4,0,0.8-0.4,0.8-0.8
		c0-2,0-4,0-6c0-0.6-0.4-0.9-1-0.9c-0.6,0-1.2,0-1.8-0.1c-0.6,0-0.9-0.4-0.9-1c0-0.3-0.1-0.7-0.1-1c0-2.3,0-4.5,0-6.8
		c0-0.5,0.1-1,0.2-1.5c0-0.2,0.3-0.4,0.5-0.5c0.1,0,0.2-0.1,0.2-0.1c1.8,0,3.7,0,5.5,0c0.3,0,0.6,0.3,0.7,0.6c0,0.7,0.1,1.3,0.1,2
		C562.1,49.3,562.1,52,562.1,54.8z"/>
	<path class="st0" d="M547,13.3c0,3.1,0,6.2,0,9.3c0,0.5-0.1,1-0.1,1.5c0,0.1-0.2,0.3-0.3,0.3c-0.8,0.2-1.7,0.2-2.5,0
		c-0.1,0-0.3-0.2-0.3-0.4c-0.1-0.7-0.1-1.3-0.1-2c0-4.4,0-8.9,0-13.3c0-0.8,0-1.5-0.1-2.3c0-0.3-0.4-0.7-0.6-0.7
		c-0.7-0.1-1.5-0.2-2.2-0.3c-0.3,0-0.6-0.4-0.7-0.6c-0.2-0.7-0.1-1.3,0-2c0.1-0.3,0.4-0.7,0.7-0.7c1.8,0,3.5,0,5.3,0
		c0.7,0,1,0.3,1.1,1.1c0,0.8,0,1.5,0,2.3C547,8.2,547,10.7,547,13.3C547,13.3,547,13.3,547,13.3z"/>
</g>
</svg>
