<?xml version="1.0" encoding="utf-8"?>
<!-- Generator: Adobe Illustrator 26.0.2, SVG Export Plug-In . SVG Version: 6.00 Build 0)  -->
<svg version="1.1" id="Layer_1" xmlns="http://www.w3.org/2000/svg" xmlns:xlink="http://www.w3.org/1999/xlink" x="0px" y="0px"
	 viewBox="0 0 239 69" style="enable-background:new 0 0 239 69;" xml:space="preserve">
<style type="text/css">
	.st0{fill:#333333;}
</style>
<g>
	<path class="st0" d="M46.72,15.4L28.89,53.91H18.73L0.9,15.4h9.67L23.6,44.96h0.29L37.05,15.4H46.72z"/>
	<path class="st0" d="M50.45,1.79h9.02v7.16h-9.02V1.79z M50.59,15.4h8.73v38.52h-8.73V15.4z"/>
	<path class="st0" d="M84.1,20.84c-6.66,0-9.74,1.79-9.74,4.44c0,2.51,1.58,3.65,5.8,4.15l13.89,1.65
		c6.3,0.72,11.74,3.08,11.74,11.53c0,9.24-8.45,12.53-20.62,12.53c-11.46,0-21.05-3.01-21.33-14.25h8.95
		c0.29,5.87,5.8,7.52,12.46,7.52c7.3,0,11.38-1.93,11.38-5.3c0-2.94-1.79-4.15-6.09-4.73l-13.39-1.72
		c-6.3-0.79-11.74-3.22-11.74-10.88c0-8.09,8.09-11.6,18.69-11.6c10.6,0,19.97,3.44,20.19,12.89h-8.95
		C95.05,22.41,90.4,20.84,84.1,20.84z"/>
	<path class="st0" d="M143.38,48.97h-0.29c-3.72,4.01-9.09,5.87-15.18,5.87c-9.38,0-16.54-3.94-16.54-13.6V15.4h8.73v22.77
		c0,6.87,3.87,9.52,10.74,9.52c5.87,0,12.31-3.15,12.31-11.67V15.4h8.73v38.52h-8.52V48.97z"/>
	<path class="st0" d="M198.65,53.48v0.43h-8.52c-0.64-0.64-1.07-2.29-1.07-4.65v-1.07c-3.65,4.73-9.59,6.94-16.97,6.94
		c-8.09,0-15.11-3.87-15.11-12.17c0-8.16,5.51-11.31,11.38-11.96l15.18-1.58c3.44-0.36,5.01-1.43,5.01-3.94
		c0-2.65-2.86-4.44-9.67-4.44c-6.09,0-10.31,1.86-10.6,5.8h-9.09c0.21-9.24,9.38-12.67,19.62-12.67c11.1,0,18.76,2.86,18.76,11.31
		v22.19C197.58,49.9,197.65,52.27,198.65,53.48z M188.84,34.51c-0.79,0.57-2,0.79-3.15,0.93l-13.46,1.72
		c-3.65,0.43-6.23,1.79-6.23,5.66c0,4.3,3.29,5.8,7.95,5.8c6.01,0,14.89-2.65,14.89-11.74V34.51z"/>
	<path class="st0" d="M205.32,2.08h8.73v51.83h-8.73V2.08z"/>
</g>
</svg>
