<?xml version="1.0" encoding="utf-8"?>
<!-- Generator: Adobe Illustrator 26.0.2, SVG Export Plug-In . SVG Version: 6.00 Build 0)  -->
<svg version="1.1" id="Layer_1" xmlns="http://www.w3.org/2000/svg" xmlns:xlink="http://www.w3.org/1999/xlink" x="0px" y="0px"
	 viewBox="0 0 344 69" style="enable-background:new 0 0 344 69;" xml:space="preserve">
<style type="text/css">
	.st0{fill:#333333;}
</style>
<g>
	<path class="st0" d="M25.2,15.4c12.1,0,20.5,7.4,20.5,20.3c0,12.9-8.4,20.3-20.5,20.3c-6.6,0-11.9-2.6-14.8-6.7h-0.3v5.5H1.7V3h8.7
		v18.8h0.3C13.5,18,18.6,15.4,25.2,15.4z M36.7,35.7c0-8.8-4.9-13.2-13.2-13.2c-8.2,0-13.2,5.3-13.2,13.2s5,13.2,13.2,13.2
		C31.7,48.9,36.7,44.5,36.7,35.7z"/>
	<path class="st0" d="M90.3,54.4v0.4h-8.5c-0.6-0.6-1.1-2.3-1.1-4.7v-1.1c-3.7,4.7-9.6,6.9-17,6.9c-8.1,0-15.1-3.9-15.1-12.2
		c0-8.2,5.5-11.3,11.4-12l15.2-1.6c3.4-0.4,5-1.4,5-3.9c0-2.6-2.9-4.4-9.7-4.4c-6.1,0-10.3,1.9-10.6,5.8h-9.1
		c0.2-9.2,9.4-12.7,19.6-12.7c11.1,0,18.8,2.9,18.8,11.3v22.2C89.2,50.8,89.3,53.2,90.3,54.4z M80.5,35.4c-0.8,0.6-2,0.8-3.2,0.9
		l-13.5,1.7c-3.7,0.4-6.2,1.8-6.2,5.7c0,4.3,3.3,5.8,8,5.8c6,0,14.9-2.7,14.9-11.7V35.4z"/>
	<path class="st0" d="M97,3h8.7v51.8H97V3z"/>
	<path class="st0" d="M152.4,54.4v0.4h-8.5c-0.6-0.6-1.1-2.3-1.1-4.7v-1.1c-3.6,4.7-9.6,6.9-17,6.9c-8.1,0-15.1-3.9-15.1-12.2
		c0-8.2,5.5-11.3,11.4-12l15.2-1.6c3.4-0.4,5-1.4,5-3.9c0-2.6-2.9-4.4-9.7-4.4c-6.1,0-10.3,1.9-10.6,5.8H113
		c0.2-9.2,9.4-12.7,19.6-12.7c11.1,0,18.8,2.9,18.8,11.3v22.2C151.4,50.8,151.4,53.2,152.4,54.4z M142.6,35.4
		c-0.8,0.6-2,0.8-3.1,0.9L126,38.1c-3.7,0.4-6.2,1.8-6.2,5.7c0,4.3,3.3,5.8,8,5.8c6,0,14.9-2.7,14.9-11.7V35.4z"/>
	<path class="st0" d="M167.6,21.3h0.3c3.7-4,9.1-5.9,15.2-5.9c9.4,0,16.5,3.9,16.5,13.6v25.8h-8.7V32.1c0-6.9-3.9-9.5-10.7-9.5
		c-5.9,0-12.3,3.1-12.3,11.7v20.6h-8.7V16.3h8.5L167.6,21.3L167.6,21.3z"/>
	<path class="st0" d="M239.8,40.5h9.6c-1.2,8.7-7.6,15.5-22,15.5c-13.7,0-22.2-7.6-22.2-20.4c0-13,8.5-20.5,22.2-20.5
		c14.4,0,20.6,6.8,21.8,15.3h-9.5c-0.8-4.4-3.7-8.2-12.3-8.2c-8,0-13.2,4.5-13.2,13.4c0,8.7,5.1,13.2,13.2,13.2
		C236,48.9,239,45.1,239.8,40.5z"/>
	<path class="st0" d="M296.8,37.8h-35c0.7,7.7,5.7,11.4,13.5,11.4c7.9,0,11-3.6,11.5-6.4h9.7c-0.9,6.4-6.7,13.3-21.2,13.3
		c-14,0-22.5-7.6-22.5-20.5s8.5-20.5,22-20.5s22,7.6,22,20.5C296.9,36.2,296.9,37.2,296.8,37.8z M262.1,31.1h25.5
		c-1.4-6.2-6.1-9.2-12.7-9.2S263.5,25,262.1,31.1z"/>
	<path class="st0" d="M309.5,21.4h17.7v3.5h-22.7v-0.8c0-5.2,3.8-7.6,7.4-9.3l6-2.9c2.5-1.2,4.5-2.4,4.5-4.6c0-3.1-2.8-3.8-6.1-3.8
		c-3.2,0-7.1,1.1-7.2,5.6h-4.6c0.2-6.9,5.8-9.1,11.8-9.1S327,1.7,327,7.3c0,4.6-3.6,6.1-6.7,7.5l-6.9,3.2
		C311.2,19,309.8,20.3,309.5,21.4z"/>
</g>
<path class="st0" d="M344,52.8c0,10.5-3,14.6-10.4,14.7v-4c3.3-0.1,4.8-1.9,4.8-8.7h-4.9v-9.7H344V52.8z"/>
</svg>
