<?xml version="1.0" encoding="utf-8"?>
<!-- Generator: Adobe Illustrator 26.0.2, SVG Export Plug-In . SVG Version: 6.00 Build 0)  -->
<svg version="1.1" id="Layer_1" xmlns="http://www.w3.org/2000/svg" xmlns:xlink="http://www.w3.org/1999/xlink" x="0px" y="0px"
	 viewBox="0 0 456 69" style="enable-background:new 0 0 456 69;" xml:space="preserve">
<style type="text/css">
	.st0{fill:#FFFFFF;}
</style>
<g>
	<path class="st0" d="M452.3,20.7c-0.5,0-1,0.1-1.5,0.1c-1.3,0-1.6-0.2-1.7-1.6c-0.1-2.1-0.2-2.1-2.2-2.1c-0.3,0-0.7,0-1-0.1
		c-0.3,0-0.5-0.2-0.5-0.5c-0.1-0.7-0.1-1.5-0.2-2.3c0-0.5-0.4-0.9-1-0.9c-1.1,0-2.2,0-3.3-0.1c-0.8,0-1.7-0.1-2.5-0.1
		c-0.3,0-0.6-0.3-0.7-0.6c-0.1-0.8-0.2-1.5,0.1-2.2c0-0.1,0.2-0.3,0.3-0.3c0.3-0.1,0.7-0.1,1-0.1c1.4,0,2.9,0,4.3,0
		c0.4,0,0.8,0,1.2-0.1c0.2-0.1,0.4-0.3,0.4-0.5c0.1-0.7,0.1-1.5,0.1-2.3c0-0.7-0.2-1-1.1-1.1c-0.3,0-0.7,0-1,0c-2.4,0-4.9,0-7.3,0
		c-0.5,0-1,0.1-1.5,0.1c-0.3,0-0.7,0.4-0.7,0.7c-0.1,0.8-0.1,1.5-0.1,2.3c0,0.4-0.3,0.7-0.8,0.7c-0.7,0-1.3,0-2-0.1
		c-0.1,0-0.3-0.2-0.3-0.3c-0.1-0.1-0.1-0.3-0.1-0.5c0-1.8,0-3.7,0-5.5c0-0.4,0.4-0.8,0.8-0.8c0.3,0,0.7,0,1,0c5,0,9.9,0,14.9,0
		c0.4,0,0.8,0,1.2,0.1c0.2,0,0.4,0.2,0.5,0.5c0,0.6,0.1,1.2,0.1,1.8c0,2.3,0,4.5,0,6.8c0,0.5,0.1,1,0.1,1.5c0,0.3,0.4,0.6,0.7,0.6
		c0.9,0,1.8,0.1,2.8,0.1C452.3,16,452.3,18.4,452.3,20.7z"/>
	<path class="st0" d="M312.9,28.6c0-7.7,0-15.4,0-23.1c0-0.8,0.1-1.7,0.1-2.5c0-0.3,0.4-0.6,0.7-0.7c0.1,0,0.2,0,0.2,0
		c3,0,6,0,9.1,0c0.4,0,0.8,0.4,0.8,0.8c0,0.6,0.1,1.2,0.1,1.8c0,3,0,6,0,9c0,0.7,0,1.3,0,2c0,1.1,0.3,1.4,1.3,1.4c0.6,0,1.2,0,1.8,0
		c1.3,0,2.5,0,3.8,0c5.5,0,10.9,0,16.4,0c0.8,0,1.5,0,2.3,0c0.5,0,0.8,0.3,0.9,0.7c0,0.6,0,1.2,0.1,1.8c0,0.2,0,0.5,0.2,0.7
		c0.1,0.2,0.3,0.4,0.5,0.5c0.7,0.1,1.5,0.1,2.2,0.2c0.5,0,0.8,0.3,0.8,0.8c0,0.4,0.1,0.8,0.1,1.3c0,1,0,2,0,3c0,2.2,0,2.5,2.4,2.5
		c0.2,0,0.5,0,0.7,0.1s0.4,0.3,0.5,0.5s0.1,0.5,0.1,0.7c0,3.9,0,7.9,0,11.8c0,0.2,0,0.5-0.1,0.7c0,0.3-0.4,0.6-0.7,0.6
		c-0.6,0.1-1.2,0.1-1.8,0.2c-0.2,0-0.5,0.1-0.7,0.2c-0.1,0.1-0.3,0.2-0.3,0.4c-0.1,0.3-0.2,0.7-0.2,1c0,1.2,0,2.3,0,3.5
		c0,0.5,0,1-0.1,1.5c0,0.4-0.4,0.8-0.8,0.8c-0.7,0.1-1.3,0.1-2,0.2c-0.6,0.1-0.9,0.4-0.9,1s0,1.2-0.1,1.8c0,0.7-0.3,0.9-0.9,1
		c-0.3,0-0.7,0-1,0c-6.1,0-12.3,0-18.4,0c-0.4,0-0.8,0-1.3-0.1c-0.3,0-0.6-0.4-0.6-0.7c0-0.4-0.1-0.8-0.1-1.2c0-0.3-0.1-0.7-0.1-1
		c-0.1-0.4-0.4-0.7-0.9-0.8c-0.7,0-1.3,0-2,0s-1,0.4-1.1,1.1c0,0.3,0,0.7,0,1c-0.1,1.5-0.2,1.6-1.6,1.6c-2.6,0-5.2,0-7.8,0
		c-0.3,0-0.7,0-1-0.1c-0.2-0.1-0.5-0.2-0.5-0.5c-0.1-0.3-0.1-0.7-0.1-1c0-0.8,0-1.5,0-2.3C312.9,43.5,312.9,36,312.9,28.6z
		 M337.3,47.5L337.3,47.5c2.5,0,5,0,7.6,0c0.5,0,1,0,1.5-0.1c0.2,0,0.4-0.3,0.5-0.5c0.1-0.5,0.1-1,0.1-1.5c0-1.4,0-2.8,0-4.3
		c0-0.8,0.3-1.1,1-1.1c0.6,0,1.2,0,1.8-0.1c0.5,0,0.8-0.3,0.8-0.8c0-1.7,0.1-3.3,0.1-5c0-0.4-0.1-0.8-0.1-1.2c0-0.3-0.4-0.7-0.7-0.7
		c-0.8-0.1-1.7-0.1-2.5-0.2c-0.1,0-0.3-0.2-0.3-0.3c-0.1-0.3-0.1-0.7-0.1-1c0-1.4,0-2.8,0-4.3c0-0.4,0-0.8-0.1-1.2
		c-0.1-0.2-0.3-0.4-0.5-0.5c-0.5-0.1-1-0.1-1.5-0.1c-1.5,0-3,0-4.5,0c-0.5,0-0.8-0.3-0.8-0.8c0-0.7-0.1-1.3-0.1-2c0-0.5-0.4-0.9-1-1
		c-0.3,0-0.5-0.1-0.8-0.1c-0.6,0-1.2,0-1.8,0c-0.9,0-1.8,0-2.8,0c-1.1,0-1.5,0.2-1.6,1.5c0,0.6-0.1,1.2-0.1,1.7
		c0,0.2-0.2,0.5-0.5,0.5c-0.5,0-1,0.1-1.5,0.1c-1.4,0-2.9,0-4.3,0c-0.8,0-1.1,0.3-1.1,1c0,0.5,0,1,0,1.5c0,4.7,0,9.4,0,14.1
		c0,0.5,0,1,0,1.5c0,0.6,0.4,1,0.9,1c0.7,0.1,1.3,0.1,2,0.1c0.3,0,0.6,0.3,0.6,0.7c0,0.7,0.1,1.3,0.1,2c0,0.4,0.4,0.8,0.8,0.8
		c0.5,0,1,0.1,1.5,0.1C332.4,47.5,334.9,47.5,337.3,47.5z"/>
	<path class="st0" d="M405.2,35.9c-4.7,0-9.4,0-14.1,0c-3.1,0-2.9,0.1-2.9,2.9c0,2,0,4,0,6c0,0.6,0,1.2,0.1,1.8
		c0,0.5,0.4,0.8,0.8,0.9c0.2,0,0.3,0,0.5,0.1c0.3,0,0.5,0,0.8,0c6.4,0,12.8,0,19.1,0c0.3,0,0.7,0,1,0s0.7-0.4,0.7-0.6
		c0.1-0.7,0.2-1.5,0.3-2.2c0-0.3,0.4-0.6,0.7-0.7c0.3,0,0.7-0.1,1-0.1c0.9,0,1.8,0,2.8,0c2.7,0,2.6-0.1,2.6,2.6c0,1.2,0,2.3,0,3.5
		c0,0.6-0.3,0.9-1,0.9c-0.6,0.1-1.2,0.1-1.8,0.1c-0.6,0.1-0.9,0.4-0.9,1c0,0.7-0.1,1.3-0.1,2c0,0.3-0.3,0.7-0.6,0.7
		c-0.5,0-1,0.1-1.5,0.1c-7.2,0-14.4,0-21.7,0c-0.5,0-1,0-1.5-0.1c-0.3,0-0.6-0.4-0.7-0.7c-0.1-0.6-0.1-1.2-0.1-1.8
		c0-0.2,0-0.5-0.2-0.7c-0.1-0.2-0.3-0.4-0.5-0.5c-0.7-0.1-1.3-0.1-2-0.2c-1.3,0-2.5,0-3.8-0.1c-0.5,0-0.9-0.4-1-1
		c0-0.4-0.1-0.8-0.1-1.3c0-0.8,0-1.7,0-2.5c0-2.5,0.1-2.7-2.6-2.8c-0.2,0-0.5-0.1-0.7-0.2c-0.1-0.1-0.3-0.2-0.3-0.4
		c-0.1-0.1-0.1-0.3-0.1-0.5c0-4.2,0-8.4,0-12.6c0-0.6,0.3-1,0.9-1s1.2-0.1,1.8-0.1c0.7,0,1-0.4,1.1-1.1c0-1.1,0-2.2,0.1-3.3
		c0-0.8,0.1-1.5,0.1-2.3c0-0.4,0.4-0.7,0.8-0.8c0.5,0,1,0,1.5-0.1c0.9-0.1,1.2-0.4,1.3-1.2c0-0.6,0-1.2,0.1-1.8c0-0.6,0.4-0.9,1-0.9
		c2.4,0,4.7,0,7.1,0c0.8,0,1.5,0,2.3,0c0.6,0,0.9-0.3,0.9-1c0-0.4,0.1-0.8,0.1-1.3c0.1-1.1,0.3-1.4,1.4-1.4c1.7,0,3.4,0,5,0.1
		c0.3,0,0.7,0.3,0.7,0.6c0.1,0.7,0.1,1.5,0.2,2.2c0,0.3,0.4,0.6,0.7,0.6c0.5,0,1,0.1,1.5,0.1c2,0,4,0,6,0c0.7,0,1.3,0,2,0
		c0.6,0,1,0.4,1,0.9c0,0.6,0,1.2,0.1,1.8c0,0.8,0.4,1.1,1,1.2c0.2,0,0.3,0,0.5,0c2.2,0,2.1,0.1,2.1,2.3c0,1,0,2,0,3
		c0,0.4,0,0.8,0.1,1.3c0,0.4,0.4,0.8,0.8,0.9c0.6,0,1.2,0.1,1.8,0.1c0.2,0,0.5,0.1,0.7,0.2c0.1,0.1,0.2,0.2,0.3,0.3
		c0.1,0.1,0.1,0.3,0.1,0.5c0,1.7,0,3.3,0,5c0,0.2,0,0.4-0.1,0.5c-0.1,0.2-0.3,0.4-0.5,0.5c-0.7,0.1-1.5,0.1-2.3,0.1
		C414.7,35.9,409.9,35.9,405.2,35.9L405.2,35.9z M399.8,32.4c2.8,0,5.5,0,8.3,0c0.7,0,1.3,0,2,0c0.6,0,1-0.3,1-0.9c0-2,0-4,0-6
		c0-0.4-0.4-0.8-0.8-0.8c-1.4,0-2.9,0-4.3,0c-2.2,0-2.3,0.1-2.4-2.1c0-0.3,0-0.5-0.1-0.8c-0.1-0.5-0.4-0.9-1-0.9c-1.9,0-3.9,0-5.8,0
		c-0.6,0-1,0.4-1,0.9c0,0.4,0,0.8-0.1,1.3c0,1.4-0.1,1.6-1.6,1.6c-1.2,0-2.4,0-3.5,0c-0.5,0-1,0-1.5,0c-0.4,0-0.8,0.4-0.8,0.8
		c0,2,0,4,0,6c0,0.5,0.4,0.9,1,0.9c0.7,0,1.3,0,2,0C394.1,32.4,397,32.4,399.8,32.4z"/>
	<path class="st0" d="M119.7,38.1c0,4.8,0,9.6,0,14.3c0,2.5-0.1,2.4-2.3,2.4c-0.8,0-1.5,0-2.3,0c-2.7,0-2.7,0.3-2.7-2.5
		c0-0.2,0-0.3-0.1-0.5c0-0.3-0.4-0.6-0.7-0.7c-0.9-0.2-1.8-0.2-2.7,0c-0.2,0.1-0.6,0.5-0.6,0.7c-0.1,0.8-0.1,1.5-0.1,2.3
		c0,0.3-0.3,0.6-0.7,0.6c-0.4,0-0.8,0.1-1.3,0.1c-6,0-12.1,0-18.1,0c-0.2,0-0.3,0-0.5,0c-1.4,0-1.5-0.1-1.7-1.6c0-0.5-0.1-1-0.1-1.5
		c0-0.3-0.4-0.6-0.7-0.7c-0.6-0.1-1.2-0.1-1.8-0.1c-0.2,0-0.5-0.1-0.7-0.2c-0.1-0.1-0.3-0.2-0.3-0.3c-0.1-0.2-0.1-0.5-0.1-0.7
		c0-4.1,0-8.2,0-12.3c0-0.2,0-0.3,0.1-0.5s0.2-0.4,0.5-0.5c0.7-0.1,1.3-0.1,2-0.1c0.7-0.1,1-0.4,1.1-1.1c0.1-0.7,0.1-1.3,0.2-2
		c0-0.3,0.4-0.6,0.7-0.7c0.7,0,1.3-0.1,2-0.1c4.5,0,8.9,0,13.4,0c0.7,0,1.3,0,2-0.1c0.3,0,0.6-0.3,0.6-0.7c0-0.7,0.1-1.3,0.1-2
		c0-0.5,0.3-0.8,0.8-0.8c0.9,0,1.8-0.1,2.8-0.1c0.9,0,1.8,0,2.8,0c0.8,0,1.2-0.4,1.2-1.3c0-0.6,0-1.2,0-1.8c0-0.6-0.4-1-0.9-1
		c-0.7,0-1.3-0.1-2-0.1c-0.3,0-0.7-0.3-0.7-0.6c-0.1-0.7-0.1-1.5-0.2-2.2c0-0.4-0.4-0.8-0.8-0.8c-0.3,0-0.7-0.1-1-0.1
		c-2.6,0-5.2,0-7.8,0c-0.3,0-0.5,0-0.8,0c-0.7,0.1-1.1,0.4-1.1,1.1c0,0.4,0,0.8,0,1.3c0,0.2,0,0.5-0.1,0.7c0,0.4-0.3,0.6-0.6,0.7
		c-0.6,0-1.2,0-1.8,0.1c-0.2,0-0.5,0-0.7,0.1s-0.5,0.3-0.5,0.5c-0.1,0.6-0.1,1.2-0.2,1.7c-0.1,1-0.3,1.3-1.4,1.3c-0.3,0-0.5,0-0.8,0
		c-2.4,0-4.7,0-7.1,0c-0.3,0-0.7-0.1-1-0.1s-0.6-0.4-0.7-0.7c0-1.8,0-3.7,0-5.5c0-0.4,0.4-0.7,0.8-0.8c0.6,0,1.2,0,1.8-0.1
		s1-0.2,1.1-1.1c0.1-0.7,0.1-1.3,0.2-2c0-0.3,0.4-0.6,0.7-0.6c0.7,0,1.3-0.1,2-0.1c3.4,0,6.7,0,10.1,0c0.4,0,0.8,0,1.3,0
		s0.8-0.3,0.9-0.8c0.1-0.7,0.1-1.3,0.2-2c0-0.4,0.4-0.8,0.8-0.8c0.6,0,1.2,0,1.8,0c0.3,0,0.7,0.3,0.7,0.6c0,0.6,0.1,1.2,0.1,1.7
		c0,0.2,0.1,0.5,0.1,0.7c0.1,0.1,0.2,0.3,0.3,0.3c0.4,0.1,0.8,0.2,1.2,0.2c2.5,0,5,0,7.6,0c0.4,0,0.8,0,1.3,0.1
		c0.3,0,0.6,0.3,0.6,0.7c0,0.6,0,1.2,0.1,1.8c0,0.2,0,0.5,0.1,0.7s0.3,0.5,0.5,0.5c0.7,0.1,1.5,0.2,2.2,0.2c0.6,0.1,0.9,0.4,0.9,1
		c0,0.8,0,1.5,0,2.3C119.7,29,119.7,33.6,119.7,38.1z M112.4,40c0-0.8,0-1.7,0-2.5c0-0.2,0-0.5-0.1-0.7c0-0.2-0.4-0.7-0.6-0.7
		c-0.5-0.1-1-0.1-1.5-0.1c-3.7,0-7.4,0-11.1,0c-0.3,0-0.7,0-1,0c-0.7,0.1-1.1,0.4-1.1,1.1c0,0.7-0.1,1.3-0.1,2
		c0,0.3-0.3,0.6-0.6,0.7c-1,0-2,0-3,0.1c-1,0-2,0-3,0.1c-0.3,0-0.7,0.3-0.7,0.6c0,0.2-0.1,0.5-0.1,0.7c0,1.4,0,2.8,0,4.3
		c0,2,0,2.1,2.1,2.1c1.5,0,1.5,0.1,1.6,1.6c0,0.4,0,0.8,0.1,1.3c0,0.6,0.4,1,0.9,1c1.5,0,3,0.1,4.5,0.1c2.1,0,2.4,0.1,2.5-2.4
		c0-0.1,0-0.2,0-0.2c0.1-0.9,0.4-1.2,1.2-1.2c1.1,0,2.2,0,3.3,0c0.8,0,1.5,0,2.3-0.1c0.3,0,0.6-0.4,0.7-0.7c0-0.2,0.1-0.5,0.1-0.7
		c0.1-0.5,0.1-1,0.2-1.5c0-0.3,0.4-0.6,0.7-0.6c0.4,0,0.8-0.1,1.3-0.1c1.4,0,1.7-0.4,1.7-1.6C112.5,41.5,112.5,40.8,112.4,40z"/>
	<path class="st0" d="M59.3,35.9c-5,0-10.1,0-15.1,0c-0.4,0-0.8,0-1.3,0c-2.8,0-2.7,0.2-2.7,2.9c0,0.2,0,0.3,0.1,0.5
		c0,0.3,0.4,0.6,0.7,0.6c0.6,0,1.2,0,1.8,0.1c0.2,0,0.3,0,0.5,0c0.3,0,0.7,0.4,0.7,0.7c0.1,0.4,0.1,0.8,0.1,1.2c0,1.3,0,2.7,0,4
		c0,0.3,0,0.7,0.1,1c0.1,0.2,0.3,0.4,0.5,0.5c0.3,0.1,0.7,0.1,1,0.1c6.6,0,13.1,0,19.7,0c0.2,0,0.3,0,0.5,0c0.8,0,1.1-0.3,1.1-1
		c0-0.6,0-1.2,0.1-1.8c0-0.5,0.3-0.8,0.8-0.8c1.8,0,3.7,0,5.5,0c0.4,0,0.8,0.4,0.8,0.8c0,1.8,0,3.5,0,5.3c0,0.4-0.4,0.8-0.8,0.9
		c-0.7,0.1-1.3,0.1-2,0.2c-0.6,0.1-0.9,0.4-1,1c0,0.7-0.1,1.3-0.1,2c0,0.5-0.3,0.7-0.8,0.8c-0.6,0-1.2,0-1.8,0c-7,0-14,0-20.9,0
		c-0.5,0-1,0-1.5,0c-0.6,0-1-0.3-1-0.9c0-0.7-0.1-1.3-0.1-2c0-0.4-0.4-0.8-0.8-0.8c-0.8-0.1-1.5-0.1-2.3-0.1c-1.1,0-2.2,0-3.3-0.1
		c-0.6,0-1.1-0.2-1.1-1.1c0-1,0-2,0-3c0-0.8,0-1.5,0-2.3c0-0.7-0.3-1-1.1-1.1c-0.6-0.1-1.2-0.1-1.8-0.2c-0.4,0-0.7-0.4-0.8-0.9
		c0-0.4-0.1-0.8-0.1-1.3c0-3.4,0-6.9,0-10.3c0-0.4,0-0.8,0.1-1.3c0-0.4,0.4-0.8,0.8-0.8c0.7-0.1,1.3-0.1,2-0.2
		c0.4,0,0.8-0.4,0.8-0.8c0-0.9,0-1.8,0.1-2.8c0-1,0-2,0.1-3c0-0.4,0.4-0.8,0.8-0.8c0.6,0,1.2,0,1.8-0.1s1-0.2,1.1-1.1
		c0.1-0.7,0.1-1.3,0.2-2c0-0.2,0.4-0.7,0.7-0.7c0.6,0,1.2-0.1,1.8-0.1c2.3,0,4.5,0,6.8,0c0.4,0,0.8,0,1.3-0.1c0.3,0,0.6-0.3,0.7-0.7
		c0-0.6,0.1-1.2,0.1-1.8c0.1-0.9,0.3-1.1,1.3-1.1c0.3,0,0.5,0,0.8,0c1.1,0,1.3,0.2,1.3,1.3c0,0.5,0,1,0.1,1.5c0,0.4,0.4,0.7,0.9,0.8
		c0.7,0,1.3,0,2,0c3.4,0,6.7,0,10.1,0c0.5,0,1,0,1.5,0.1c0.2,0,0.5,0.2,0.5,0.5c0.1,0.8,0.1,1.7,0.2,2.5c0,0.3,0.4,0.6,0.7,0.7
		c0.8,0.1,1.5,0.1,2.3,0.2c0.4,0,0.8,0.4,0.8,0.8c0,0.9,0.1,1.8,0.1,2.8c0,0.9,0,1.8,0,2.8c0,0.7,0.4,1,1.1,1.1c0.5,0,1,0,1.5,0.1
		c0.7,0.1,1,0.3,1,1.1c0,0.3,0,0.7,0,1c-0.1,5.7,1,4.9-4.9,4.9C68.5,35.9,63.9,35.9,59.3,35.9z M55.3,32.4c2.9,0,5.7,0,8.6,0
		c0.7,0,1.3,0,2,0S67,32,67,31.3c0-1.8,0-3.7,0-5.5c0-0.1,0-0.2,0-0.2c0-0.5-0.4-0.9-1-0.9c-0.3,0-0.7,0-1,0c-1.3,0-2.7,0-4,0
		c-0.3,0-0.7,0-1-0.1c-0.1,0-0.3-0.2-0.3-0.3c-0.1-0.7-0.1-1.5-0.2-2.2c0-0.6-0.4-1-0.9-1c-2-0.2-4-0.2-6,0c-0.4,0-0.8,0.4-0.8,0.8
		c-0.1,0.7-0.1,1.5-0.2,2.2c0,0.3-0.3,0.6-0.7,0.6c-1.2,0-2.4,0-3.5,0.1c-0.8,0-1.7,0-2.5,0.1c-0.3,0-0.6,0.3-0.7,0.7
		c0,0.1-0.1,0.2-0.1,0.2c0,1.9,0,3.9,0,5.8c0,0.6,0.3,1,0.9,1c0.6,0,1.2,0,1.8,0C49.6,32.4,52.5,32.4,55.3,32.4z"/>
	<path class="st0" d="M193.5,54.8c-3.5,0-7.1,0-10.6,0c-0.6,0-1.2,0-1.8-0.1c-0.2,0-0.5-0.2-0.5-0.5c0-0.8-0.1-1.5-0.1-2.3
		c0-0.4-0.4-0.7-0.8-0.9c-0.9-0.3-2,0.2-2.6-0.5s-0.2-1.6-0.4-2.4c-0.1-0.5-0.4-0.8-0.8-0.8c-0.2,0-0.3,0-0.5,0
		c-2.5,0-2.4,0.1-2.4-2.6c0-1.1,0-2.2,0-3.3c0-0.3-0.1-0.7-0.1-1s-0.4-0.6-0.7-0.6c-0.7,0-1.3-0.1-2-0.1c-0.6,0-0.9-0.4-0.9-1
		c0-0.4-0.1-0.8-0.1-1.3c0-2.1,0-4.2,0-6.3c0-0.5,0-1,0.1-1.5c0-0.4,0.4-0.8,0.8-0.8c0.7-0.1,1.3-0.1,2-0.2c0.4,0,0.8-0.4,0.8-0.8
		c0-0.6,0.1-1.2,0.1-1.8c0-1.3,0-2.5,0-3.8c0-0.8,0.3-1,1.1-1.1c0.4,0,0.8,0,1.3,0c1.1-0.1,1.3-0.3,1.4-1.4c0.1-0.6,0.1-1.2,0.2-1.8
		c0-0.2,0.4-0.7,0.7-0.7c0.6,0,1.2-0.1,1.8-0.1c3.1,0,6.2,0,9.3,0c0.6,0,1.2,0,1.8,0c1.1,0,1.4-0.2,1.5-1.3c0-0.5,0.1-1,0.1-1.5
		c0-0.4,0.4-0.8,0.8-0.8c0.6,0,1.2,0,1.8,0c0.4,0,0.7,0.4,0.8,0.8c0.1,0.7,0.1,1.3,0.1,2c0,0.3,0.3,0.7,0.6,0.7c0.5,0,1,0.1,1.5,0.1
		c2.2,0,4.4,0,6.6,0c0.6,0,1.2,0,1.8,0.1c0.3,0,0.6,0.3,0.7,0.6c0,0.3,0.1,0.7,0.1,1c0,0.4,0,0.8,0.1,1.3c0,0.4,0.4,0.8,0.8,0.8
		c0.8,0.1,1.5,0.1,2.3,0.2c0.3,0,0.6,0.4,0.6,0.7c0,0.2,0.1,0.3,0.1,0.5s0,0.3,0,0.5c0,1.8,0,1.9,2,1.9c0.3,0,0.5,0,0.8,0
		c0.5,0,0.8,0.3,0.8,0.8c0,0.7,0.1,1.3,0.1,2c0,3.8,0,7.5,0,11.3c0,1.9,0,3.9,0,5.8c0,0.6,0,1.2-0.1,1.8c0,0.3-0.3,0.6-0.6,0.7
		c-0.8,0-1.5,0.1-2.3,0.1c-0.3,0-0.6,0.3-0.7,0.6c-0.1,0.7-0.1,1.5-0.2,2.2c0,0.3-0.4,0.6-0.7,0.7c-0.6,0-1.2,0.1-1.8,0.1
		c-0.9,0.1-1.3,0.4-1.3,1.2c-0.1,2.9,0.2,2.6-2.9,2.6C200.3,54.8,196.9,54.8,193.5,54.8z M187.5,24.5c-0.6,0-1.2,0.1-1.8,0.1
		c-1.3,0-2.5,0-3.8,0c-0.3,0-0.7,0-1,0.1c-0.2,0.1-0.4,0.3-0.5,0.5c-0.1,0.3-0.1,0.7-0.1,1c0,5.3,0,10.5,0,15.8c0,0.3,0.1,0.7,0.1,1
		s0.4,0.7,0.6,0.7c0.7,0.1,1.5,0.1,2.2,0.2c0.3,0,0.6,0.3,0.6,0.7c0.1,0.7,0.1,1.5,0.2,2.2c0,0.2,0.3,0.5,0.5,0.5
		c0.4,0.1,0.8,0.1,1.2,0.1c5.2,0,10.4,0,15.6,0c1.7,0,1.8-0.1,1.9-1.9c0-1.5,0-3,0-4.5c0-0.8,0.3-1.1,1-1.1c0.6,0,1.2,0,1.8-0.1
		c0.6,0,0.9-0.4,0.9-1c0-0.4,0.1-0.8,0.1-1.3c0-2.3,0-4.7,0-7c0-0.4,0-0.8-0.1-1.3c0-0.6-0.4-1-0.9-1c-0.6-0.1-1.2-0.1-1.8-0.1
		c-0.7-0.1-1-0.3-1-1.1c0-0.3,0-0.7,0-1c0-0.2,0-0.5-0.1-0.7c0-0.3-0.3-0.6-0.6-0.7c-0.4,0-0.8-0.1-1.3-0.1c-1.3,0-2.5,0-3.8,0
		c-0.4,0-0.8,0-1.2-0.1c-0.2,0-0.5-0.2-0.5-0.5c-0.1-0.8-0.1-1.7-0.2-2.5c0-0.2-0.3-0.4-0.5-0.5c-0.3-0.1-0.6-0.2-1-0.2
		c-1.6,0-3.2,0-4.8,0c-0.2,0-0.5,0.1-0.7,0.1s-0.7,0.4-0.7,0.7c0,0.7,0,1.3-0.1,2C187.7,23.9,187.6,24.2,187.5,24.5z"/>
	<path class="st0" d="M293.4,54.7c-0.6,0-1.1,0.1-1.6,0.1c-6.2,0-12.4,0-18.7,0c-0.4,0-0.8,0-1.3-0.1c-0.2,0-0.5-0.2-0.5-0.5
		c-0.1-0.8-0.1-1.5-0.1-2.3c0-0.5-0.3-0.8-0.8-0.9c-0.5-0.1-1-0.1-1.5-0.1c-1.2-0.1-1.4-0.4-1.4-1.6c0-2.8,0-5.5,0-8.3
		c0-1.1,0-2.2,0-3.3c0-0.2,0.1-0.5,0.1-0.7c0-0.3,0.4-0.6,0.7-0.7c0.7-0.1,1.3-0.1,2-0.2c0.5,0,0.9-0.4,0.9-1s0-1.2,0.1-1.8
		c0-0.8,0.3-1,1.1-1c0.8,0,1.5,0,2.3,0c5.6,0,11.3,0,16.9,0c2.3,0,2.4,0.1,2.4-2.3c0-0.2,0-0.5,0.1-0.7s0.2-0.5,0.5-0.5
		c0.8-0.1,1.5-0.1,2.3-0.2c0.4,0,0.8-0.4,0.8-0.8c0.1-0.8,0.1-1.7,0-2.5c-0.1-0.3-0.4-0.7-0.6-0.7c-0.7,0-1.3-0.1-2-0.1
		s-0.9-0.3-1-0.9c0-0.2,0-0.3,0-0.5c0-2.3-0.1-2.4-2.4-2.4c-2.4,0-4.7,0-7.1,0c-0.4,0-0.8,0-1.3,0.1c-0.6,0.1-1,0.4-1,1
		c0,0.7-0.1,1.3-0.1,2c0,0.5-0.3,0.7-0.8,0.8c-0.7,0-1.3,0.1-2,0.1c-0.4,0-0.8,0.4-0.8,0.8c0,0.5,0,1-0.1,1.5
		c-0.1,0.9-0.4,1.2-1.2,1.3c-0.2,0-0.3,0-0.5,0c-2.5,0-5,0-7.6,0c-0.3,0-0.7-0.1-1-0.1s-0.6-0.4-0.6-0.7c0-0.6,0-1.2,0-1.7
		c0-0.4,0.4-0.8,0.8-0.8c0.7,0,1.3-0.1,2-0.1c0.4,0,0.8-0.4,0.8-0.8c0-1.3,0-2.7,0.1-4c0-0.7,0-1.3,0.1-2c0-0.3,0.4-0.6,0.7-0.6
		c0.5,0,1-0.1,1.5-0.1c3.4,0,6.7,0,10.1,0c0.7,0,1.3,0,2-0.1c0.3,0,0.6-0.3,0.7-0.6c0-0.7,0.1-1.3,0.1-2c0-0.2,0-0.3,0.1-0.5
		c0.1-0.1,0.2-0.3,0.4-0.3c0.7-0.2,1.5-0.2,2.2,0c0.3,0,0.5,0.3,0.5,0.5c0.1,0.7,0.1,1.5,0.2,2.2c0,0.4,0.4,0.8,0.8,0.8
		c0.7,0,1.3,0,2,0.1c2.2,0,4.4,0,6.6,0c0.3,0,0.7,0,1,0c0.4,0,0.8,0.4,0.9,0.8c0,0.6,0.1,1.2,0.1,1.8c0,0.1,0,0.2,0,0.3
		c0,0.6,0.4,1,0.9,1c0.7,0.1,1.3,0.1,2,0.1c0.3,0,0.6,0.3,0.7,0.6c0,0.5,0.1,1,0.1,1.5c0,9.7,0,19.4,0,29.2c0,0.6-0.1,1.2-0.1,1.7
		c0,0.1-0.2,0.3-0.3,0.4c-0.1,0-0.2,0-0.2,0c-1.8,0-3.7,0-5.5,0c-0.4,0-0.8-0.3-0.8-0.8c-0.1-0.7-0.1-1.5-0.2-2.2
		c0-0.3-0.4-0.6-0.7-0.7c-0.8,0-1.5-0.1-2.3,0c-0.6,0-0.9,0.4-1,0.9c0,0.6,0,1.2-0.1,1.8C293.6,54.1,293.5,54.4,293.4,54.7z
		 M274.8,43.6L274.8,43.6c0,1,0,2,0,3c0,0.4,0.4,0.8,0.8,0.8c0.8,0,1.5,0.1,2.3,0.1c0.3,0,0.6,0.4,0.7,0.7c0.1,0.7,0.1,1.5,0.2,2.2
		c0,0.4,0.4,0.8,0.8,0.8c2,0,4,0,6,0c0.1,0,0.2,0,0.2-0.1c0.3-0.1,0.6-0.4,0.6-0.7c0.1-0.7,0.1-1.5,0.1-2.2c0-0.4,0.4-0.8,0.8-0.8
		c1.1,0,2.2,0,3.3,0c0.7,0,1.3,0,2,0c1.1,0,1.3-0.2,1.4-1.3c0-0.5,0-1,0.1-1.5c0-0.5,0.3-0.8,0.8-0.8c0.7-0.1,1.5-0.1,2.2-0.2
		c0.2,0,0.4-0.3,0.5-0.5s0.1-0.5,0.1-0.7c0-1.8,0-3.5,0-5.3c0-0.2,0-0.5-0.2-0.7c-0.1-0.2-0.3-0.4-0.5-0.5s-0.5-0.1-0.7-0.1
		c-4.2,0-8.4,0-12.6,0c-0.2,0-0.5,0.1-0.7,0.1s-0.6,0.4-0.7,0.7c0,0.7-0.1,1.3-0.1,2s-0.3,0.9-0.9,1c-1.2,0-2.3,0-3.5,0
		c-0.8,0-1.5,0-2.3,0.1c-0.4,0-0.8,0.4-0.8,0.8C274.8,41.6,274.8,42.6,274.8,43.6z"/>
	<path class="st0" d="M146.2,54.8c-4.1,0-8.2,0-12.4,0c-0.5,0-1,0-1.5,0c-0.6,0-0.9-0.3-0.9-1c0-0.5-0.1-1-0.1-1.5
		c0-0.1,0-0.2,0-0.2c-0.1-0.6-0.4-1-0.9-1c-0.4,0-0.8-0.1-1.3-0.1c-1.4-0.1-1.5-0.2-1.5-1.7c0-0.4,0-0.8-0.1-1.3
		c0-0.3-0.3-0.6-0.6-0.7c-0.6,0-1.2-0.1-1.8-0.1c-0.2,0-0.5,0-0.7-0.1c-0.1,0-0.3-0.2-0.3-0.3c-0.3-0.8-0.3-1.6,0-2.5
		c0.1-0.1,0.2-0.3,0.4-0.3c0.2-0.1,0.5-0.1,0.7-0.1c2.9,0,5.7,0,8.6,0c0.7,0,1,0.3,1.1,1.1c0,0.6,0.1,1.2,0.1,1.8
		c0,0.4,0.4,0.7,0.9,0.7s1,0,1.5,0c6,0,12.1,0,18.1,0c2.4,0,2.4,0,2.4-2.3c0-1.4,0-2.8,0-4.3c0-0.8-0.4-1.1-1.3-1.2
		c-0.7,0-1.3,0-2,0c-3.3,0-6.6,0-9.8,0c-0.5,0-1,0-1.5-0.1c-0.1,0-0.3-0.2-0.3-0.3c-0.1-0.6-0.1-1.2-0.1-1.7c0-0.3,0-0.5-0.1-0.8
		c0-0.4-0.4-0.7-0.9-0.8c-0.6,0-1.2-0.1-1.8-0.1c-1.8,0-3.7,0-5.5,0c-0.7,0-1.3,0-2-0.1c-0.6,0-1-0.4-1-0.9
		c-0.1-0.6-0.1-1.2-0.2-1.8s-0.4-0.9-0.9-1c-0.7,0-1.3,0-2-0.1c-0.4,0-0.7-0.3-0.7-0.6c0-0.2-0.1-0.5-0.1-0.7c0-2.7,0-5.4,0-8
		c0-0.3,0-0.5,0.1-0.8c0-0.3,0.3-0.6,0.6-0.7c0.8-0.1,1.5-0.1,2.3-0.2c0.3,0,0.7-0.4,0.7-0.7c0.1-0.6,0.1-1.2,0.2-1.7
		c0.1-1.2,0.3-1.4,1.6-1.4c1.7,0,3.4,0,5,0c0.8,0,1.5,0,2.3,0c2.3,0,2.4,0,2.4-2.3c0-0.2,0-0.5,0.1-0.7s0.2-0.5,0.5-0.5
		c0.6,0,1.2-0.1,1.8-0.1s1,0.3,1,0.9c0,0.7,0.1,1.3,0.1,2c0,0.3,0.4,0.6,0.7,0.6c0.7,0,1.3,0.1,2,0.1c3.3,0,6.6,0,9.8,0
		c0.6,0,1.2,0,1.8,0.1c0.3,0,0.7,0.3,0.7,0.6c0,0.6,0.1,1.2,0.1,1.8c0.1,1.2,0.3,1.4,1.6,1.5c0.5,0,1,0,1.5,0.1
		c0.3,0,0.6,0.4,0.7,0.7c0,0.7,0.1,1.3,0.1,2c0,1.2,0,2.3-0.1,3.5c0,0.4-0.4,0.8-0.8,0.8c-1.8,0-3.7,0-5.5,0c-0.4,0-0.7-0.4-0.8-0.8
		c0-0.7-0.1-1.3-0.1-2c0-0.3-0.3-0.6-0.6-0.7c-0.8-0.1-1.5-0.1-2.3-0.1c-0.3,0-0.6-0.3-0.7-0.6c-0.1-0.7-0.1-1.5-0.2-2.2
		c0-0.4-0.4-0.8-0.8-0.8s-0.8-0.1-1.3-0.1c-3.7,0-7.4,0-11.1,0c-0.5,0-1,0.1-1.5,0.1c-0.2,0-0.6,0.4-0.7,0.7c0,0.5-0.1,1-0.1,1.5
		c0,0.3,0,0.5-0.1,0.8c0,0.4-0.3,0.7-0.6,0.7c-0.8,0-1.5,0.1-2.3,0.1c-0.3,0-0.6,0.3-0.7,0.6c0,0.2-0.1,0.5-0.1,0.7
		c0,2.6,0,2.7,2.6,2.7c1.3,0,2.7,0,4,0.1c0.4,0,0.8,0.4,0.8,0.8c0.1,0.7,0.1,1.3,0.1,2c0,0.4,0.4,0.7,0.8,0.8c0.8,0,1.5,0,2.3,0
		c4.4,0,8.7,0,13.1,0c0.6,0,1.2,0,1.8,0c0.4,0,0.7,0.4,0.8,0.8c0,0.7,0.1,1.3,0.1,2c0,0.5,0.4,0.9,1,1c0.7,0,1.3,0.1,2,0.1
		c0.3,0,0.7,0.4,0.7,0.6c0,0.3,0.1,0.7,0.1,1c0,3.8,0,7.5,0,11.3c0,0.2,0,0.5-0.1,0.7c0,0.4-0.4,0.8-0.8,0.8c-0.7,0.1-1.3,0.1-2,0.2
		c-0.6,0.1-0.9,0.4-0.9,1s0,1.2-0.1,1.8c0,0.7-0.3,1-1.1,1c-0.6,0-1.2,0-1.8,0C154.3,54.8,150.3,54.8,146.2,54.8z"/>
	<path class="st0" d="M222.2,36c0-5.1,0-10.2,0-15.3c0-0.8,0-1.5,0.1-2.3c0-0.7,0.4-1,1.1-1c1.6,0,3.2,0,4.8,0
		c0.9,0,1.1,0.2,1.2,1.2c0,0.5,0,1,0.1,1.5c0,0.7,0.4,1,1.1,1.1c0.7,0,1.3,0,2,0c0.5,0,0.9-0.4,0.9-1c0-0.7,0.1-1.3,0.1-2
		c0-0.4,0.4-0.7,0.8-0.8c0.5,0,1,0,1.5,0c5.9,0,11.8,0,17.6,0c0.4,0,0.8,0,1.3,0c0.7,0,1,0.4,1.1,1.1c0,0.6,0,1.2,0.1,1.8
		c0,0.5,0.4,0.9,1,0.9c0.3,0,0.5,0,0.8,0c1.8,0,1.9,0.1,1.9,1.8c0,10,0,19.9,0,29.9c0,0.4,0,0.8-0.1,1.2c0,0.2-0.3,0.4-0.5,0.5
		c-0.4,0.1-0.8,0.1-1.2,0.1c-1.5,0-3,0-4.5-0.1c-0.3,0-0.6-0.3-0.7-0.6c-0.1-0.7-0.1-1.5-0.1-2.3c0-4.1,0-8.2,0-12.3
		c0-3.9,0-7.7,0-11.6c0-0.8,0-1.5-0.1-2.3c0-0.7-0.4-1-1.1-1c-1.6,0-3.2,0-4.8,0c-0.3,0-0.5,0-0.8-0.1c-0.3,0-0.7-0.3-0.7-0.6
		c-0.1-0.7-0.1-1.5-0.2-2.2c0-0.4-0.4-0.8-0.8-0.8s-0.8-0.1-1.3-0.1c-1.6,0-1.9,0.2-1.9,1.9c0,0.5-0.1,1-0.2,1.5
		c0,0.1-0.2,0.3-0.3,0.3c-0.3,0.1-0.7,0.1-1,0.1c-1.5,0-3,0-4.5,0c-0.3,0-0.5,0-0.8,0.1c-0.3,0-0.7,0.3-0.7,0.6
		c-0.1,0.7-0.1,1.5-0.2,2.2c0,0.3-0.4,0.6-0.7,0.7c-0.8,0.1-1.5,0.1-2.3,0.2c-0.4,0-0.8,0.5-0.8,0.9c0,0.8-0.1,1.7-0.1,2.5
		c0,6.7,0,13.4,0,20.1c0,3.1,0.2,2.8-2.8,2.9c-1.2,0-2.4,0-3.5-0.1c-0.3,0-0.6-0.3-0.7-0.6c-0.1-0.7-0.1-1.5-0.1-2.3
		C222.2,46.6,222.2,41.3,222.2,36z"/>
	<path class="st0" d="M373.1,28.5c0,7.8,0,15.6,0,23.4c0,0.8-0.1,1.7-0.1,2.5c0,0.1-0.2,0.3-0.3,0.4c-0.1,0.1-0.3,0.1-0.5,0.1
		c-3,0-6,0-9.1,0c-0.2,0-0.3,0-0.5-0.1c-0.1-0.1-0.3-0.2-0.3-0.4c-0.1-0.7-0.1-1.3-0.1-2c0-15.8,0-31.6,0-47.5
		c0-2.7-0.1-2.6,2.6-2.6c2.2,0,4.4,0,6.5,0c0.4,0,0.8,0,1.2,0.1c0.2,0,0.5,0.2,0.5,0.5c0,0.8,0.1,1.7,0.1,2.5
		C373.1,13.1,373.1,20.8,373.1,28.5z"/>
	<path class="st0" d="M2.8,36.1c0-5.3,0-10.6,0-15.8c0-0.7,0.1-1.5,0.1-2.2c0-0.3,0.4-0.6,0.7-0.6c1.8,0,3.7,0,5.5,0
		c0.4,0,0.7,0.4,0.8,0.8c0.1,0.7,0.1,1.5,0.2,2.2c0,0.3,0.4,0.6,0.7,0.7c0.8,0,1.5,0.1,2.3,0.1s1-0.4,1.1-1.1c0-0.7,0.1-1.3,0.1-2
		c0-0.3,0.3-0.6,0.7-0.7c0.2,0,0.3,0,0.5,0c4.1,0,8.2,0,12.3,0c0.2,0,0.5,0.1,0.7,0.2c0.1,0.1,0.3,0.2,0.3,0.4
		c0.1,0.1,0.1,0.3,0.1,0.5c0,1.8,0,3.5,0,5.3c0,0.7-0.4,1-1.1,1s-1.3,0-2,0c-3.2,0-6.4,0-9.6,0c-0.6,0-1.2,0-1.8,0.1
		c-0.2,0-0.5,0.2-0.5,0.5c-0.1,0.7-0.1,1.3-0.2,2c-0.1,0.7-0.4,1-1.2,1.1c-0.2,0-0.3,0-0.5,0c-2.2,0-2.2,0.4-2.2,2.4
		c0,7,0,13.9,0,20.9c0,0.8,0,1.7-0.1,2.5c0,0.3-0.3,0.6-0.6,0.6c-0.4,0-0.8,0.1-1.3,0.1c-1.6-0.1-3.2,0.3-4.7-0.2
		c-0.4-0.1-0.5-0.6-0.5-4.9C2.8,45.2,2.8,40.7,2.8,36.1z"/>
	<path class="st0" d="M439.4,24.6c-2.3,0-4.7,0-7,0c-0.5,0-1,0-1.5-0.1c-0.2,0-0.4-0.3-0.5-0.4c0-0.1-0.1-0.2-0.1-0.2
		c0-1.9,0-3.8,0-5.8c0-0.3,0.3-0.7,0.6-0.7c0.7,0,1.3,0,2,0c0.3,0,0.6,0.3,0.6,0.7c0,0.6,0,1.2,0.1,1.8c0,0.2,0,0.5,0.1,0.7
		s0.3,0.5,0.5,0.5c0.6,0.1,1.2,0.2,1.7,0.2c3.1,0,6.2,0,9.3,0c0.8,0,1.5,0,2.3,0c0.9,0,1.1,0.3,1.1,1.3c0,0.5,0,1-0.1,1.5
		c0,0.3-0.2,0.5-0.5,0.5c-0.5,0.1-1,0.1-1.5,0.1C444.2,24.6,441.8,24.6,439.4,24.6z"/>
</g>
</svg>
