<?xml version="1.0" encoding="utf-8"?>
<!-- Generator: Adobe Illustrator 26.0.2, SVG Export Plug-In . SVG Version: 6.00 Build 0)  -->
<svg version="1.1" id="Layer_1" xmlns="http://www.w3.org/2000/svg" xmlns:xlink="http://www.w3.org/1999/xlink" x="0px" y="0px"
	 viewBox="0 0 143 69" style="enable-background:new 0 0 143 69;" xml:space="preserve">
<style type="text/css">
	.st0{fill:#FFFFFF;}
</style>
<g>
	<path class="st0" d="M127.8,54.7c-0.6,0-1.1,0.1-1.6,0.1c-6.2,0-12.4,0-18.6,0c-0.4,0-0.8,0-1.3-0.1c-0.2,0-0.5-0.2-0.5-0.5
		c-0.1-0.7-0.1-1.3-0.1-2s-0.4-1.1-1-1.2c-0.2,0-0.5,0-0.8-0.1c-1.7-0.1-1.9-0.2-2-2.1c0-0.3,0-0.5-0.1-0.7
		c-0.1-0.5-0.4-0.8-0.8-0.8c-0.5,0-1,0-1.5-0.1c-1.1,0-1.4-0.1-1.4-1.5c0-5.1,0-10.2,0-15.3c0-1.3,0-2.5,0-3.8c0-0.3,0-0.5,0-0.8
		c0-0.7,0.3-1,1.1-1c0.5,0,1,0,1.5,0c0.7,0,1-0.3,1.1-1.1c0-0.5,0.1-1,0.1-1.5c0.1-0.6,0.4-0.9,0.9-1c0.7-0.1,1.3-0.1,2-0.2
		c0.3,0,0.6-0.4,0.7-0.7c0-0.2,0.1-0.5,0.1-0.7c0-2.5,0-2.4,2.3-2.4c6,0,12.1,0,18.1,0c1.5,0,1.9,0.1,1.9,1.8c0,0.4,0,0.8,0.1,1.3
		c0,0.3,0.4,0.7,0.7,0.7c0.8,0,1.7,0,2.5,0c0.3,0,0.7-0.4,0.7-0.6c0.1-0.7,0.1-1.5,0.1-2.2c0-4.1,0-8.2,0-12.3c0-0.7,0-1.3,0-2
		c0-0.3,0.1-0.7,0.1-1s0.4-0.6,0.7-0.6c1.8,0,3.7,0,5.5,0c0.4,0,0.7,0.4,0.8,0.8c0,0.8,0,1.5,0,2.3c0,4.4,0,8.9,0,13.3
		c0,11,0,21.9,0,32.9c0,0.8,0,1.7-0.1,2.5c0,0.3-0.3,0.6-0.7,0.6c-1.8,0-3.5,0-5.3,0c-0.7,0-1-0.3-1.1-1.1c-0.1-0.7-0.1-1.3-0.2-2
		c0-0.3-0.4-0.6-0.7-0.6c-0.8-0.1-1.7-0.1-2.5,0c-0.3,0-0.7,0.4-0.7,0.7c0,0.7,0,1.3-0.1,2C128.1,54.1,127.9,54.4,127.8,54.7z
		 M118.9,47.5c2.3,0,4.7,0,7,0c0.6,0,1.2,0,1.8-0.1c0.3,0,0.7-0.3,0.7-0.6c0.1-0.7,0.1-1.5,0.2-2.2c0-0.3,0.3-0.6,0.7-0.6
		c0.8-0.1,1.5-0.1,2.3-0.2c0.2,0,0.6-0.4,0.7-0.7c0.1-0.6,0.1-1.2,0.1-1.7c0-3.5,0-7,0-10.5c0-0.5,0-1-0.1-1.5
		c0-0.4-0.4-0.8-0.8-0.9c-0.5-0.1-1-0.1-1.5-0.1c-1.2-0.1-1.3-0.3-1.4-1.3c0-0.4,0-0.8,0-1.3c0-0.8-0.3-1.1-1.1-1.1
		c-0.8,0-1.7,0-2.5,0c-1,0-2,0-3,0c-0.6,0-0.9-0.3-0.9-1s-0.1-1.3-0.1-2c0-0.3-0.4-0.6-0.6-0.7c-0.9-0.2-1.8-0.2-2.7,0
		c-0.3,0.1-0.6,0.4-0.6,0.7c0,0.8-0.1,1.5-0.1,2.3c0,0.4-0.3,0.7-0.6,0.7c-1.1,0-2.2,0-3.3,0.1c-0.9,0-1.8,0-2.8,0.1
		c-0.4,0-0.8,0.4-0.8,0.8c-0.1,0.7-0.1,1.5-0.2,2.2c0,0.1-0.2,0.3-0.3,0.4c-0.2,0.1-0.5,0.1-0.7,0.2c-0.6,0.1-1.2,0.1-1.7,0.2
		c-0.3,0-0.7,0.4-0.7,0.7c0,0.4-0.1,0.8-0.1,1.2c0,3.8,0,7.5,0,11.3c0,0.4,0,0.8,0.1,1.3c0,0.4,0.4,0.8,0.8,0.9
		c0.7,0.1,1.3,0.1,2,0.1c0.5,0,0.8,0.3,0.8,0.8c0,0.7,0.1,1.3,0.1,2c0,0.4,0.4,0.7,0.8,0.8c0.4,0,0.8,0,1.3,0
		C113.9,47.5,116.4,47.5,118.9,47.5z"/>
	<path class="st0" d="M44.5,54.7c-0.3,0-0.7,0.1-1,0.1c-2.7,0-5.4,0-8.1,0c-0.3,0-0.5,0-0.8-0.1c-0.3,0-0.7-0.4-0.7-0.6
		c-0.1-0.7-0.1-1.5-0.2-2.2c0-0.4-0.4-0.8-0.8-0.8c-0.5,0-1-0.1-1.5-0.1c-1.3,0-1.6,0.3-1.6,1.6c0,0.6-0.1,1.2-0.2,1.7
		c0,0.1-0.2,0.3-0.3,0.3c-0.3,0.1-0.7,0.1-1,0.1c-1.6,0-3.2,0-4.8,0c-4.6,0-9.2,0-13.9,0c-0.6,0-1.2,0-1.8-0.1
		c-0.1,0-0.3-0.2-0.3-0.3c-0.1-0.6-0.1-1.2-0.1-1.7c0-0.3,0-0.5-0.1-0.8c0-0.4-0.4-0.7-0.8-0.8c-0.6,0-1.2,0-1.7-0.1
		c-0.7-0.1-1-0.4-1.1-1.2c0-0.3,0-0.7,0-1c0-3.4,0-6.9,0-10.3c0-0.4,0-0.8,0.1-1.3c0-0.4,0.4-0.8,0.8-0.8c0.7-0.1,1.3-0.1,2-0.2
		c0.4,0,0.8-0.4,0.8-0.8c0.1-0.8,0.1-1.5,0.1-2.3c0-0.3,0.3-0.6,0.6-0.7c0.8,0,1.5-0.1,2.3-0.1c5.5,0,10.9,0,16.4,0
		c0.8,0,1.5,0,2.3,0c0.9,0,1-0.4,1.1-1.1c0-0.6,0.1-1.2,0.1-1.8c0-0.3,0.3-0.7,0.6-0.7c0.4,0,0.8-0.1,1.3-0.1c0.3,0,0.7,0,1-0.1
		c0.3,0,0.6-0.4,0.7-0.6c0.2-0.9,0.2-1.8,0-2.7c0-0.3-0.4-0.6-0.7-0.6c-0.8,0-1.5-0.1-2.3-0.1c-0.3,0-0.6-0.3-0.6-0.6
		c0-0.2,0-0.5-0.1-0.7c0-0.5,0-1-0.1-1.5c0-0.3-0.4-0.7-0.6-0.7c-0.3,0-0.7-0.1-1-0.1c-2.8,0-5.5,0-8.3,0c-0.3,0-0.7,0.1-1,0.1
		c-0.2,0-0.6,0.4-0.7,0.7c0,0.7-0.1,1.3-0.1,2s-0.3,0.9-0.9,1c-0.7,0-1.3,0.1-2,0.1c-0.3,0-0.7,0.3-0.7,0.6
		c-0.1,0.7-0.1,1.5-0.2,2.2c0,0.3-0.4,0.6-0.7,0.7c-0.2,0-0.5,0.1-0.7,0.1c-2.6,0-5.2,0-7.8,0c-0.3,0-0.5,0-0.8-0.1
		c-0.4,0-0.8-0.4-0.9-0.8c0-0.4-0.1-0.8-0.1-1.2c0-0.9,0.3-1.3,1.4-1.3c0.4,0,0.8,0,1.3,0c0.8,0,1-0.3,1.1-1.1c0-0.5,0-1,0.1-1.5
		c0-0.6,0.3-1,0.9-1c0.6,0,1.2,0,1.8-0.1s0.9-0.3,1-0.9c0.1-0.7,0.1-1.3,0.2-2c0.1-0.6,0.4-0.9,1-0.9c2.2,0,4.4,0,6.5,0
		c0.9,0,1.8,0,2.8,0c0.6,0,0.9-0.4,0.9-1c0-0.3,0-0.7,0-1c0.1-1.5,0.2-1.6,1.8-1.6c0.3,0,0.7,0,1,0.1c0.2,0.1,0.4,0.3,0.5,0.5
		c0.1,0.7,0.1,1.5,0.2,2.2c0,0.3,0.3,0.7,0.6,0.7c0.6,0,1.2,0.1,1.8,0.1c3.3,0,6.5,0,9.8,0c0.7,0,1.3,0,2,0c0.4,0,0.8,0.4,0.8,0.8
		c0,0.8,0,1.7,0,2.5c0,9.1,0,18.3,0,27.4c0,0.8,0.1,1.7,0.1,2.5c0,0.3,0.4,0.7,0.7,0.7c0.7,0.1,1.5,0.1,2.3,0.2
		c0.4,0,0.8,0.4,0.8,0.8c0,0.6,0,1.2,0,1.7C44.8,54.3,44.6,54.5,44.5,54.7z M10.9,43.6C10.8,43.6,10.8,43.6,10.9,43.6
		c0,0.7,0,1.3,0,2c0,1.7,0.2,1.8,1.9,1.9c1.5,0,3,0,4.5,0c0.8,0,1.1,0.3,1.1,1s0.1,1.3,0.1,2c0,0.3,0.3,0.7,0.6,0.7
		c0.9,0.2,1.8,0.2,2.7,0c0.3-0.1,0.6-0.4,0.6-0.7s0.1-0.7,0.1-1c0-2.1,0.1-2.1,2.1-2.1c0.4,0,0.8,0,1.3,0c1,0,2,0,3,0
		c0.8,0,1.1-0.3,1.1-1c0-0.3,0-0.7,0-1c0.2-1.4,0.2-1.4,1.7-1.5c0.4,0,0.8,0,1.3-0.1c0.4,0,0.8-0.4,0.8-0.8c0.2-2.1,0.2-4.2,0-6.3
		c0-0.4-0.4-0.7-0.9-0.8c-0.2,0-0.3,0-0.5,0c-4.1,0-8.2,0-12.3,0c-0.3,0-0.7,0.1-1,0.1c-0.2,0-0.6,0.5-0.6,0.7
		c0,0.8-0.1,1.5-0.1,2.3c0,0.3-0.3,0.6-0.6,0.7c-0.8,0-1.5,0.1-2.3,0.1c-1.2,0-2.3,0-3.5,0c-0.7,0-1,0.4-1.1,1.1
		C10.8,41.8,10.9,42.7,10.9,43.6z"/>
	<path class="st0" d="M49,35.9c0-5.2,0-10.4,0-15.6c0-0.8,0.1-1.5,0.1-2.3c0-0.3,0.4-0.7,0.7-0.7s0.5-0.1,0.8-0.1c2.7,0,5.4,0,8.1,0
		c0.2,0,0.3,0,0.5,0c0.4,0,0.8,0.4,0.8,0.8c0,0.6,0.1,1.2,0.1,1.8c0,0.2,0,0.3,0.1,0.5c0,0.3,0.4,0.7,0.6,0.7c0.8,0,1.7,0,2.5,0
		c0.3,0,0.7-0.4,0.7-0.6c0.1-0.7,0.2-1.5,0.2-2.2c0.1-0.6,0.4-0.9,1-0.9c0.4,0,0.8,0,1.3,0c5.9,0,11.8,0,17.6,0c0.5,0,1,0,1.5,0
		c0.4,0,0.7,0.4,0.8,0.8c0,0.7,0.1,1.3,0.1,2c0,0.5,0.4,0.9,1,0.9c0.7,0.1,1.5,0.1,2.2,0.2c0.1,0,0.3,0.2,0.3,0.3
		c0.1,0.2,0.2,0.5,0.2,0.7c0,0.5,0,1,0,1.5c0,9.5,0,18.9,0,28.4c0,0.6,0,1.2-0.1,1.8c0,0.3-0.3,0.7-0.6,0.7c-1.9,0-3.9,0-5.8,0
		c-0.3,0-0.7-0.3-0.7-0.6c0-0.8-0.1-1.7-0.1-2.5c0-7.8,0-15.6,0-23.4c0-0.8,0-1.5,0-2.3c0-1-0.3-1.3-1.4-1.3c-1.4,0-2.9,0-4.3,0
		c-0.3,0-0.7,0-1,0c-0.5,0-0.8-0.3-0.8-0.8c0-0.7-0.1-1.3-0.1-2c0-0.5-0.4-0.9-1-1c-2-0.1-4-0.2-6,0c-0.4,0-0.7,0.4-0.8,0.9
		c0,0.1,0,0.2,0,0.2c0,3-0.1,2.6-2.9,2.6c-1.3,0-2.5,0-3.8,0.1c-0.5,0-0.8,0.3-0.8,0.8c0,0.8-0.1,1.7-0.1,2.5c0,8,0,15.9,0,23.9
		c0,0.8-0.1,1.5-0.1,2.3c0,0.3-0.3,0.6-0.6,0.7c-0.2,0-0.3,0-0.5,0c-2.8,0-5.5,0-8.3,0c-0.3,0-0.5,0-0.7-0.1s-0.4-0.3-0.5-0.5
		S49,53.6,49,53.4c0-0.8,0-1.5,0-2.3C49,46.2,49,41,49,35.9z"/>
</g>
</svg>
