<?xml version="1.0" encoding="utf-8"?>
<!-- Generator: Adobe Illustrator 26.0.2, SVG Export Plug-In . SVG Version: 6.00 Build 0)  -->
<svg version="1.1" id="Layer_1" xmlns="http://www.w3.org/2000/svg" xmlns:xlink="http://www.w3.org/1999/xlink" x="0px" y="0px"
	 viewBox="0 0 143 69" style="enable-background:new 0 0 143 69;" xml:space="preserve">
<style type="text/css">
	.st0{fill:#333333;}
</style>
<g>
	<path class="st0" d="M43.3,54.4v0.4h-8.5c-0.6-0.6-1.1-2.3-1.1-4.7V49c-3.7,4.7-9.6,6.9-17,6.9C8.6,55.9,1.6,52,1.6,43.7
		c0-8.2,5.5-11.3,11.4-12l15.2-1.6c3.4-0.4,5-1.4,5-3.9c0-2.6-2.9-4.4-9.7-4.4c-6.1,0-10.3,1.9-10.6,5.8H3.8
		c0.2-9.2,9.4-12.7,19.6-12.7c11.1,0,18.8,2.9,18.8,11.3v22.2C42.2,50.8,42.3,53.2,43.3,54.4z M33.5,35.4c-0.8,0.6-2,0.8-3.2,0.9
		l-13.4,1.8c-3.6,0.4-6.2,1.8-6.2,5.7c0,4.3,3.3,5.8,8,5.8c6,0,14.9-2.7,14.9-11.7L33.5,35.4L33.5,35.4z"/>
	<path class="st0" d="M58.5,21.3h0.3c3.7-4,9.1-5.9,15.2-5.9c9.4,0,16.5,3.9,16.5,13.6v25.8h-8.7V32.1c0-6.9-3.9-9.5-10.7-9.5
		c-5.9,0-12.3,3.1-12.3,11.7v20.6h-8.7V16.3h8.5L58.5,21.3L58.5,21.3z"/>
	<path class="st0" d="M131.3,21.8V3h8.7v51.8h-8.5v-5.5h-0.3c-2.9,4.2-8.2,6.7-14.8,6.7c-12.1,0-20.5-7.5-20.5-20.3
		c0-12.9,8.4-20.3,20.5-20.3c6.6,0,11.7,2.6,14.5,6.4C131,21.8,131.3,21.8,131.3,21.8z M131.6,35.7c0-7.9-5-13.2-13.2-13.2
		c-8.3,0-13.2,4.4-13.2,13.2s4.9,13.2,13.2,13.2C126.6,48.9,131.6,43.6,131.6,35.7z"/>
</g>
</svg>
