<?xml version="1.0" encoding="utf-8"?>
<!-- Generator: Adobe Illustrator 26.0.2, SVG Export Plug-In . SVG Version: 6.00 Build 0)  -->
<svg version="1.1" id="Layer_1" xmlns="http://www.w3.org/2000/svg" xmlns:xlink="http://www.w3.org/1999/xlink" x="0px" y="0px"
	 viewBox="0 0 290 69" style="enable-background:new 0 0 290 69;" xml:space="preserve">
<style type="text/css">
	.st0{fill:#FFFFFF;}
</style>
<g>
	<path class="st0" d="M1.5,28.3c0-7.6,0-15.3,0-22.9c0-0.8,0-1.7,0.1-2.5c0-0.3,0.3-0.7,0.6-0.7c0.5,0,1-0.1,1.5-0.1
		c13.5,0,27.1,0,40.6,0c0.5,0,1,0,1.5,0.1c0.3,0,0.6,0.4,0.7,0.7c0,0.2,0.1,0.5,0.1,0.7c0,2.7,0,5.4,0,8c0,0.2-0.1,0.5-0.1,0.7
		s-0.4,0.6-0.7,0.7c-0.8,0-1.7,0.1-2.5,0.1c-7.3,0-14.6,0-21.9,0c-2,0-4,0-6.1,0c-0.6,0-1.2,0-1.8,0.1c-0.6,0-1,0.4-1,1
		c0,0.3,0,0.7-0.1,1c0,2.6,0,5.2,0,7.8c0,0.3,0,0.5,0,0.8c0,0.6,0.4,1,0.9,1c0.7,0,1.3,0,2,0c5.3,0,10.6,0,15.9,0
		c4.5,0,8.9,0,13.4,0c1.5,0,1.9,0.1,1.9,1.9c0,1.3,0,2.5,0,3.8c0,0.3-0.1,0.7-0.1,1s-0.3,0.6-0.7,0.6c-0.8,0-1.7,0-2.5,0
		c-9.1,0-18.2,0-27.2,0c-0.8,0-1.5,0-2.3,0c-0.9,0-1.2,0.3-1.3,1.2c0,0.4,0,0.8,0,1.3c0,3.5,0,7,0,10.6c0,0.5,0,1,0.1,1.5
		c0,0.4,0.4,0.8,0.8,0.8c0.8,0,1.7,0,2.5,0c10.4,0,20.8,0,31.3,0c3.4,0,3.1-0.3,3.1,3.1c0,1.2,0,2.3-0.1,3.5c0,0.3-0.3,0.6-0.7,0.6
		c-0.7,0-1.3,0.1-2,0.1c-14.5,0-28.9,0-43.4,0c-0.3,0-0.7,0-1,0c-1.5,0-1.7-0.1-1.7-1.8c0-6.1,0-12.2,0-18.4
		C1.5,32.5,1.5,30.4,1.5,28.3z"/>
	<path class="st0" d="M99.8,41.6c0-7.1,0-14.2,0-21.4c0-0.8,0-1.5,0.1-2.3c0-0.3,0.4-0.6,0.7-0.6c0.1,0,0.2,0,0.2,0c3,0,6,0,9.1,0
		c0.5,0,0.8,0.3,0.8,0.8c0.1,0.8,0.1,1.5,0.1,2.3c0,0.3,0.4,0.6,0.6,0.7c0.9,0.2,1.8,0.2,2.7,0c0.3-0.1,0.6-0.4,0.6-0.7
		c0-0.8,0.1-1.5,0.1-2.3c0-0.3,0.3-0.7,0.6-0.7c0.4,0,0.8-0.1,1.3-0.1c6.1,0,12.3,0,18.4,0c0.4,0,0.8,0,1.3,0.1
		c0.3,0,0.6,0.4,0.7,0.6c0,0.3,0.1,0.7,0.1,1c0,0.4,0,0.8,0.1,1.3c0,0.4,0.4,0.8,0.8,0.8c0.7,0.1,1.3,0.1,2,0.1
		c0.5,0,0.8,0.3,0.8,0.8s0.1,1,0.1,1.5c0,1,0.4,1.3,1.4,1.3c0.5,0,1,0,1.5,0c0.4,0,0.8,0.4,0.8,0.8s0.1,0.8,0.1,1.3
		c0,4.8,0,9.6,0,14.3c0,0.3,0,0.7,0,1c0,0.7-0.4,1-1.1,1.1c-0.5,0-1,0-1.5,0.1c-0.8,0.1-1.1,0.4-1.2,1.3c0,1.5,0,3,0,4.5
		c0,0.3,0,0.7-0.1,1c-0.1,0.2-0.2,0.5-0.5,0.5c-0.7,0.1-1.5,0.2-2.2,0.3c-0.4,0.1-0.7,0.4-0.8,0.9c0,0.2,0,0.3,0,0.5
		c0,2.6-0.2,2.4-2.4,2.4c-5.9,0-11.8,0-17.6,0c-0.5,0-1,0-1.5,0s-0.8-0.3-0.8-0.7c0-0.7-0.1-1.3-0.1-2c0-0.6-0.4-0.9-1-1
		c-0.4,0-0.8-0.1-1.3-0.1c-1.7,0-1.9,0.4-1.9,1.9c0,3.3,0,6.5,0,9.8c0,0.8,0,1.5,0,2.3c0,0.8-0.5,1-1.1,1.1c-0.3,0-0.7,0-1,0
		c-2.4,0-4.7,0-7.1,0c-0.3,0-0.7-0.1-1-0.1s-0.6-0.4-0.7-0.7c0-0.8-0.1-1.5-0.1-2.3C99.8,55.8,99.8,48.7,99.8,41.6z M121.9,24.4
		c-0.9,0.3-1.7,0.2-2.6,0.2c-1.3,0-2.5,0-3.8,0.1c-0.5,0-0.8,0.3-0.8,0.8c-0.1,0.7-0.1,1.3-0.1,2c0,0.4-0.4,0.8-0.8,0.8
		c-0.7,0.1-1.5,0.1-2.2,0.2c-0.3,0-0.6,0.4-0.6,0.7c0,0.5-0.1,1-0.1,1.5c0,3.6,0,7.2,0,10.8c0,2.1,0.1,2.4,2.4,2.4
		c0.2,0,0.3,0,0.5,0c0.5,0,0.8,0.3,0.8,0.8c0.1,0.7,0.1,1.5,0.2,2.2c0,0.3,0.3,0.4,0.5,0.5c0.3,0.1,0.7,0.1,1,0.1
		c5.3,0,10.6,0,15.9,0c0.3,0,0.7,0,1-0.1c0.3,0,0.6-0.4,0.6-0.7c0-0.8,0.1-1.5,0.1-2.3c0-1.1,0-2.2,0-3.3c0-0.9,0.4-1.2,1.2-1.3
		c0.6,0,1.2,0,1.8-0.1c0.3,0,0.7-0.3,0.7-0.6c0-2.1,0-4.2,0-6.3c0-0.1,0-0.2-0.1-0.2c-0.1-0.2-0.2-0.4-0.5-0.5c-0.3,0-0.7-0.1-1-0.1
		c-2,0-2.1-0.2-2.1-2.1c0-0.8,0-1.5,0-2.3c0-0.6,0-1.2,0-1.8c-0.1-1.2-0.4-1.3-1.3-1.4c-1.1,0-2.2,0-3.3,0c-0.7,0-1.3,0-2,0
		c-0.4,0-0.8-0.3-0.8-0.8c-0.1-0.7-0.1-1.5-0.2-2.2c0-0.2-0.2-0.5-0.4-0.6c-1-0.3-2-0.3-3,0c-0.2,0.1-0.4,0.3-0.5,0.5
		c-0.1,0.7-0.1,1.3-0.1,2C122.1,23.8,122,24.1,121.9,24.4z"/>
	<path class="st0" d="M188.4,54.7c-3.6,0-7.2,0-10.8,0c-0.5,0-1,0-1.5-0.1c-0.2,0-0.5-0.3-0.5-0.5c-0.1-0.7-0.1-1.5-0.2-2.2
		c0-0.5-0.4-0.9-1-1c-1,0-2-0.1-3-0.1c-0.8,0-1.7,0-2.5-0.1c-0.6,0-1-0.4-1-0.9c0-1,0-2,0-3c0-0.8,0-1.7,0-2.5c0-0.5-0.4-0.9-1-1
		s-1.2-0.1-1.8-0.1c-0.5-0.1-0.9-0.5-0.9-1s-0.1-1-0.1-1.5c0-3.2,0-6.4,0-9.5c0-0.5,0-1,0.1-1.5c0-0.6,0.4-0.9,0.9-1
		c0.7-0.1,1.3-0.1,2-0.2c0.3,0,0.6-0.4,0.7-0.7c0-0.7,0.1-1.5,0.1-2.2c0-1.3,0-2.5,0.1-3.8c0-0.3,0.3-0.6,0.6-0.7
		c0.8-0.1,1.5-0.1,2.3-0.2c0.3,0,0.6-0.4,0.7-0.7c0.1-0.5,0.1-1,0.2-1.5c0.1-1.5,0.3-1.6,1.9-1.6c1.1,0,2.2,0,3.3,0
		c2.7,0,5.4,0,8.1,0c0.4,0,0.8,0,1.2-0.1c0.2-0.1,0.5-0.3,0.5-0.5c0.1-0.7,0.2-1.5,0.3-2.2c0.1-0.4,0.4-0.8,0.9-0.8
		c0.6,0,1.2,0,1.8,0c0.3,0,0.6,0.4,0.7,0.7c0.1,0.6,0.1,1.2,0.1,1.7c0,0.2,0.1,0.5,0.1,0.7c0.1,0.1,0.2,0.3,0.4,0.3
		c0.5,0.1,1,0.1,1.5,0.1c2.4,0,4.7,0,7.1,0c0.5,0,1,0,1.5,0.1c0.3,0,0.6,0.3,0.6,0.7c0,0.6,0,1.2,0.1,1.8c0,0.2,0,0.5,0.1,0.7
		s0.3,0.5,0.5,0.5c0.7,0.1,1.3,0.1,2,0.2c0.8,0.1,1.1,0.3,1.2,1c0.1,0.8-0.3,1.8,0.4,2.4c0.6,0.5,1.5,0.2,2.2,0.3
		c0.2,0,0.4,0,0.5,0.1c0.2,0.1,0.4,0.3,0.5,0.5c0.1,0.3,0.1,0.7,0.1,1c0,6.4,0,12.9,0,19.3c0,0.2,0,0.5-0.1,0.7
		c0,0.3-0.3,0.6-0.6,0.7c-0.8,0-1.5,0.1-2.3,0.1c-0.3,0-0.6,0.3-0.7,0.6c-0.1,0.7-0.1,1.5-0.2,2.2c0,0.3-0.4,0.6-0.7,0.7
		c-0.7,0.1-1.5,0.1-2.2,0.2c-0.4,0-0.7,0.4-0.8,0.9c0,0.2,0,0.3,0,0.5c0,2.5,0.1,2.3-2.6,2.4C195.5,54.8,192,54.7,188.4,54.7z
		 M182.3,24.5c-0.4,0-0.9,0.1-1.4,0.1c-1.5,0-3,0-4.5,0c-0.8,0-1.1,0.3-1.1,1c0,0.3,0,0.7,0,1c0,5,0,10,0,15.1c0,0.3,0,0.5,0,0.8
		c0,0.9,0.3,1.2,1.2,1.3c0.6,0,1.2,0.1,1.8,0.1c0.3,0,0.6,0.3,0.7,0.6c0,0.7,0.1,1.3,0.1,2c0,0.5,0.4,0.9,1,0.9c0.5,0,1,0,1.5,0
		c4.7,0,9.4,0,14.1,0c0.5,0,1,0,1.5,0c0.7,0,1.1-0.4,1.1-1.1c0-0.9,0-1.8,0-2.8c0-0.9,0-1.8,0-2.8c0-0.6,0.4-0.9,1-0.9
		c0.7,0,1.3-0.1,2-0.1c0.3,0,0.6-0.4,0.7-0.7c0-0.2,0.1-0.5,0.1-0.7c0-2.8,0-5.7,0-8.5c0-1.3-0.3-1.5-1.7-1.6c-0.4,0-0.8,0-1.3-0.1
		c-0.4,0-0.7-0.4-0.8-0.8c0-0.5,0-1-0.1-1.5c-0.1-1-0.3-1.2-1.2-1.3c-0.3,0-0.7,0-1,0c-1.5,0-3,0-4.5,0c-0.5,0-0.8-0.3-0.8-0.8
		c0-0.7-0.1-1.5-0.2-2.2c0-0.2-0.3-0.4-0.5-0.5s-0.5-0.2-0.7-0.2c-1.8,0-3.5,0-5.3,0c-0.1,0-0.2,0-0.2,0c-0.6,0.1-1,0.4-1,0.9
		s0,1-0.1,1.5C182.7,23.7,182.7,24.1,182.3,24.5z"/>
	<path class="st0" d="M288.3,47.1c-0.2,0.1-0.4,0.1-0.6,0.1c-0.9,0.2-1.9-0.3-2.6,0.4c-0.6,0.6-0.2,1.6-0.4,2.4
		c-0.1,0.5-0.3,0.8-0.8,0.8c-0.3,0-0.5,0.1-0.8,0.1c-2,0-2.1,0.3-2.1,2.2c0,0.3-0.1,0.7-0.1,1s-0.3,0.6-0.7,0.6c-0.5,0-1,0-1.5,0
		c-5,0-10.1,0-15.1,0c-2.3,0-4.5,0-6.8,0c-0.4,0-0.8,0-1.3-0.1c-0.2,0-0.5-0.3-0.5-0.5c-0.1-0.7-0.2-1.5-0.3-2.2
		c-0.1-0.6-0.4-0.9-1-0.9c-0.7-0.1-1.3-0.1-2-0.2c-0.3,0-0.6-0.4-0.6-0.7c0-0.4-0.1-0.8-0.1-1.3c0-1.4-0.2-1.7-1.8-1.7
		c-0.4,0-0.8,0-1.3-0.1c-0.2,0-0.4-0.3-0.5-0.5c-0.1-0.3-0.2-0.6-0.2-1c0-6.5,0-12.9,0-19.4c0-0.2,0.1-0.5,0.1-0.7
		c0.1-0.3,0.4-0.6,0.7-0.7c0.8-0.1,1.5-0.1,2.3-0.2c0.3,0,0.6-0.4,0.7-0.7c0.2-0.9-0.3-2,0.4-2.6c0.6-0.6,1.6-0.2,2.4-0.3
		c0.5-0.1,0.9-0.4,0.9-1c0.1-0.7,0.1-1.3,0.2-2c0-0.4,0.4-0.8,0.9-0.8c1.1,0,2.2,0,3.3,0c1.8,0,3.7,0,5.5,0c0.3,0,0.7,0,1-0.1
		c0.2-0.1,0.4-0.2,0.5-0.5c0.1-0.8,0.1-1.5,0.2-2.3c0-0.3,0.3-0.6,0.6-0.7c0.7,0,1.3,0,2,0c0.3,0,0.6,0.3,0.6,0.7
		c0,0.7,0.1,1.3,0.1,2c0,0.4,0.4,0.8,0.8,0.8c0.7,0,1.3,0.1,2,0.1c2.2,0,4.4,0,6.6,0c0.4,0,0.8,0,1.3,0.1c0.3,0,0.6,0.4,0.6,0.7
		c0,0.5,0.1,1,0.1,1.5c0,0.3,0,0.7,0.2,1c0.1,0.2,0.3,0.5,0.5,0.5c0.7,0.1,1.3,0.1,2,0.2s1,0.3,1,1.1c0,0.6,0.1,1.2,0.1,1.8
		c0,0.3,0.3,0.6,0.7,0.7c0.8,0,1.5,0.1,2.3,0.1c0.4,0,0.8,0.4,0.8,0.8c0,0.1,0,0.2,0,0.2c0,2.8,0,5.7,0,8.5c0,0.2,0,0.3-0.1,0.5
		c0,0.3-0.4,0.7-0.6,0.7c-0.4,0-0.8,0.1-1.2,0.1c-1.4,0-2.9,0-4.3,0c-8.2,0-16.3,0-24.5,0c-0.8,0-1.7,0.1-2.5,0.1
		c-0.4,0-0.8,0.4-0.8,0.8c0,2,0,4,0,6c0,0.5,0.4,0.9,1,0.9c0.7,0.1,1.3,0.1,2,0.1c0.3,0,0.6,0.4,0.7,0.7c0.1,0.7,0.1,1.5,0.2,2.2
		c0,0.3,0.3,0.6,0.7,0.6c0.4,0,0.8,0.1,1.3,0.1c5,0,10.1,0,15.1,0c0.4,0,0.8,0,1.3-0.1c0.3,0,0.6-0.4,0.7-0.7
		c0.1-0.6,0.1-1.2,0.2-1.7c0-0.2,0.1-0.5,0.2-0.7c0.1-0.1,0.2-0.3,0.4-0.3c0.2-0.1,0.5-0.1,0.7-0.1c2.9,0,5.7,0,8.6,0
		c0.2,0,0.3,0,0.5,0.1c0.1,0.1,0.3,0.2,0.4,0.3C288.7,45.2,288.8,46.1,288.3,47.1z M267.7,32.4L267.7,32.4c1.3,0,2.5,0,3.8,0
		c2.8,0,5.7,0,8.5,0c1.1,0,1.3-0.3,1.4-1.3c0-0.6,0-1.2,0-1.8c0-0.4-0.4-0.8-0.8-0.9c-0.7-0.1-1.3-0.1-2-0.2c-0.4,0-0.8-0.4-0.9-0.8
		c-0.1-0.7-0.1-1.3-0.2-2c-0.1-0.5-0.4-0.8-0.8-0.8c-0.6,0-1.2,0-1.8-0.1c-0.8,0-1.1-0.2-1.1-1c0-0.7-0.1-1.3-0.1-2
		c0-0.2-0.4-0.6-0.7-0.7c-0.2,0-0.5-0.1-0.7-0.1c-2.9,0-5.9,0-8.8,0c-0.2,0-0.5,0.1-0.7,0.1s-0.6,0.5-0.6,0.7c0,0.4,0,0.8-0.1,1.2
		c0,0.3,0,0.7-0.1,1c0,0.3-0.3,0.6-0.6,0.7c-0.8,0-1.5,0.1-2.3,0.1c-0.3,0-0.6,0.3-0.7,0.6c0,0.2-0.1,0.5-0.1,0.7
		c0,0.5-0.1,1-0.1,1.5c0,0.3-0.4,0.7-0.7,0.7c-0.4,0-0.8,0.1-1.3,0.1c-1.8,0.1-1.8,0.5-1.8,2c0,0.1,0,0.2,0,0.3
		c0,1.7,0.2,1.9,1.9,1.9C260.2,32.4,263.9,32.4,267.7,32.4z"/>
	<path class="st0" d="M68.9,47.1c-0.9,0.1-1.8,0.1-2.7,0.2c-0.3,0-0.6,0.4-0.6,0.7c0,0.8-0.1,1.7-0.1,2.5c0,1.2,0,2.3-0.1,3.5
		c0,0.3-0.3,0.7-0.6,0.7c-3.2,0-6.4,0-9.6,0c-0.3,0-0.6-0.3-0.7-0.6c0-0.7,0-1.3,0-2c0-0.3,0.3-0.6,0.7-0.6c0.7,0,1.3-0.1,2-0.1
		c0.6,0,0.9-0.4,1-1c0-1.1,0.1-2.2,0.1-3.3c0-0.8,0.1-1.7,0.1-2.5c0-0.3,0.4-0.6,0.7-0.7c0.7-0.1,1.5-0.1,2.2-0.2
		c0.3,0,0.6-0.4,0.7-0.7c0.1-0.8,0.1-1.5,0.1-2.3c0-0.4,0.4-0.8,0.8-0.8c0.3,0,0.5,0,0.8,0c2,0,2.1,0,2.2-2.1c0-0.3,0.1-0.7,0.2-1
		c0.1-0.2,0.3-0.4,0.5-0.5c0.7-0.1,1.3-0.1,2-0.2c0.8-0.1,1-0.5,1-1.2c0-0.2,0-0.3,0-0.5c0-2.2,0.1-2.4-2.3-2.4c-0.2,0-0.3,0-0.5,0
		c-0.5,0-0.8-0.3-0.9-0.8c0-0.4-0.1-0.8-0.1-1.3c0-0.3-0.1-0.7-0.1-1s-0.4-0.6-0.7-0.7c-0.7-0.1-1.5-0.1-2.3-0.2
		c-0.3,0-0.7-0.4-0.7-0.6c0-0.6,0-1.4-0.1-2.1c0-0.3-0.4-0.6-0.7-0.6c-0.7,0-1.3-0.1-2-0.1c-0.6,0-0.9-0.4-0.9-1c0-1.8,0-3.5,0-5.3
		c0-0.7,0.4-1,1.2-1c1.3,0,2.5,0,3.8,0c2,0,2.1,0,2.1,2.1c0,0.3,0,0.5,0,0.8c0,0.6,0.4,1,0.9,1c0.7,0.1,1.3,0.1,2,0.1
		c0.4,0,0.8,0.4,0.8,0.8c0.1,0.7,0.1,1.3,0.1,2c0,0.4,0.3,0.7,0.8,0.8c0.6,0,1.2,0,1.8,0.1c0.7,0,1,0.3,1,1.1c0,0.6,0,1.2,0.1,1.8
		c0,0.5,0.5,0.9,1,0.9c0.7,0,1.3,0,2,0c0.8,0,1-0.5,1.1-1.1c0.1-0.7,0.1-1.3,0.1-2c0-0.3,0.3-0.6,0.7-0.6c0.8,0,1.5-0.1,2.3-0.1
		c0.3,0,0.6-0.4,0.7-0.7c0-0.5,0.1-1,0.1-1.5c0-1.1,0-2.2,0-3.3c0-1.9,0.3-2.1,2-2.1c1.8,0,3.7,0,5.5,0c0.8,0,1.7,0,2.5,0
		c0.5,0,0.9,0.4,0.9,1c0,0.2,0,0.3,0,0.5c0,1.7-0.2,1.9-1.8,2c-0.4,0-0.8,0.1-1.2,0.1c-0.3,0-0.7,0.4-0.7,0.7c0,0.5-0.1,1-0.1,1.5
		c0,1.3,0,2.7,0,4c0,0.8-0.3,1.1-1,1.2c-2.7,0.2-2.7,0.1-2.7,2.7c0,0.2,0,0.3-0.1,0.5c0,0.4-0.3,0.6-0.6,0.7c-0.6,0-1.2,0-1.8,0.1
		c-0.2,0-0.5,0-0.7,0.1s-0.4,0.3-0.5,0.5c-0.2,0.9-0.2,1.8,0,2.7c0.1,0.3,0.4,0.6,0.7,0.7c0.8,0.1,1.5,0.1,2.3,0.2
		c0.3,0,0.7,0.4,0.7,0.6c0,0.3,0.1,0.7,0.1,1c0,0.8,0,1.7,0,2.5c0,0.7,0,1.3,0,2c0,0.9,0.3,1.2,1.2,1.3c0.6,0,1.2,0.1,1.8,0.1
		c0.3,0,0.6,0.3,0.7,0.6c0.1,0.8,0.1,1.5,0.2,2.3c0,0.3,0.4,0.6,0.7,0.6c0.7,0,1.3,0.1,2,0.1c0.6,0,1,0.4,1,0.9c0,0.7,0.1,1.3,0.1,2
		c0,0.4,0.4,0.8,0.8,0.9c0.3,0,0.7,0.1,1,0.1c1.9,0,1.9,0.2,1.9,2.1c0,0.2-0.1,0.5-0.1,0.7c0,0.3-0.3,0.4-0.5,0.5
		c-0.3,0.1-0.7,0.1-1,0.1c-2.6,0-5.2,0-7.8,0c-0.3,0-0.7,0-1-0.1c-0.2-0.1-0.5-0.2-0.5-0.5c0-0.8-0.1-1.5-0.1-2.3
		c0-0.4-0.4-0.7-0.8-0.9c-0.9-0.3-2,0.2-2.6-0.5s-0.2-1.6-0.4-2.4c-0.1-0.5-0.4-0.8-0.8-0.8c-0.2,0-0.3,0-0.5,0
		c-2.5,0-2.4,0.1-2.4-2.6c0-1.1,0-2.2,0-3.3c0-0.3-0.1-0.7-0.1-1S76.8,40,76.5,40c-0.8,0-1.5-0.1-2.3-0.1c-0.7,0-1,0.3-1.1,1.1
		c0,0.4,0,0.8,0,1.3c-0.1,1-0.3,1.2-1.1,1.3c-0.3,0-0.7,0-1,0.1c-1.3,0.1-1.5,0.3-1.5,1.5c0,0.5,0,1-0.1,1.5
		C69.2,46.6,69,46.8,68.9,47.1z"/>
	<path class="st0" d="M159.7,54.6c-0.2,0.1-0.4,0.1-0.6,0.1c-3,0-6,0-9.1,0c-0.1,0-0.2,0-0.2,0c-0.3,0-0.6-0.3-0.7-0.6
		c-0.1-0.3-0.1-0.7-0.1-1c0-0.7,0-1.3,0-2c0-15.1,0-30.2,0-45.2c0-0.9,0-1.8,0.1-2.8c0-0.4,0.4-0.8,0.8-0.8c0.8,0,1.7-0.1,2.5-0.1
		c2,0,4,0,6,0c0.3,0,0.5,0,0.8,0.1c0.3,0,0.6,0.4,0.7,0.7c0,0.2,0.1,0.5,0.1,0.7c0,0.7,0,1.3,0,2c0,15.2,0,30.5,0,45.7
		c0,0.8,0,1.5,0,2.3C160,54,159.8,54.3,159.7,54.6z"/>
	<path class="st0" d="M217.1,36.1c0-5.3,0-10.6,0-15.8c0-0.7,0.1-1.5,0.1-2.2c0-0.3,0.4-0.6,0.7-0.6c1.9,0,3.9,0,5.8,0
		c0.2,0,0.4,0.2,0.5,0.5c0.1,0.7,0.1,1.5,0.2,2.2c0,0.5,0.5,0.9,1,0.9c0.7,0,1.3,0,2,0c0.8,0,1-0.5,1.1-1.1c0.1-0.7,0.1-1.3,0.1-2
		c0-0.3,0.3-0.6,0.7-0.6c0.2,0,0.3,0,0.5,0c4,0,8.1,0,12.1,0c0.2,0,0.5,0,0.7,0.1c0.3,0,0.6,0.4,0.7,0.7c0,0.1,0.1,0.2,0.1,0.2
		c0,1.8,0,3.5,0,5.3c0,0.7-0.4,1-1.2,1c-0.7,0-1.3,0-2,0c-3.2,0-6.4,0-9.6,0c-0.6,0-1.2,0-1.8,0.1c-0.2,0-0.5,0.2-0.5,0.5
		c-0.1,0.6-0.1,1.2-0.1,1.7c-0.1,0.9-0.3,1.2-1.2,1.3c-0.1,0-0.2,0-0.3,0c-2.5,0-2.4,0.4-2.4,2.7c0,6.9,0,13.7,0,20.6
		c0,0.8,0,1.7-0.1,2.5c0,0.3-0.3,0.6-0.7,0.6c-1.8,0-3.7,0-5.5,0c-0.4,0-0.8-0.4-0.8-0.8c0-0.8-0.1-1.7-0.1-2.5
		C217.1,46.3,217.1,41.2,217.1,36.1z"/>
</g>
</svg>
