<?xml version="1.0" encoding="utf-8"?>
<!-- Generator: Adobe Illustrator 26.0.2, SVG Export Plug-In . SVG Version: 6.00 Build 0)  -->
<svg version="1.1" id="Layer_1" xmlns="http://www.w3.org/2000/svg" xmlns:xlink="http://www.w3.org/1999/xlink" x="0px" y="0px"
	 viewBox="0 0 248 69" style="enable-background:new 0 0 248 69;" xml:space="preserve">
<style type="text/css">
	.st0{fill:#333333;}
</style>
<g>
	<g>
		<path class="st0" d="M45.6,35.6c0,12.9-8.5,20.5-22.5,20.5S0.6,48.5,0.6,35.6s8.5-20.5,22.5-20.5S45.6,22.8,45.6,35.6z M36.6,35.6
			c0-8.8-5.1-13.3-13.5-13.3S9.6,26.8,9.6,35.6S14.7,49,23.1,49S36.6,44.4,36.6,35.6z"/>
		<path class="st0" d="M59.8,16.4v5.1h0.3c3.4-3.8,8-6.1,15-6.1c1.6,0,3.5,0.2,4.6,0.6v8.6c-1.2-0.3-2.9-0.6-5.6-0.6
			c-6.7,0-14.2,2.4-14.2,11.2V55h-8.7V16.4H59.8z"/>
		<path class="st0" d="M117.6,21.8V3.1h8.7v51.8h-8.5v-5.5h-0.3c-2.9,4.2-8.2,6.7-14.8,6.7c-12.1,0-20.5-7.5-20.5-20.3
			c0-12.9,8.4-20.3,20.5-20.3c6.6,0,11.7,2.6,14.5,6.4L117.6,21.8L117.6,21.8z M117.8,35.8c0-7.9-5-13.2-13.2-13.2
			c-8.3,0-13.2,4.4-13.2,13.2S96.3,49,104.6,49C112.8,49,117.8,43.7,117.8,35.8z"/>
		<path class="st0" d="M175.9,37.9h-35c0.7,7.7,5.7,11.4,13.5,11.4c7.9,0,11-3.6,11.5-6.4h9.7c-0.9,6.4-6.7,13.3-21.2,13.3
			c-14,0-22.5-7.6-22.5-20.5s8.5-20.5,22-20.5s22,7.6,22,20.5C176,36.3,176,37.2,175.9,37.9z M141.2,31.2h25.5
			C165.4,25,160.6,22,154,22S142.6,25,141.2,31.2z"/>
		<path class="st0" d="M190.1,16.4v5.1h0.3c3.4-3.8,7.9-6.1,15-6.1c1.7,0,3.5,0.2,4.7,0.6v8.6c-1.2-0.3-2.9-0.6-5.6-0.6
			c-6.7,0-14.2,2.4-14.2,11.2V55h-8.7V16.4H190.1z"/>
		<path class="st0" d="M227.6,24.9h-4.3V7.3h-6.6V4.1h1.8c3.4,0,4.8-1,5.4-3.5h3.7L227.6,24.9L227.6,24.9z"/>
		<path class="st0" d="M245.5,52.9c0,10.5-3,14.6-10.4,14.8v-4c3.3-0.1,4.8-1.9,4.8-8.7H235v-9.7h10.5L245.5,52.9L245.5,52.9z"/>
	</g>
</g>
</svg>
