<?xml version="1.0" encoding="utf-8"?>
<!-- Generator: Adobe Illustrator 26.0.2, SVG Export Plug-In . SVG Version: 6.00 Build 0)  -->
<svg version="1.1" id="Layer_1" xmlns="http://www.w3.org/2000/svg" xmlns:xlink="http://www.w3.org/1999/xlink" x="0px" y="0px"
	 viewBox="0 0 616 69" style="enable-background:new 0 0 616 69;" xml:space="preserve">
<style type="text/css">
	.st0{fill:#333333;}
</style>
<g>
	<path class="st0" d="M36.5,39.7h9.6c-1.2,8.7-7.6,15.5-22,15.5C10.5,55.2,2,47.7,2,34.8c0-13,8.5-20.5,22.2-20.5
		c14.4,0,20.6,6.8,21.8,15.3h-9.5c-0.8-4.4-3.7-8.2-12.3-8.2c-8,0-13.2,4.5-13.2,13.4c0,8.7,5.1,13.2,13.2,13.2
		C32.8,48.1,35.8,44.3,36.5,39.7z"/>
	<path class="st0" d="M94.7,34.8c0,12.9-8.5,20.5-22.5,20.5s-22.5-7.6-22.5-20.5s8.5-20.5,22.5-20.5C86.2,14.3,94.7,21.9,94.7,34.8z
		 M85.7,34.8c0-8.8-5.2-13.3-13.5-13.3S58.6,26,58.6,34.8s5.2,13.3,13.5,13.3S85.7,43.6,85.7,34.8z"/>
	<path class="st0" d="M108.8,20.6h0.3c3.3-4.4,8.7-6,14.3-6c6.2,0,11.5,1.9,14,6.2c3.5-4.4,9.6-6.2,15.8-6.2
		c8.5,0,15.6,3.9,15.6,13.4V54h-8.7V30.5c0-6.3-3.9-8.7-9.9-8.7c-5.1,0-11.3,2.9-11.3,10.7V54h-8.7V30.5c0-6.3-3.9-8.7-9.9-8.7
		c-5.2,0-11.3,2.9-11.3,10.7V54h-8.7V15.5h8.5L108.8,20.6L108.8,20.6z"/>
	<path class="st0" d="M185.1,20.6h0.3c3.3-4.4,8.7-6,14.3-6c6.2,0,11.5,1.9,14,6.2c3.5-4.4,9.6-6.2,15.8-6.2
		c8.5,0,15.6,3.9,15.6,13.4V54h-8.7V30.5c0-6.3-3.9-8.7-9.9-8.7c-5.1,0-11.3,2.9-11.3,10.7V54h-8.7V30.5c0-6.3-3.9-8.7-9.9-8.7
		c-5.1,0-11.3,2.9-11.3,10.7V54h-8.7V15.5h8.5L185.1,20.6L185.1,20.6z"/>
	<path class="st0" d="M284.9,49.1h-0.3c-3.7,4-9.1,5.9-15.2,5.9c-9.4,0-16.5-3.9-16.5-13.6V15.5h8.7v22.8c0,6.9,3.9,9.5,10.7,9.5
		c5.9,0,12.3-3.2,12.3-11.7V15.5h8.7V54h-8.5L284.9,49.1L284.9,49.1z"/>
	<path class="st0" d="M309.7,20.5h0.3c3.7-4,9.1-5.9,15.2-5.9c9.4,0,16.5,3.9,16.5,13.6V54H333V31.3c0-6.9-3.9-9.5-10.7-9.5
		c-5.9,0-12.3,3.1-12.3,11.7V54h-8.7V15.5h8.5L309.7,20.5L309.7,20.5z"/>
	<path class="st0" d="M349.3,1.9h9v7.2h-9V1.9z M349.4,15.5h8.7V54h-8.7V15.5z"/>
	<path class="st0" d="M398.3,39.7h9.6c-1.2,8.7-7.6,15.5-22,15.5c-13.7,0-22.2-7.6-22.2-20.4c0-13,8.5-20.5,22.2-20.5
		c14.4,0,20.6,6.8,21.8,15.3h-9.5c-0.8-4.4-3.7-8.2-12.3-8.2c-8,0-13.2,4.5-13.2,13.4c0,8.7,5.1,13.2,13.2,13.2
		C394.5,48.1,397.5,44.3,398.3,39.7z"/>
	<path class="st0" d="M452.5,53.6V54H444c-0.6-0.6-1.1-2.3-1.1-4.7v-1.1c-3.6,4.7-9.6,6.9-17,6.9c-8.1,0-15.1-3.9-15.1-12.2
		c0-8.2,5.5-11.3,11.4-12l15.2-1.6c3.4-0.4,5-1.4,5-3.9c0-2.6-2.9-4.4-9.7-4.4c-6.1,0-10.3,1.9-10.6,5.8h-9.1
		c0.2-9.2,9.4-12.7,19.6-12.7c11.1,0,18.8,2.9,18.8,11.3v22.2C451.5,50,451.5,52.4,452.5,53.6z M442.7,34.6c-0.8,0.6-2,0.8-3.1,0.9
		l-13.5,1.7c-3.6,0.4-6.2,1.8-6.2,5.7c0,4.3,3.3,5.8,8,5.8c6,0,14.9-2.7,14.9-11.7L442.7,34.6L442.7,34.6z"/>
	<path class="st0" d="M481.8,46.7V54c-1.6,0.4-4.5,0.6-6.9,0.6c-9.4,0-12.7-2.9-12.7-10.5V21.8h-6.9v-6.3h6.9V4.8h8.7v10.7h11v6.3
		h-11v21c0,3.3,1.6,4.4,4.8,4.4C477.2,47.2,480.2,47,481.8,46.7z"/>
	<path class="st0" d="M487.4,1.9h9v7.2h-9V1.9z M487.5,15.5h8.7V54h-8.7V15.5z"/>
	<path class="st0" d="M547,34.8c0,12.9-8.5,20.5-22.5,20.5c-14,0-22.5-7.6-22.5-20.5s8.5-20.5,22.5-20.5
		C538.5,14.3,547,21.9,547,34.8z M538,34.8c0-8.8-5.2-13.3-13.5-13.3s-13.5,4.5-13.5,13.3s5.1,13.3,13.5,13.3S538,43.6,538,34.8z"/>
	<path class="st0" d="M561.1,20.5h0.3c3.7-4,9.1-5.9,15.2-5.9c9.4,0,16.5,3.9,16.5,13.6V54h-8.7V31.3c0-6.9-3.9-9.5-10.7-9.5
		c-5.9,0-12.3,3.1-12.3,11.7V54h-8.7V15.5h8.5L561.1,20.5L561.1,20.5z"/>
	<path class="st0" d="M601.6,44.3h10.5V54h-10.5V44.3z"/>
</g>
</svg>
