<?xml version="1.0" encoding="utf-8"?>
<!-- Generator: Adobe Illustrator 26.0.2, SVG Export Plug-In . SVG Version: 6.00 Build 0)  -->
<svg version="1.1" id="Layer_1" xmlns="http://www.w3.org/2000/svg" xmlns:xlink="http://www.w3.org/1999/xlink" x="0px" y="0px"
	 viewBox="0 0 214 69" style="enable-background:new 0 0 214 69;" xml:space="preserve">
<style type="text/css">
	.st0{fill:#333333;}
</style>
<g>
	<path class="st0" d="M46.7,15.5L28.8,54H18.7L0.8,15.5h9.7l13,29.6h0.3L37,15.5H46.7z"/>
	<path class="st0" d="M50.4,1.9h9V9h-9V1.9z M50.5,15.5h8.7V54h-8.7V15.5z"/>
	<path class="st0" d="M84,20.9c-6.7,0-9.7,1.8-9.7,4.4c0,2.5,1.6,3.6,5.8,4.1L94,31.1c6.3,0.7,11.7,3.1,11.7,11.5
		c0,9.2-8.4,12.5-20.6,12.5c-11.5,0-21.1-3-21.3-14.2h8.9c0.3,5.9,5.8,7.5,12.5,7.5c7.3,0,11.4-1.9,11.4-5.3c0-2.9-1.8-4.2-6.1-4.7
		l-13.4-1.7c-6.3-0.8-11.7-3.2-11.7-10.9c0-8.1,8.1-11.6,18.7-11.6s20,3.4,20.2,12.9h-8.9C95,22.5,90.3,20.9,84,20.9z"/>
	<path class="st0" d="M143.3,49H143c-3.7,4-9.1,5.9-15.2,5.9c-9.4,0-16.5-3.9-16.5-13.6V15.5h8.7v22.8c0,6.9,3.9,9.5,10.7,9.5
		c5.9,0,12.3-3.2,12.3-11.7V15.5h8.7V54h-8.5L143.3,49L143.3,49z"/>
	<path class="st0" d="M198.6,53.5V54h-8.5c-0.6-0.6-1.1-2.3-1.1-4.7v-1.1c-3.6,4.7-9.6,6.9-17,6.9c-8.1,0-15.1-3.9-15.1-12.2
		c0-8.2,5.5-11.3,11.4-12l15.2-1.6c3.4-0.4,5-1.4,5-3.9c0-2.6-2.9-4.4-9.7-4.4c-6.1,0-10.3,1.9-10.6,5.8h-9.1
		c0.2-9.2,9.4-12.7,19.6-12.7c11.1,0,18.8,2.9,18.8,11.3v22.2C197.5,50,197.6,52.3,198.6,53.5z M188.8,34.6c-0.8,0.6-2,0.8-3.1,0.9
		l-13.5,1.7c-3.6,0.4-6.2,1.8-6.2,5.7c0,4.3,3.3,5.8,7.9,5.8c6,0,14.9-2.7,14.9-11.7V34.6z"/>
	<path class="st0" d="M205.3,2.1h8.7V54h-8.7V2.1z"/>
</g>
</svg>
