<?xml version="1.0" encoding="utf-8"?>
<!-- Generator: Adobe Illustrator 26.0.2, SVG Export Plug-In . SVG Version: 6.00 Build 0)  -->
<svg version="1.1" id="Layer_1" xmlns="http://www.w3.org/2000/svg" xmlns:xlink="http://www.w3.org/1999/xlink" x="0px" y="0px"
	 viewBox="0 0 344 69" style="enable-background:new 0 0 344 69;" xml:space="preserve">
<style type="text/css">
	.st0{fill:#FFFFFF;}
</style>
<g>
	<path class="st0" d="M12.4,55.1c-0.4,0-0.7,0.1-1.1,0.1c-2.7,0-5.4,0-8.1,0c-0.3,0-0.7-0.1-1-0.1c-0.1,0-0.3-0.2-0.3-0.3
		c-0.1-0.3-0.2-0.6-0.2-1c0-0.7,0-1.3,0-2c0-15.2,0-30.5,0-45.7c0-0.8,0-1.7,0.1-2.5c0-0.4,0.4-0.8,0.8-0.8c0.8,0,1.7-0.1,2.5-0.1
		c2,0,4,0,6,0c0.3,0,0.5,0,0.8,0.1c0.3,0,0.7,0.4,0.7,0.7c0.1,0.7,0.1,1.3,0.1,2c0,4.1,0,8.2,0,12.3c0,0.6,0,1.2,0,1.8
		c0,2,0.2,2.2,2.1,2.2c0.3,0,0.7,0,1-0.1c0.4,0,0.8-0.4,0.9-0.8c0.1-0.6,0.1-1.2,0.2-1.7c0-0.2,0.1-0.5,0.2-0.7s0.3-0.4,0.5-0.5
		c0.3-0.1,0.7-0.1,1-0.1c6.3,0,12.6,0,18.9,0c0.3,0,0.7,0,1,0.1c0.3,0,0.6,0.4,0.6,0.7c0,0.6,0,1.2,0.1,1.8c0,0.2,0,0.5,0.1,0.7
		s0.3,0.5,0.5,0.5c0.7,0.1,1.5,0.1,2.2,0.2c0.5,0,0.7,0.3,0.9,0.8c0.2,0.9-0.3,2,0.5,2.6c0.7,0.5,1.6,0.2,2.4,0.3
		c0.5,0.1,0.8,0.3,0.8,0.8s0,1,0,1.5c0,4.6,0,9.2,0,13.8c0,0.4,0,0.8,0,1.3c0,0.7-0.3,1-1.1,1.1c-0.5,0-1,0.1-1.5,0.1
		c-0.7,0.1-1,0.4-1.1,1.2c0,1.3,0,2.5,0,3.8c0,0.5,0,1,0,1.5c0,0.6-0.4,0.9-0.9,1c-0.7,0.1-1.3,0.1-2,0.2c-0.4,0-0.8,0.4-0.8,0.8
		c-0.1,0.8-0.1,1.5-0.1,2.3c0,0.3-0.3,0.6-0.7,0.6c-0.5,0-1,0-1.5,0c-5.9,0-11.8,0-17.6,0c-0.5,0-1,0-1.5,0c-0.4,0-0.8-0.3-0.8-0.8
		c-0.1-0.7-0.1-1.3-0.2-2c-0.1-0.5-0.4-0.9-1-0.9c-0.8,0-1.5,0-2.3,0.1c-0.3,0-0.7,0.4-0.7,0.7c0,0.7,0,1.3-0.1,2
		C12.6,54.5,12.5,54.8,12.4,55.1z M26.1,47.9L26.1,47.9c2.6,0,5.2,0,7.8,0c0.4,0,0.8-0.1,1.2-0.2c0.1,0,0.3-0.2,0.3-0.3
		c0.1-0.3,0.1-0.7,0.1-1c0-1.6,0-3.2,0-4.8c0-1,0.3-1.2,1.2-1.3c0.5,0,1,0,1.5,0c0.7,0,1-0.3,1-0.9c0-2,0-4,0-6
		c0-0.5-0.3-0.8-0.8-0.8c-0.8,0-1.5-0.1-2.3-0.1c-0.3,0-0.5-0.2-0.5-0.5c-0.1-0.4-0.1-0.8-0.1-1.2c0-1.4,0-2.8,0-4.3
		c0-0.3-0.1-0.7-0.2-1c0-0.1-0.2-0.3-0.3-0.3c-0.3-0.1-0.7-0.1-1-0.2c-1.4,0-2.9,0-4.3,0c-0.3,0-0.7,0-1,0c-0.4,0-0.7-0.3-0.7-0.6
		c-0.1-0.8-0.1-1.5-0.1-2.3c0-0.4-0.4-0.8-0.8-0.8c-0.2,0-0.3-0.1-0.5-0.1c-1.8,0-3.5,0-5.3,0c-0.2,0-0.3,0.1-0.5,0.1
		s-0.6,0.4-0.6,0.7c0,0.7-0.1,1.3-0.1,2c0,0.6-0.3,0.9-0.9,1c-0.5,0-1,0-1.5,0c-1.1,0-1.3,0.3-1.4,1.3c0,0.5,0,1-0.1,1.5
		c0,0.4-0.4,0.8-0.8,0.8c-0.7,0.1-1.3,0.1-2,0.2c-0.4,0-0.7,0.4-0.8,0.9c0,0.4-0.1,0.8-0.1,1.3c0,3.7,0,7.4,0,11.1
		c0,0.3,0,0.5,0,0.8c0,1.1,0.3,1.4,1.3,1.4c0.5,0,1,0,1.5,0.1c0.5,0,0.8,0.3,0.8,0.8c0,0.7,0.1,1.3,0.1,2c0,0.4,0.4,0.8,0.8,0.8
		c0.5,0,1,0,1.5,0C21.3,47.9,23.7,47.9,26.1,47.9z"/>
	<path class="st0" d="M152.6,38.4c0,4.7,0,9.4,0,14.1c0,0.7,0,1.3-0.1,2c0,0.3-0.3,0.6-0.7,0.6c-0.1,0-0.2,0-0.2,0c-1.7,0-3.4,0-5,0
		c-0.7,0-1-0.3-1.1-1.1c-0.1-0.6-0.1-1.2-0.1-1.8c-0.1-0.5-0.4-0.9-1-0.9c-1.9,0-3.9,0-5.8,0c-0.2,0-0.3,0.1-0.5,0.2
		c-0.2,0.1-0.4,0.3-0.5,0.5c-0.1,0.7-0.1,1.5-0.2,2.2c0,0.5-0.3,0.8-0.8,0.8c-0.4,0-0.8,0-1.3,0c-6,0-11.9,0-17.9,0
		c-0.5,0-1,0-1.5-0.1c-0.3,0-0.7-0.4-0.7-0.6c-0.1-0.5-0.1-1-0.1-1.5c0-0.3,0-0.7-0.2-1c-0.1-0.2-0.3-0.4-0.5-0.5
		c-0.7-0.1-1.5-0.2-2.2-0.3c-0.4,0-0.8-0.4-0.8-0.8c0-4.3,0-8.5,0-12.8c0-0.2,0-0.3,0.1-0.5c0.1-0.1,0.2-0.3,0.4-0.3
		c0.7-0.1,1.3-0.1,2-0.2c0.9-0.1,1.2-0.4,1.2-1.3c0.1-2.8,0.3-2.6,2.8-2.6c5.6,0,11.3,0,16.9,0c0.8,0,1.5,0,2.3,0
		c0.3,0,0.7-0.4,0.7-0.6c0.1-0.7,0.2-1.5,0.3-2.2c0-0.3,0.4-0.6,0.7-0.7c0.7-0.1,1.5-0.1,2.2-0.2c0.3,0,0.6-0.4,0.6-0.7
		c0-0.4,0.1-0.8,0.1-1.2c0-1.7,0-3.4-0.1-5c0-0.3-0.4-0.7-0.6-0.7c-0.3-0.1-0.7-0.1-1-0.1c-4,0-8.1,0-12.1,0c-0.3,0-0.5,0-0.8,0.1
		c-0.4,0.1-0.8,0.4-0.8,0.8c-0.1,0.7-0.1,1.5-0.2,2.3c0,0.3-0.3,0.6-0.7,0.6c-0.3,0-0.5,0-0.8,0c-0.5,0-1,0-1.5,0.1
		c-0.4,0-0.7,0.4-0.8,0.8c-0.1,0.7-0.1,1.5-0.2,2.2c0,0.1-0.2,0.3-0.3,0.4c-0.1,0-0.2,0.1-0.2,0.1c-1.8,0.2-3.7,0.2-5.5,0
		c-0.4,0-0.8-0.4-0.8-0.8c-0.2-1.8-0.2-3.7,0-5.5c0-0.3,0.4-0.6,0.7-0.6c0.1,0,0.2,0,0.2,0c2.7-0.1,2.7-0.1,2.7-2.7
		c0-0.2,0-0.3,0-0.5c0-0.4,0.4-0.7,0.9-0.7c0.7,0,1.3,0,2,0c2.2,0,4.4,0,6.6,0c0.3,0,0.5,0,0.8,0c0.6,0,1-0.3,1-0.9
		c0.1-0.6,0.1-1.2,0.2-1.8c0.1-0.6,0.4-0.9,1-1c0.8,0,1.5,0,2.3-0.1c0.8,0,1.5,0,2.3,0c1.4,0,1.5,0.1,1.6,1.6c0,0.4,0,0.8,0.1,1.3
		c0,0.4,0.4,0.7,0.9,0.8c0.7,0,1.3,0,2,0c2.2,0,4.4,0,6.6,0c0.4,0,0.8,0,1.2,0.1c0.2,0.1,0.5,0.3,0.5,0.5c0.1,0.6,0.1,1.2,0.2,1.7
		c0,0.3,0,0.5,0.1,0.8c0,0.3,0.4,0.7,0.7,0.7c0.8,0.1,1.5,0.1,2.3,0.2c0.3,0,0.6,0.3,0.6,0.7c0,0.8,0.1,1.5,0.1,2.3
		C152.6,29.2,152.6,33.8,152.6,38.4z M125.8,40c-0.9,0-1.7,0.1-2.6,0.1c-0.5,0-0.9,0.4-0.9,1c0,1.9,0,3.8,0,5.8c0,0.1,0,0.2,0,0.2
		c0,0.3,0.4,0.7,0.6,0.7c0.8,0,1.5,0.1,2.3,0.1c0.4,0,0.8,0.4,0.8,0.8c0.1,0.7,0.1,1.5,0.2,2.2c0,0.3,0.4,0.7,0.7,0.7
		c0.8,0,1.7,0,2.5,0c0.3,0,0.6-0.4,0.7-0.7c0.1-0.3,0.1-0.7,0.1-1c0-0.4,0.1-0.8,0.1-1.2c0.1-0.6,0.4-0.9,1-0.9s1.2,0,1.8,0
		c1.9,0,3.9,0,5.8,0c0.6,0,1.2,0,1.8,0c0.5,0,0.9-0.4,0.9-1c0-0.8,0-1.5,0-2.3c0-1,0-2,0-3c0-0.2,0-0.5,0.1-0.7
		c0-0.1,0.2-0.3,0.3-0.4c0.4-0.1,0.8-0.1,1.2-0.1c2,0,2.1-0.1,2.1-2.2c0-0.2,0-0.3,0-0.5c0-1-0.4-1.3-1.4-1.4c-0.2,0-0.3,0-0.5,0
		c-5.1,0-10.2,0-15.3,0c-0.4,0-0.8,0.1-1.2,0.1c-0.2,0-0.7,0.4-0.7,0.7c0,0.7,0,1.3-0.1,2C126.1,39.4,126,39.7,125.8,40z"/>
	<path class="st0" d="M88.4,34.7c0,4.7,0,9.4,0,14.1c0,0.8,0.1,1.5,0.1,2.3c0,0.3,0.4,0.7,0.6,0.7c0.8,0.1,1.5,0.1,2.3,0.2
		c0.3,0,0.5,0.2,0.6,0.4c0.2,0.8,0.2,1.7,0,2.5c0,0.1-0.2,0.3-0.4,0.3c-0.1,0.1-0.3,0.1-0.5,0.1c-2.9,0-5.9,0-8.8,0
		c-0.1,0-0.2,0-0.3,0c-0.5,0-0.8-0.3-0.8-0.7c0-0.8-0.1-1.5-0.1-2.3c0-0.3-0.4-0.6-0.7-0.7c-0.5-0.1-1-0.1-1.5-0.1
		c-1.7,0-1.9,0.3-1.9,1.9c0,0.5-0.1,1-0.1,1.5c0,0.1-0.2,0.3-0.3,0.3c-0.2,0.1-0.5,0.1-0.7,0.1c-6.6,0-13.1,0-19.7,0
		c-0.3,0-0.5,0-0.7-0.1S55,54.9,55,54.7c-0.1-0.7-0.2-1.5-0.3-2.2c-0.1-0.6-0.4-0.9-1-0.9c-0.7-0.1-1.3-0.1-2-0.2
		c-0.3,0-0.6-0.4-0.6-0.7c0-0.2-0.1-0.5-0.1-0.8c0-3.9,0-7.9,0-11.8c0-0.2,0-0.5,0.1-0.7s0.2-0.4,0.5-0.5c0.7-0.1,1.3-0.1,2-0.1
		c0.7-0.1,1-0.4,1.1-1.1c0.1-0.7,0.1-1.3,0.2-2c0-0.3,0.4-0.6,0.7-0.7c0.8,0,1.5-0.1,2.3-0.1c5.2,0,10.4,0,15.6,0c0.5,0,1,0,1.5,0
		c2.2,0,2.4,0.2,2.5-2.3c0-0.2,0.1-0.5,0.1-0.7c0.1-0.3,0.3-0.5,0.5-0.5c0.7-0.1,1.5-0.1,2.3-0.2c0.4,0,0.8-0.4,0.8-0.8
		c0-0.8,0-1.7,0-2.5c0-0.3-0.4-0.6-0.7-0.6c-0.7,0-1.3-0.1-2-0.1c-0.6,0-0.9-0.3-0.9-1c-0.1-0.7-0.1-1.3-0.2-2
		c0-0.4-0.4-0.7-0.9-0.8c-0.2,0-0.3,0-0.5,0c-2.9,0-5.7,0-8.6,0c-0.3,0-0.7,0.1-1,0.2c-0.2,0.1-0.5,0.3-0.5,0.5
		c-0.1,0.7-0.1,1.3-0.1,2c-0.1,0.8-0.3,1.1-1,1.1c-0.3,0-0.5,0-0.8,0c-0.4,0-0.8,0-1.3,0.1c-0.3,0-0.7,0.3-0.7,0.6
		c-0.1,0.7-0.1,1.5-0.2,2.2c0,0.3-0.4,0.6-0.7,0.6s-0.7,0.1-1,0.1c-2.5,0-5,0-7.6,0c-0.3,0-0.7-0.1-1-0.1s-0.6-0.4-0.6-0.7
		c0-0.7,0-1.3,0-2c0-0.3,0.2-0.5,0.5-0.5c0.7-0.1,1.5-0.1,2.3-0.1c0.5,0,0.8-0.3,0.9-0.7c0-0.2,0.1-0.3,0.1-0.5
		c0.1-2.3,0-2.4,2.4-2.4c0.2,0,0.3,0,0.5-0.1c0.4-0.1,0.8-0.4,0.8-0.8c0-0.5,0-1,0.1-1.5c0-0.3,0-0.5,0.1-0.7c0-0.3,0.3-0.6,0.6-0.7
		c0.6,0,1.2-0.1,1.8-0.1c2.2,0,4.4,0,6.6,0c0.5,0,1,0,1.5-0.1c0.3,0,0.7-0.4,0.7-0.6c0.1-0.6,0.1-1.2,0.2-1.7c0-0.2,0.1-0.5,0.2-0.7
		c0.1-0.1,0.2-0.3,0.3-0.3c0.3-0.1,0.7-0.1,1-0.1c1.5,0,1.9,0,1.9,1.8c0,1.7,0.1,1.8,1.9,1.8c3.6,0,7.2,0,10.8,0
		c2.2,0,2.4,0,2.4,2.4C88.4,24.9,88.4,29.8,88.4,34.7z M73.3,36.3L73.3,36.3c-1.7,0-3.4,0-5,0c-0.6,0-1.2,0-1.8,0.1
		c-0.4,0-0.8,0.4-0.8,0.8c-0.1,0.7-0.1,1.5-0.2,2.2c0,0.3-0.3,0.6-0.7,0.6c-1.3,0-2.5,0-3.8,0.1c-0.8,0-1.5,0-2.3,0.1
		c-0.3,0-0.6,0.4-0.6,0.7c0,2.1,0,4.2,0,6.3c0,0.3,0.3,0.7,0.6,0.7c0.9,0,1.8,0.1,2.8,0.1c1.1,0,2.2,0,3.3,0.1
		c0.3,0,0.7,0.3,0.7,0.6c0.1,0.7,0.1,1.5,0.2,2.2c0,0.4,0.4,0.8,0.8,0.8c0.8,0,1.5,0,2.3,0c0.4,0,0.8-0.4,0.9-0.8
		c0-0.2,0.1-0.5,0.1-0.7c0-2.5,0.3-2.3,2.5-2.3c1.1,0,2.2,0,3.3,0c0.3,0,0.7,0,1,0s0.7-0.4,0.7-0.6c0.1-0.7,0.2-1.5,0.3-2.2
		c0-0.3,0.4-0.6,0.7-0.6c0.7-0.1,1.5-0.1,2.2-0.2c0.2,0,0.4-0.3,0.5-0.5c0.1-0.1,0.1-0.3,0.1-0.5c0-1.9,0-3.9,0-5.8
		c0-0.1,0-0.2,0-0.2c0-0.3-0.4-0.7-0.6-0.7c-0.5-0.1-1-0.1-1.5-0.1C77,36.3,75.2,36.3,73.3,36.3z"/>
	<path class="st0" d="M279.4,36.3c-4.5,0-8.9,0-13.4,0c-0.4,0-0.8,0-1.3,0c-2.3,0-2.4,0.1-2.4,2.4c0,1.3,0,2.7,0,4
		c0,0.2,0.1,0.5,0.1,0.7c0,0.3,0.4,0.6,0.7,0.7c0.7,0.1,1.5,0.1,2.3,0.2c0.3,0,0.6,0.3,0.6,0.7c0,0.2,0.1,0.5,0.1,0.7
		c0,2,0.1,2.1,2.1,2.1c5,0,10.1,0,15.1,0c0.4,0,0.8,0,1.3-0.1c0.4,0,0.7-0.4,0.8-0.8c0.1-0.7,0.1-1.5,0.2-2.2c0-0.1,0.2-0.3,0.3-0.4
		c0.1-0.1,0.3-0.1,0.5-0.1c3,0,6,0,9.1,0c0.2,0,0.3,0,0.5,0.1c0.1,0.1,0.3,0.2,0.3,0.3c0.2,0.8,0.2,1.7,0,2.5c0,0.1-0.2,0.3-0.4,0.3
		c-0.8,0.1-1.5,0.1-2.3,0.1c-0.5,0-0.8,0.3-0.9,0.7c-0.2,0.9,0.3,2-0.5,2.6c-0.6,0.6-1.6,0.2-2.4,0.4c-0.1,0-0.2,0.1-0.2,0.1
		c-0.3,0.1-0.7,0.4-0.7,0.7c-0.1,0.7-0.1,1.5-0.1,2.3c0,0.4-0.3,0.7-0.8,0.7c-0.6,0-1.2,0-1.8,0c-7,0-13.9,0-20.9,0
		c-0.7,0-1.3,0-2-0.1c-0.2,0-0.4-0.2-0.5-0.5c0-0.2-0.1-0.3-0.1-0.5c0-2.5,0.1-2.7-2.6-2.8c-0.2,0-0.4,0-0.5-0.1
		c-0.2-0.1-0.5-0.3-0.5-0.5c-0.1-0.7-0.2-1.5-0.3-2.2c-0.1-0.5-0.4-0.8-0.8-0.8c-0.2,0-0.3,0-0.5,0c-2.5,0-2.3,0.1-2.4-2.3
		c0-1.3,0-2.5,0-3.8c0-0.2-0.1-0.5-0.1-0.7c0-0.3-0.4-0.6-0.7-0.6c-0.7,0-1.3-0.1-2-0.1c-0.6,0-0.9-0.4-0.9-1c0-1.8,0-3.5,0-5.3
		c0-0.6,0.4-0.9,0.9-1c0.7,0,1.3-0.1,2-0.1c0.3,0,0.7-0.3,0.7-0.6c0-0.6,0.1-1.2,0.1-1.8c0-2.3,0-4.5,0-6.8c0-0.4,0-0.8,0.1-1.3
		c0-0.3,0.3-0.6,0.7-0.6c0.5,0,1-0.1,1.5-0.1c1.1,0,2.2,0,3.3,0c0.4,0,0.8-0.1,1.2-0.1c0.3,0,0.6-0.4,0.7-0.7c0-0.2,0.1-0.5,0.1-0.7
		c0-2.5,0-2.4,2.4-2.4s4.7,0,7.1,0c0.3,0,0.7,0,1,0c0.5,0,0.8-0.3,0.8-0.8c0.1-0.7,0.1-1.3,0.2-2c0-0.4,0.4-0.8,0.8-0.8
		c0.6,0,1.2,0,1.8,0c0.3,0,0.7,0.4,0.7,0.6c0.1,0.7,0.1,1.5,0.2,2.2c0,0.3,0.3,0.6,0.6,0.7c0.6,0,1.2,0.1,1.8,0.1c2.3,0,4.5,0,6.8,0
		c0.4,0,0.8,0,1.3,0.1c0.3,0,0.6,0.3,0.7,0.6c0,0.5,0.1,1,0.1,1.5c0,0.3,0,0.5,0,0.8c0,0.4,0.4,0.8,0.8,0.8c0.8,0.1,1.5,0.1,2.3,0.2
		c0.3,0,0.6,0.4,0.6,0.7c0,0.1,0,0.2,0.1,0.2c0,0.2,0,0.3,0,0.5c0,2.1-0.1,2.2,2.3,2.2c0.2,0,0.5,0,0.7,0.1s0.4,0.3,0.5,0.5
		s0.1,0.5,0.1,0.7c0,2.8,0,5.5,0,8.3c0,0.2,0,0.5-0.1,0.7s-0.3,0.5-0.5,0.5c-0.7,0.1-1.3,0.2-2,0.2c-3.8,0-7.6,0-11.3,0
		C281.4,36.3,280.4,36.3,279.4,36.3z M269.5,24.9c-1.1,0.1-2.2,0-3.3,0.1c-1,0-2,0-3,0.1c-0.4,0-0.8,0.4-0.8,0.8c0,2,0,4,0,6
		c0,0.4,0.4,0.8,0.8,0.8c0.8,0,1.5,0.1,2.3,0.1c6.9,0,13.8,0,20.6,0c0.7,0,1.3,0,2,0c0.2,0,0.3,0,0.5-0.1c0.1-0.1,0.3-0.2,0.3-0.3
		c0.1-0.6,0.2-1.2,0.2-1.7c0-1.6-0.2-1.8-1.7-1.9c-0.4,0-0.8,0-1.3-0.1c-0.4,0-0.7-0.4-0.8-0.8c-0.1-0.8,0.2-1.8-0.3-2.4
		c-0.7-0.8-1.8-0.2-2.6-0.4c-0.4-0.1-0.7-0.4-0.8-0.8c-0.1-0.7-0.1-1.3-0.2-2c0-0.4-0.4-0.8-0.8-0.9c-0.2,0-0.5-0.1-0.7-0.1
		c-2.8,0-5.5,0-8.3,0c-0.3,0-0.7,0.1-1,0.1c-0.2,0-0.6,0.4-0.7,0.7c0,0.7,0,1.3-0.1,2C269.8,24.3,269.7,24.6,269.5,24.9z"/>
	<path class="st0" d="M226.5,55.2c-3.5,0-7.1,0-10.6,0c-0.6,0-1.2,0-1.8-0.1c-0.2,0-0.5-0.3-0.5-0.5c-0.1-0.8-0.2-1.7-0.3-2.5
		c0-0.3-0.4-0.6-0.7-0.7c-0.3,0-0.7-0.1-1-0.1c-0.4,0-0.8-0.1-1.3-0.1c-0.3,0-0.6-0.3-0.7-0.7c0-0.7-0.1-1.3-0.1-2
		c0-0.5-0.4-0.9-1-0.9s-1.2,0-1.8-0.1c-0.6,0-0.9-0.4-0.9-1s-0.1-1.2-0.1-1.8c0-5.6,0-11.2,0-16.8c0-0.5,0-1,0-1.5
		c0.1-0.9,0.4-1.2,1.2-1.3c0.6,0,1.2-0.1,1.8-0.1c0.3,0,0.7-0.3,0.7-0.6c0.1-0.7,0.1-1.5,0.2-2.3c0-0.3,0.3-0.6,0.7-0.6
		c0.8-0.1,1.5-0.1,2.3-0.2c0.3,0,0.6-0.4,0.7-0.7c0.1-0.7,0.1-1.5,0.2-2.2c0-0.4,0.4-0.8,0.8-0.8c0.6,0,1.2,0,1.8,0
		c2.2,0,4.4,0,6.6,0c0.5,0,1,0,1.5-0.1c0.2,0,0.5-0.3,0.5-0.5c0.1-0.7,0.1-1.5,0.2-2.2c0-0.4,0.4-0.7,0.8-0.8c0.6,0,1.2,0,1.8,0
		c0.3,0,0.6,0.3,0.7,0.6c0,0.7,0.1,1.3,0.1,2c0,0.2,0,0.3,0.1,0.5c0.1,0.1,0.2,0.3,0.4,0.3c0.5,0.1,1,0.1,1.5,0.2
		c3.4,0,6.7,0,10.1,0c0.8,0,1.5,0,2.3,0.1c0.3,0,0.6,0.3,0.7,0.6c0.1,0.8,0.1,1.5,0.1,2.3c0,0.4,0.4,0.8,0.8,0.9
		c0.8,0.1,1.5,0.1,2.3,0.2c0.3,0,0.6,0.4,0.6,0.7c0,0.5,0.1,1,0.1,1.5c0,1.2,0,2.3,0,3.5c0,0.3,0.1,0.7,0.1,1s0.4,0.6,0.7,0.7
		c0.8,0.1,1.5,0.1,2.3,0.2c0.3,0,0.5,0.2,0.6,0.4c0.2,0.8,0.2,1.7,0,2.5c0,0.1-0.2,0.2-0.4,0.3c-0.1,0-0.2,0-0.2,0
		c-3.1,0-6.2,0-9.3,0c-0.5,0-0.8-0.3-0.8-0.8c0-1.3,0-2.5-0.1-3.8c0-0.8-0.1-1.5-0.1-2.3c0-0.3-0.4-0.6-0.7-0.6
		c-0.5,0-1-0.1-1.5-0.1c-1.2,0-2.4,0-3.5,0c-0.3,0-0.5,0-0.8,0c-0.6,0-0.9-0.3-1-0.9c0-0.7-0.1-1.3-0.1-2c0-0.4-0.4-0.8-0.8-0.8
		c-0.6-0.1-1.2-0.1-1.8-0.1c-1.2,0-2.4,0-3.5,0c-1.4,0-1.6,0.2-1.7,1.6c0,0.4,0,0.8,0,1.3c0,0.6-0.4,1-0.9,1c-0.9,0-1.8,0-2.8,0
		c-0.8,0-1.5,0-2.3,0c-1.3,0-1.5,0.2-1.6,1.4c0,0.4,0,0.8-0.1,1.3c0,0.6-0.4,0.9-0.9,1c-0.7,0.1-1.3,0.1-2,0.2
		c-0.4,0-0.8,0.4-0.8,0.8c0,0.2,0,0.3,0,0.5c0,2.9,0,5.9,0,8.8c0,0.2,0,0.3,0,0.5c0,0.4,0.4,0.8,0.8,0.8c0.7,0,1.3,0,2,0.1
		c0.6,0,0.9,0.4,1,1c0,1.2,0,2.3,0,3.5c0,0.8,0,1.5,0.1,2.3c0,0.3,0.3,0.7,0.6,0.7s0.7,0.1,1,0.1c5.3,0,10.6,0,15.9,0
		c0.3,0,0.7-0.1,1-0.1s0.4-0.3,0.5-0.5c0.1-0.4,0.1-0.8,0.1-1.2c0.1-1.6,0.2-1.8,2-1.8c0.3,0,0.7-0.1,1-0.1s0.7-0.4,0.7-0.6
		c0-0.5,0.1-1,0.1-1.5c0-1.5,0.2-1.7,1.8-1.6c1.5,0,3,0,4.5,0c0.4,0,0.8,0.4,0.8,0.8c0,0.2,0.1,0.5,0.1,0.7c0,2.6,0,5.2,0,7.8
		c0,0.3,0,0.7-0.2,1c-0.1,0.2-0.3,0.4-0.5,0.5c-0.4,0.1-0.8,0.1-1.2,0.2c-1.2,0-2.4,0-3.5,0c-0.4,0-0.8,0.1-1.3,0.1
		c-0.4,0-0.8,0.4-0.8,0.8c0,0.6,0,1.2-0.1,1.8c-0.1,0.9-0.3,1.1-1.3,1.1c-0.2,0-0.3,0-0.5,0c-0.5,0-1,0-1.5,0
		C233.1,55.2,229.8,55.2,226.5,55.2z"/>
	<path class="st0" d="M178.8,24.9c-1.2,0.2-2.3,0.1-3.3,0.1s-2,0-3,0.1c-0.4,0-0.8,0.4-0.8,0.8s0,0.8-0.1,1.3
		c-0.1,1.3-0.3,1.5-1.4,1.6c-2.6,0.1-2.4,0.4-2.4,2.7c0,6.9,0,13.7,0,20.6c0,0.8,0,1.7-0.1,2.5c0,0.3-0.3,0.6-0.7,0.6
		c-1.8,0-3.7,0-5.5,0c-0.4,0-0.8-0.4-0.8-0.8c0-0.7-0.1-1.3-0.1-2c0-10.6,0-21.1,0-31.7c0-3.1,0.1-2.9,2.9-2.9c1.2,0,2.4,0,3.5,0.1
		c0.3,0,0.6,0.3,0.7,0.6c0.1,0.8,0.1,1.5,0.1,2.3c0,0.4,0.4,0.8,0.8,0.8c0.8,0,1.7,0,2.5,0c0.3,0,0.7-0.4,0.7-0.6
		c0-0.3,0.1-0.7,0.1-1c0-2.1,0.1-2.1,2.1-2.1c6.1,0,12.3,0,18.4,0c1.7,0,1.8,0.1,1.9,1.8c0,0.4,0,0.8,0.1,1.3c0,0.3,0.4,0.7,0.7,0.7
		c0.8,0.1,1.5,0.1,2.3,0.2c0.3,0,0.6,0.3,0.6,0.7c0,0.6,0.1,1.2,0.1,1.8c0,9.6,0,19.1,0,28.7c0,0.6,0,1.2-0.1,1.8
		c0,0.3-0.3,0.6-0.7,0.6c-0.1,0-0.2,0-0.2,0c-1.7,0-3.4,0-5,0c-0.7,0-1-0.4-1.1-1.1c0-0.8-0.1-1.7-0.1-2.5c0-7.6,0-15.3,0-22.9
		c0-4.2,0.3-3.6-3.6-3.6c-1,0-2,0-3-0.1c-0.4,0-0.8-0.3-0.8-0.8c-0.1-0.7-0.1-1.3-0.2-2c-0.1-0.5-0.4-0.9-1-0.9
		c-0.8,0-1.5,0-2.3,0.1c-0.3,0-0.7,0.4-0.7,0.7c0,0.7,0,1.3-0.1,2C179.1,24.3,178.9,24.6,178.8,24.9z"/>
	<path class="st0" d="M107.2,28.9c0,7.8,0,15.6,0,23.4c0,0.8-0.1,1.7-0.1,2.5c0,0.1-0.2,0.3-0.3,0.4c-0.1,0.1-0.3,0.1-0.5,0.1
		c-3,0-6,0-9.1,0c-0.2,0-0.3,0-0.5-0.1c-0.1-0.1-0.3-0.2-0.3-0.4c-0.1-0.6-0.1-1.2-0.1-1.7c0-16,0-32,0-48c0-2.4-0.1-2.4,2.3-2.4
		c2.3,0,4.5,0,6.8,0c0.4,0,0.8,0,1.2,0.1c0.2,0,0.5,0.2,0.5,0.5c0,0.8,0.1,1.7,0.1,2.5C107.2,13.5,107.2,21.2,107.2,28.9z"/>
	<path class="st0" d="M317.5,2.6c2.4,0,4.9,0,7.3,0c0.4,0,0.8,0,1.2,0.1c0.1,0,0.3,0.2,0.3,0.3c0.1,0.3,0.2,0.7,0.2,1
		c0,2.7,0,5.3,0,8c0,0.2,0,0.5-0.1,0.7c0,0.3-0.3,0.6-0.6,0.7c-0.7,0.1-1.5,0.1-2.2,0.1c-0.9,0-1.8,0-2.8,0s-1.4-0.4-1.4-1.3
		c0-0.2,0-0.5,0-0.8c0.1-0.9,0.3-1.3,1.4-1.3c2.5,0,2.3-0.1,2.3-2.4c0-0.3,0-0.7-0.1-1c-0.1-0.2-0.3-0.5-0.5-0.5
		C322,6.1,321.5,6,321,6c-2.3,0-4.5,0-6.8,0c-1.5,0-3,0-4.5,0c-0.4,0-0.8-0.1-1.2-0.2c-0.1,0-0.3-0.2-0.4-0.3
		c-0.2-0.8-0.2-1.7,0-2.5c0-0.1,0.2-0.3,0.3-0.3c0.4-0.1,0.8-0.1,1.2-0.1C312.4,2.6,315,2.6,317.5,2.6z"/>
	<path class="st0" d="M315.4,25c-3.1,0-6.2,0-9.3,0c-0.4,0-0.8-0.1-1.2-0.1c-0.1,0-0.3-0.2-0.3-0.3c-0.3-0.8-0.3-1.6,0-2.4
		c0-0.1,0.2-0.3,0.3-0.3c0.3-0.1,0.7-0.1,1-0.1c0.5-0.1,1-0.1,1.5-0.1c0.3,0,0.6-0.4,0.6-0.7c0-0.5,0.1-1,0.1-1.5c0-0.3,0-0.7,0.1-1
		c0.1-0.2,0.3-0.5,0.5-0.5c0.7-0.1,1.5,0,2.2,0c0.2,0,0.4,0.2,0.5,0.5c0.1,0.8,0.1,1.7,0.2,2.5c0,0.3,0.4,0.6,0.7,0.6
		c0.7,0.1,1.3,0.1,2,0.1c3,0,6,0,9,0c0.7,0,1.3,0,2,0c1.2,0,1.2,0.4,1.3,1.4c0,0.4,0,0.8,0,1.2c0,0.3-0.3,0.7-0.6,0.7
		c-0.6,0-1.2,0.1-1.8,0.1C321.2,25,318.3,25,315.4,25L315.4,25z"/>
	<path class="st0" d="M315.4,17.4c-0.9,0-1.8,0-2.8,0c-0.3,0-0.6-0.3-0.7-0.6c-0.2-0.7-0.1-1.3,0-2c0.1-0.3,0.4-0.6,0.7-0.7
		c0.3,0,0.7-0.1,1-0.1c1.1,0,2.2,0,3.3,0c2.1,0,2.2,0.1,2.1,2.3c0,0.2-0.1,0.3-0.1,0.5c0,0.3-0.3,0.5-0.5,0.5
		C317.4,17.4,316.4,17.5,315.4,17.4C315.4,17.5,315.4,17.4,315.4,17.4z"/>
	<path class="st0" d="M307.4,9.8c-0.4,0-0.8,0.1-1.2,0.1c-1.7,0-1.9-0.2-1.9-1.8c0-1.3,0.3-1.6,1.6-1.6c0.4,0,0.8,0,1.2,0.1
		c0.1,0,0.3,0.2,0.4,0.3C307.8,7.9,307.9,8.8,307.4,9.8z"/>
</g>
<polygon class="st0" points="334.5,44.3 341.7,44.3 341.7,66.3 334.5,66.3 334.5,62.9 338.3,62.9 338.3,55.2 334.5,55.2 "/>
</svg>
