<?xml version="1.0" encoding="utf-8"?>
<!-- Generator: Adobe Illustrator 26.0.2, SVG Export Plug-In . SVG Version: 6.00 Build 0)  -->
<svg version="1.1" id="Layer_1" xmlns="http://www.w3.org/2000/svg" xmlns:xlink="http://www.w3.org/1999/xlink" x="0px" y="0px"
	 viewBox="0 0 456 69" style="enable-background:new 0 0 456 69;" xml:space="preserve">
<style type="text/css">
	.st0{fill:#333333;}
</style>
<g>
	<path class="st0" d="M11.2,16.3v5.1h0.3c3.4-3.8,7.9-6.1,15-6.1c1.6,0,3.5,0.2,4.6,0.6v8.6c-1.2-0.3-2.9-0.6-5.6-0.6
		c-6.7,0-14.2,2.4-14.2,11.2v19.8H2.6V16.3H11.2z"/>
	<path class="st0" d="M77.7,37.8h-35c0.7,7.7,5.7,11.4,13.5,11.4c7.9,0,11-3.6,11.5-6.4h9.7c-0.9,6.4-6.7,13.3-21.2,13.3
		c-14,0-22.5-7.6-22.5-20.5s8.5-20.5,22.1-20.5s22.1,7.6,22.1,20.5C77.8,36.2,77.7,37.2,77.7,37.8z M43,31.1h25.5
		C67.2,25,62.4,22,55.8,22S44.4,25,43,31.1z"/>
	<path class="st0" d="M122.4,54.4v0.4h-8.5c-0.6-0.6-1.1-2.3-1.1-4.7V49c-3.6,4.7-9.6,6.9-17,6.9c-8.1,0-15.1-3.9-15.1-12.2
		c0-8.2,5.5-11.3,11.4-12l15.2-1.6c3.4-0.4,5-1.4,5-3.9c0-2.6-2.9-4.4-9.7-4.4c-6.1,0-10.3,1.9-10.6,5.8h-9
		c0.2-9.2,9.4-12.7,19.6-12.7c11.1,0,18.8,2.9,18.8,11.3v22.2C121.4,50.8,121.4,53.2,122.4,54.4z M112.6,35.4
		c-0.8,0.6-2,0.8-3.1,0.9L96,38.1c-3.6,0.4-6.2,1.8-6.2,5.7c0,4.3,3.3,5.8,8,5.8c6,0,14.9-2.7,14.9-11.7L112.6,35.4L112.6,35.4z"/>
	<path class="st0" d="M146.1,21.8c-6.7,0-9.7,1.8-9.7,4.4c0,2.5,1.6,3.6,5.8,4.1l13.9,1.7c6.3,0.7,11.7,3.1,11.7,11.5
		c0,9.2-8.5,12.5-20.6,12.5c-11.5,0-21-3-21.3-14.2h9c0.3,5.9,5.8,7.5,12.5,7.5c7.3,0,11.4-1.9,11.4-5.3c0-2.9-1.8-4.2-6.1-4.7
		l-13.4-1.7c-6.3-0.8-11.7-3.2-11.7-10.9c0-8.1,8.1-11.6,18.7-11.6s20,3.4,20.2,12.9h-9C157.1,23.3,152.4,21.8,146.1,21.8z"/>
	<path class="st0" d="M216.4,35.6c0,12.9-8.5,20.5-22.5,20.5s-22.5-7.6-22.5-20.5s8.5-20.5,22.5-20.5
		C207.8,15.1,216.4,22.7,216.4,35.6z M207.3,35.6c0-8.8-5.1-13.3-13.5-13.3s-13.5,4.5-13.5,13.3s5.1,13.3,13.5,13.3
		S207.3,44.4,207.3,35.6z"/>
	<path class="st0" d="M230.5,21.3h0.3c3.7-4,9.1-5.9,15.2-5.9c9.4,0,16.5,3.9,16.5,13.6v25.8h-8.7V32.1c0-6.9-3.9-9.5-10.7-9.5
		c-5.9,0-12.3,3.1-12.3,11.7v20.6H222V16.3h8.5V21.3L230.5,21.3z"/>
	<path class="st0" d="M309.2,54.4v0.4h-8.5c-0.6-0.6-1.1-2.3-1.1-4.7V49c-3.6,4.7-9.6,6.9-17,6.9c-8.1,0-15.1-3.9-15.1-12.2
		c0-8.2,5.5-11.3,11.4-12l15.2-1.6c3.4-0.4,5-1.4,5-3.9c0-2.6-2.9-4.4-9.7-4.4c-6.1,0-10.3,1.9-10.6,5.8h-9.1
		c0.2-9.2,9.4-12.7,19.6-12.7c11.1,0,18.8,2.9,18.8,11.3v22.2C308.2,50.8,308.2,53.2,309.2,54.4z M299.4,35.4
		c-0.8,0.6-2,0.8-3.1,0.9L282.8,38c-3.6,0.4-6.2,1.8-6.2,5.7c0,4.3,3.3,5.8,8,5.8c6,0,14.9-2.7,14.9-11.7L299.4,35.4L299.4,35.4z"/>
	<path class="st0" d="M339.4,15.4c12.1,0,20.5,7.4,20.5,20.3S351.5,56,339.4,56c-6.6,0-11.9-2.6-14.8-6.7h-0.3v5.5h-8.5V3h8.7v18.8
		h0.3C327.8,18,332.9,15.4,339.4,15.4z M350.9,35.7c0-8.8-4.9-13.2-13.2-13.2c-8.2,0-13.2,5.3-13.2,13.2s5,13.2,13.2,13.2
		C346,48.9,350.9,44.5,350.9,35.7z"/>
	<path class="st0" d="M365.5,3h8.7v51.8h-8.7V3z"/>
	<path class="st0" d="M423.8,37.8h-35c0.7,7.7,5.7,11.4,13.5,11.4c7.9,0,11-3.6,11.5-6.4h9.7c-0.9,6.4-6.7,13.3-21.2,13.3
		c-14,0-22.5-7.6-22.5-20.5s8.5-20.5,22-20.5s22,7.6,22,20.5C423.9,36.2,423.9,37.2,423.8,37.8z M389.1,31.1h25.5
		c-1.4-6.2-6.1-9.2-12.7-9.2S390.5,25,389.1,31.1z"/>
	<path class="st0" d="M454.7,18.1c0,5.5-4.1,7.3-11.8,7.3c-6.8,0-11.7-2.3-11.9-8.6h4.7c0.2,3.9,2.9,5.1,7.2,5.1
		c4.3,0,7.2-0.9,7.2-3.9s-1.9-4.1-6.3-4.1h-3.6v-3.3h4c3.7,0,5.1-1.1,5.1-3.7s-3.1-3.5-6.4-3.5s-6.2,1.1-6.5,4.4h-4.6
		C432.2,2.2,437.3,0,443,0c6.4,0,11,1.8,11,6.8c0,2.8-1.4,4.7-3.6,5.2v0.1C453.1,12.8,454.7,14.7,454.7,18.1z"/>
</g>
</svg>
