<?xml version="1.0" encoding="utf-8"?>
<!-- Generator: Adobe Illustrator 26.0.2, SVG Export Plug-In . SVG Version: 6.00 Build 0)  -->
<svg version="1.1" id="Layer_1" xmlns="http://www.w3.org/2000/svg" xmlns:xlink="http://www.w3.org/1999/xlink" x="0px" y="0px"
	 viewBox="0 0 290 69" style="enable-background:new 0 0 290 69;" xml:space="preserve">
<style type="text/css">
	.st0{fill:#333333;}
</style>
<g>
	<g>
		<path class="st0" d="M9.8,24.5h34.9v7.4H9.8v15.3h36.9v7.7H0.9V3.8h44.8v7.7H9.8V24.5z"/>
		<path class="st0" d="M95.2,54.9h-11L72.7,40.5L60.9,54.9H50l17.1-20.3l-15-18.2h11l9.6,12.2l9.4-12.2H93L78.2,34.6L95.2,54.9z"/>
		<path class="st0" d="M108.2,49.7v18.6h-8.7v-52h8.5v5.8h0.3c2.9-4.1,8.2-6.7,14.7-6.7c12.1,0,20.5,7.5,20.5,20.3
			c0,12.9-8.4,20.3-20.5,20.3c-6.6,0-11.7-2.6-14.5-6.4h-0.3V49.7z M108,35.8c0,7.9,5,13.2,13.2,13.2c8.3,0,13.2-4.4,13.2-13.2
			s-4.9-13.2-13.2-13.2C113,22.6,108,27.9,108,35.8z"/>
		<path class="st0" d="M149.1,3.1h8.7v51.8h-8.7V3.1z"/>
		<path class="st0" d="M208.5,35.6c0,12.9-8.5,20.5-22.6,20.5s-22.6-7.6-22.6-20.5s8.5-20.5,22.6-20.5S208.5,22.8,208.5,35.6z
			 M199.5,35.6c0-8.8-5.1-13.3-13.5-13.3s-13.5,4.5-13.5,13.3S177.6,49,185.9,49S199.5,44.4,199.5,35.6z"/>
		<path class="st0" d="M222.6,16.4v5.1h0.3c3.4-3.8,7.9-6.1,15-6.1c1.6,0,3.5,0.2,4.6,0.6v8.6c-1.2-0.3-2.9-0.6-5.6-0.6
			c-6.7,0-14.2,2.4-14.2,11.2V55H214V16.4H222.6z"/>
		<path class="st0" d="M289.1,37.9h-35c0.7,7.7,5.7,11.4,13.5,11.4c7.9,0,11-3.6,11.5-6.4h9.7c-0.9,6.4-6.7,13.3-21.2,13.3
			c-14,0-22.5-7.6-22.5-20.5s8.5-20.5,22.1-20.5s22,7.6,22,20.5C289.3,36.3,289.2,37.2,289.1,37.9z M254.5,31.2H280
			c-1.4-6.2-6.1-9.2-12.7-9.2S255.8,25,254.5,31.2z"/>
	</g>
</g>
</svg>
